<svg width="482" height="403" viewBox="0 0 482 403" fill="none" xmlns="http://www.w3.org/2000/svg">
<path d="M44.3022 129.788C42.3822 129.788 40.8208 131.329 40.8208 133.223C40.8208 135.117 42.3822 136.659 44.3022 136.659C46.2222 136.659 47.7835 135.117 47.7835 133.223C47.7835 131.329 46.2222 129.788 44.3022 129.788ZM44.3022 138.325C41.4635 138.325 39.1542 136.036 39.1542 133.223C39.1542 130.409 41.4635 128.121 44.3022 128.121C47.1409 128.121 49.4502 130.409 49.4502 133.223C49.4502 136.036 47.1409 138.325 44.3022 138.325ZM44.3102 125.155C44.0928 125.155 43.8755 125.161 43.6568 125.176C38.8675 125.489 35.0275 129.455 34.9142 134.204V134.205C34.8702 135.939 35.3129 137.636 36.1955 139.113C36.3462 139.368 36.4982 139.619 36.6502 139.871C36.9515 140.371 37.2635 140.888 37.5582 141.411L44.2182 153.296L48.3342 145.959C49.2675 144.295 50.2688 142.643 51.2395 141.045C51.6208 140.417 52.0022 139.789 52.3795 139.16C53.2382 137.733 53.6902 136.099 53.6902 134.432C53.6902 131.86 52.6488 129.468 50.7568 127.696C48.9915 126.044 46.7235 125.155 44.3102 125.155ZM44.2182 155.833C43.9168 155.833 43.6382 155.671 43.4915 155.408L36.1049 142.225C35.8235 141.727 35.5182 141.221 35.2235 140.732C35.0688 140.477 34.9142 140.223 34.7622 139.965C33.7195 138.219 33.1968 136.212 33.2475 134.164C33.3822 128.56 37.9062 123.881 43.5475 123.513C46.6675 123.307 49.6315 124.361 51.8955 126.48C54.1289 128.569 55.3568 131.393 55.3568 134.432C55.3568 136.401 54.8222 138.333 53.8088 140.019C53.4302 140.649 53.0462 141.28 52.6635 141.911C51.7022 143.496 50.7075 145.136 49.7875 146.773L44.9448 155.408C44.7968 155.671 44.5195 155.833 44.2182 155.833Z" fill="#8890B9"/>
<path d="M313.303 275.333H225.636C225.176 275.333 224.803 274.961 224.803 274.5C224.803 274.04 225.176 273.667 225.636 273.667H313.303C313.763 273.667 314.136 274.04 314.136 274.5C314.136 274.961 313.763 275.333 313.303 275.333Z" fill="#8890B9"/>
<path d="M326.803 271C324.965 271 323.469 272.496 323.469 274.333C323.469 276.172 324.965 277.667 326.803 277.667C328.64 277.667 330.136 276.172 330.136 274.333C330.136 272.496 328.64 271 326.803 271ZM326.803 279.333C324.045 279.333 321.803 277.091 321.803 274.333C321.803 271.577 324.045 269.333 326.803 269.333C329.56 269.333 331.803 271.577 331.803 274.333C331.803 277.091 329.56 279.333 326.803 279.333Z" fill="#8890B9"/>
<path d="M233.303 6H115.136C114.676 6 114.303 5.62667 114.303 5.16667C114.303 4.70667 114.676 4.33333 115.136 4.33333H233.303C233.763 4.33333 234.136 4.70667 234.136 5.16667C234.136 5.62667 233.763 6 233.303 6Z" fill="#8890B9"/>
<path d="M101.635 1.66667C99.7961 1.66667 98.3014 3.16267 98.3014 5C98.3014 6.83867 99.7961 8.33333 101.635 8.33333C103.472 8.33333 104.968 6.83867 104.968 5C104.968 3.16267 103.472 1.66667 101.635 1.66667ZM101.635 10C98.8774 10 96.6348 7.75733 96.6348 5C96.6348 2.244 98.8774 -5.21541e-07 101.635 -5.21541e-07C104.392 -5.21541e-07 106.635 2.244 106.635 5C106.635 7.75733 104.392 10 101.635 10Z" fill="#8890B9"/>
<path d="M466.803 113C464.965 113 463.469 114.496 463.469 116.333C463.469 118.172 464.965 119.667 466.803 119.667C468.64 119.667 470.136 118.172 470.136 116.333C470.136 114.496 468.64 113 466.803 113ZM466.803 121.333C464.045 121.333 461.803 119.091 461.803 116.333C461.803 113.577 464.045 111.333 466.803 111.333C469.56 111.333 471.803 113.577 471.803 116.333C471.803 119.091 469.56 121.333 466.803 121.333Z" fill="#8890B9"/>
<path d="M451.504 58.3054L461.654 253.696C461.917 258.763 458.216 263.028 453.557 263.028H428.566L451.504 58.3054Z" fill="#8890B9"/>
<path d="M451.604 39.6455V256.496C451.604 260.221 448.583 263.244 444.856 263.244H97.5507C93.824 263.244 90.8027 260.221 90.8027 256.496V39.6455C90.8027 35.9175 93.824 32.8961 97.5507 32.8961H444.856C448.583 32.8961 451.604 35.9175 451.604 39.6455Z" fill="#D5D5EB"/>
<path d="M155.161 121.432H113.941V84.3013H155.161V121.432Z" fill="#F25A5B"/>
<path d="M129.679 111.189L129.412 111.165C128.967 111.084 128.583 110.801 128.373 110.399L125.412 104.735C125.035 104.013 125.315 103.124 126.035 102.747C126.756 102.369 127.645 102.648 128.023 103.369L130.111 107.364L144.064 94.9814C144.672 94.4414 145.603 94.4973 146.143 95.1053C146.684 95.7133 146.628 96.644 146.019 97.184L130.656 110.819C130.384 111.059 130.036 111.189 129.679 111.189Z" fill="white"/>
<path d="M200.978 121.432H159.76V84.3013H200.978V121.432Z" fill="white"/>
<path d="M246.798 121.432H205.578V84.3013H246.798V121.432Z" fill="white"/>
<path d="M242.396 89.672H209.983C209.289 89.672 208.727 89.1107 208.727 88.416V88.1733C208.727 87.4787 209.289 86.9173 209.983 86.9173H242.396C243.089 86.9173 243.652 87.4787 243.652 88.1733V88.416C243.652 89.1107 243.089 89.672 242.396 89.672Z" fill="#8890B9"/>
<path d="M229.341 93.028H210.161C209.407 93.028 208.748 93.6094 208.725 94.3627C208.701 95.1427 209.328 95.7827 210.103 95.7827H229.341C230.103 95.7827 230.72 95.1667 230.72 94.4054C230.72 93.644 230.103 93.028 229.341 93.028Z" fill="#8890B9"/>
<path d="M292.617 121.432H251.398V84.3013H292.617V121.432Z" fill="white"/>
<path d="M338.435 121.432H297.215V84.3013H338.435V121.432Z" fill="white"/>
<path d="M333.909 91.3494H301.74C300.979 91.3494 300.361 90.7334 300.361 89.972C300.361 89.2107 300.979 88.5933 301.74 88.5933H333.909C334.672 88.5933 335.288 89.2107 335.288 89.972C335.288 90.7334 334.672 91.3494 333.909 91.3494Z" fill="#8890B9"/>
<path d="M320.979 94.7041H301.798C301.043 94.7041 300.386 95.2854 300.362 96.0401C300.339 96.8214 300.965 97.4614 301.741 97.4614H320.979C321.741 97.4614 322.357 96.8441 322.357 96.0828C322.357 95.3214 321.741 94.7041 320.979 94.7041Z" fill="#8890B9"/>
<path d="M384.253 121.432H343.033V84.3013H384.253V121.432Z" fill="white"/>
<path d="M363.701 91.864C357.657 91.864 352.74 96.7813 352.74 102.827C352.74 108.871 357.657 113.789 363.701 113.789C369.745 113.789 374.664 108.871 374.664 102.827C374.664 96.7813 369.745 91.864 363.701 91.864ZM363.701 115.52C356.703 115.52 351.008 109.825 351.008 102.827C351.008 95.8267 356.703 90.1333 363.701 90.1333C370.701 90.1333 376.396 95.8267 376.396 102.827C376.396 109.825 370.701 115.52 363.701 115.52Z" fill="#8890B9"/>
<path d="M363.701 103.692C363.491 103.692 363.287 103.615 363.128 103.473C362.943 103.309 362.836 103.073 362.836 102.827V94.4174C362.836 93.94 363.224 93.5534 363.701 93.5534C364.18 93.5534 364.568 93.94 364.568 94.4174V101.851L370.779 101.109C371.252 101.052 371.684 101.391 371.741 101.865C371.797 102.34 371.459 102.771 370.984 102.828L363.804 103.685L363.701 103.692Z" fill="#8890B9"/>
<path d="M430.072 121.432H388.854V84.3013H430.072V121.432Z" fill="#E6B589"/>
<path d="M425.757 91.26H393.588C392.826 91.26 392.209 90.6427 392.209 89.8814C392.209 89.12 392.826 88.5027 393.588 88.5027H425.757C426.52 88.5027 427.136 89.12 427.136 89.8814C427.136 90.6427 426.52 91.26 425.757 91.26Z" fill="#B07C57"/>
<path d="M155.161 162.356H113.941V125.224H155.161V162.356Z" fill="white"/>
<path d="M125.291 136.808L125.302 137.103C125.31 137.341 125.319 137.583 125.335 137.821C125.388 138.613 125.548 139.411 125.827 140.26C126.303 141.713 127.042 143.156 128.15 144.803C129.475 146.771 130.834 148.467 132.3 149.989C133.471 151.204 134.718 152.259 136.003 153.125C137.502 154.136 138.91 154.816 140.311 155.207C140.976 155.393 141.568 155.507 142.122 155.556C142.874 155.623 143.674 155.456 144.575 155.049C145.164 154.784 145.732 154.368 146.362 153.743C146.43 153.675 146.511 153.511 146.588 153.352L146.679 153.173L146.706 152.903C146.648 152.609 146.519 152.349 146.304 152.092C145.771 151.449 145.242 150.803 144.712 150.157C144.232 149.569 143.75 148.983 143.266 148.397C143.135 148.24 142.972 148.044 142.83 147.949C142.375 147.655 141.912 147.683 141.455 148.033C141.259 148.183 141.07 148.341 140.879 148.5L140.766 148.593C140.472 148.836 140.182 149.08 139.895 149.317L139.403 149.727C139.128 149.955 138.739 149.983 138.434 149.796C134.674 147.485 131.98 144.199 130.431 140.028C130.295 139.663 130.432 139.249 130.76 139.037L130.85 138.984L130.927 138.935C131.099 138.793 131.272 138.653 131.444 138.515C131.888 138.156 132.347 137.785 132.774 137.407C133.286 136.953 133.358 136.313 132.954 135.815C131.923 134.543 130.827 133.207 129.602 131.731C129.22 131.268 128.698 131.161 128.208 131.443C127.687 131.741 127.208 132.141 126.782 132.635C126.187 133.32 125.798 134.061 125.588 134.899C125.542 135.092 125.495 135.284 125.45 135.476L125.404 135.672L125.291 136.808ZM142.448 157.236C142.29 157.236 142.131 157.229 141.974 157.216C141.319 157.159 140.628 157.027 139.863 156.812C138.288 156.373 136.72 155.619 135.072 154.507C133.688 153.576 132.352 152.444 131.102 151.147C129.566 149.553 128.147 147.783 126.768 145.733C125.572 143.957 124.768 142.383 124.242 140.779C123.92 139.796 123.734 138.864 123.672 137.932C123.655 137.675 123.646 137.419 123.636 137.163L123.623 136.819L123.627 136.7L123.75 135.451L123.77 135.339L123.828 135.092C123.875 134.893 123.922 134.695 123.971 134.496C124.24 133.415 124.763 132.42 125.522 131.543C126.071 130.909 126.695 130.389 127.378 129.997C128.574 129.308 129.983 129.579 130.886 130.667C132.114 132.148 133.214 133.488 134.248 134.765C135.207 135.947 135.048 137.619 133.878 138.655C133.423 139.057 132.951 139.44 132.492 139.811L132.22 140.031C133.602 143.425 135.763 146.06 138.803 148.057L138.828 148.037C139.116 147.797 139.408 147.553 139.702 147.311L139.812 147.219C140.02 147.047 140.228 146.873 140.442 146.709C141.462 145.931 142.694 145.872 143.74 146.555C144.068 146.768 144.31 147.045 144.55 147.335C145.035 147.921 145.518 148.511 146.002 149.101C146.528 149.744 147.056 150.388 147.587 151.027C148.018 151.544 148.28 152.125 148.37 152.756L148.375 152.957L148.32 153.503L148.214 153.836L148.084 154.087C147.959 154.343 147.802 154.66 147.536 154.925C146.76 155.696 146.038 156.219 145.26 156.569C144.267 157.016 143.343 157.236 142.448 157.236Z" fill="#8890B9"/>
<path d="M200.978 162.356H159.76V125.224H200.978V162.356Z" fill="white"/>
<path d="M196.47 131.593H164.301C163.539 131.593 162.922 130.976 162.922 130.215C162.922 129.453 163.539 128.836 164.301 128.836H196.47C197.233 128.836 197.85 129.453 197.85 130.215C197.85 130.976 197.233 131.593 196.47 131.593Z" fill="#8890B9"/>
<path d="M246.798 162.356H205.578V125.224H246.798V162.356Z" fill="white"/>
<path d="M226.25 132.908C220.205 132.908 215.287 137.827 215.287 143.871C215.287 149.916 220.205 154.833 226.25 154.833C232.295 154.833 237.213 149.916 237.213 143.871C237.213 137.827 232.295 132.908 226.25 132.908ZM226.25 156.564C219.25 156.564 213.557 150.871 213.557 143.871C213.557 136.872 219.25 131.177 226.25 131.177C233.249 131.177 238.943 136.872 238.943 143.871C238.943 150.871 233.249 156.564 226.25 156.564Z" fill="#8890B9"/>
<path d="M226.25 144.736C226.039 144.736 225.835 144.66 225.675 144.519C225.49 144.355 225.385 144.119 225.385 143.871V135.463C225.385 134.985 225.773 134.597 226.25 134.597C226.729 134.597 227.115 134.985 227.115 135.463V142.896L233.327 142.153C233.801 142.097 234.233 142.436 234.289 142.911C234.346 143.385 234.007 143.816 233.531 143.872L226.353 144.731L226.25 144.736Z" fill="#8890B9"/>
<path d="M265.003 112.663L264.738 112.639C264.291 112.556 263.907 112.273 263.697 111.872L260.738 106.207C260.359 105.487 260.637 104.596 261.359 104.22C262.08 103.843 262.97 104.121 263.348 104.843L265.435 108.837L279.388 96.4534C279.996 95.9134 280.927 95.9694 281.467 96.5787C282.008 97.1867 281.952 98.1174 281.344 98.6574L265.98 112.291C265.708 112.532 265.36 112.663 265.003 112.663Z" fill="#8890B9"/>
<path d="M292.617 162.356H251.398V125.224H292.617V162.356Z" fill="#4F64B8"/>
<path d="M288.091 131.593H255.922C255.16 131.593 254.543 130.976 254.543 130.215C254.543 129.453 255.16 128.836 255.922 128.836H288.091C288.852 128.836 289.47 129.453 289.47 130.215C289.47 130.976 288.852 131.593 288.091 131.593Z" fill="#27459B"/>
<path d="M338.435 162.356H297.215V125.224H338.435V162.356Z" fill="white"/>
<path d="M333.909 131.593H301.74C300.979 131.593 300.361 130.976 300.361 130.215C300.361 129.453 300.979 128.836 301.74 128.836H333.909C334.672 128.836 335.288 129.453 335.288 130.215C335.288 130.976 334.672 131.593 333.909 131.593Z" fill="#8890B9"/>
<path d="M320.979 134.948H301.798C301.043 134.948 300.386 135.529 300.362 136.283C300.339 137.064 300.965 137.704 301.741 137.704H320.979C321.741 137.704 322.357 137.087 322.357 136.327C322.357 135.564 321.741 134.948 320.979 134.948Z" fill="#8890B9"/>
<path d="M384.253 162.356H343.033V125.224H384.253V162.356Z" fill="white"/>
<path d="M430.072 162.356H388.854V125.224H430.072V162.356Z" fill="white"/>
<path d="M425.056 131.951H392.885C392.125 131.951 391.508 131.333 391.508 130.572C391.508 129.811 392.125 129.195 392.885 129.195H425.056C425.816 129.195 426.433 129.811 426.433 130.572C426.433 131.333 425.816 131.951 425.056 131.951Z" fill="#8890B9"/>
<path d="M412.122 135.305H392.941C392.186 135.305 391.529 135.887 391.507 136.641C391.483 137.421 392.109 138.061 392.884 138.061H412.122C412.884 138.061 413.501 137.444 413.501 136.684C413.501 135.923 412.884 135.305 412.122 135.305Z" fill="#8890B9"/>
<path d="M155.161 203.28H113.941V166.149H155.161V203.28Z" fill="white"/>
<path d="M200.978 203.28H159.76V166.149H200.978V203.28Z" fill="#4F64B8"/>
<path d="M174.176 191.732L173.908 191.707C173.462 191.627 173.08 191.343 172.869 190.941L169.908 185.276C169.532 184.556 169.81 183.665 170.532 183.289C171.252 182.913 172.142 183.192 172.518 183.912L174.608 187.907L188.561 175.524C189.169 174.983 190.1 175.039 190.64 175.647C191.18 176.256 191.125 177.187 190.516 177.727L175.153 191.36C174.881 191.601 174.532 191.732 174.176 191.732Z" fill="white"/>
<path d="M265.82 193.004L265.555 192.98C265.109 192.899 264.725 192.616 264.516 192.213L261.555 186.549C261.177 185.828 261.457 184.939 262.177 184.561C262.899 184.185 263.788 184.464 264.165 185.185L266.252 189.18L280.205 176.796C280.813 176.256 281.744 176.312 282.285 176.92C282.825 177.528 282.769 178.459 282.161 179L266.797 192.633C266.525 192.875 266.179 193.004 265.82 193.004Z" fill="white"/>
<path d="M246.798 203.28H205.578V166.149H246.798V203.28Z" fill="white"/>
<path d="M292.617 203.28H251.398V166.149H292.617V203.28Z" fill="white"/>
<path d="M338.435 203.28H297.215V166.149H338.435V203.28Z" fill="#F25A5B"/>
<path d="M384.253 203.28H343.033V166.149H384.253V203.28Z" fill="white"/>
<path d="M379.73 172.428H347.559C346.798 172.428 346.182 171.811 346.182 171.049C346.182 170.288 346.798 169.671 347.559 169.671H379.73C380.49 169.671 381.107 170.288 381.107 171.049C381.107 171.811 380.49 172.428 379.73 172.428Z" fill="#8890B9"/>
<path d="M430.072 203.28H388.854V166.149H430.072V203.28Z" fill="#4F64B8"/>
<path d="M409.521 173.635C403.474 173.635 398.558 178.553 398.558 184.597C398.558 190.641 403.474 195.56 409.521 195.56C415.565 195.56 420.482 190.641 420.482 184.597C420.482 178.553 415.565 173.635 409.521 173.635ZM409.521 197.292C402.521 197.292 396.826 191.596 396.826 184.597C396.826 177.599 402.521 171.904 409.521 171.904C416.52 171.904 422.214 177.599 422.214 184.597C422.214 191.596 416.52 197.292 409.521 197.292Z" fill="white"/>
<path d="M409.521 185.464C409.309 185.464 409.105 185.387 408.946 185.245C408.76 185.081 408.654 184.845 408.654 184.597V176.189C408.654 175.712 409.042 175.324 409.521 175.324C409.998 175.324 410.386 175.712 410.386 176.189V183.623L416.597 182.88C417.072 182.823 417.502 183.163 417.56 183.637C417.616 184.112 417.277 184.543 416.801 184.599L409.624 185.457L409.521 185.464Z" fill="white"/>
<path d="M311.626 193.004L311.36 192.98C310.913 192.899 310.53 192.616 310.321 192.213L307.36 186.549C306.982 185.828 307.261 184.939 307.982 184.561C308.704 184.185 309.593 184.464 309.969 185.185L312.058 189.18L326.012 176.796C326.62 176.256 327.55 176.312 328.09 176.92C328.632 177.528 328.576 178.459 327.966 179L312.604 192.633C312.332 192.875 311.984 193.004 311.626 193.004Z" fill="white"/>
<path d="M155.161 244.204H113.941V207.073H155.161V244.204Z" fill="white"/>
<path d="M200.978 244.204H159.76V207.073H200.978V244.204Z" fill="white"/>
<path d="M246.798 244.204H205.578V207.073H246.798V244.204Z" fill="white"/>
<path d="M220.979 233.236L220.712 233.212C220.267 233.131 219.884 232.848 219.674 232.445L216.712 226.781C216.336 226.06 216.615 225.171 217.336 224.793C218.056 224.416 218.947 224.695 219.323 225.416L221.411 229.412L235.364 217.027C235.972 216.488 236.904 216.543 237.444 217.152C237.983 217.76 237.928 218.692 237.319 219.231L221.958 232.864C221.684 233.107 221.336 233.236 220.979 233.236Z" fill="#8890B9"/>
<path d="M292.617 244.204H251.398V207.073H292.617V244.204Z" fill="white"/>
<path d="M288.091 213.303H255.922C255.16 213.303 254.543 212.685 254.543 211.924C254.543 211.163 255.16 210.545 255.922 210.545H288.091C288.852 210.545 289.47 211.163 289.47 211.924C289.47 212.685 288.852 213.303 288.091 213.303Z" fill="#8890B9"/>
<path d="M275.16 216.656H255.978C255.225 216.656 254.566 217.239 254.544 217.992C254.52 218.773 255.145 219.413 255.921 219.413H275.16C275.921 219.413 276.538 218.796 276.538 218.035C276.538 217.273 275.921 216.656 275.16 216.656Z" fill="#8890B9"/>
<path d="M338.435 244.204H297.215V207.073H338.435V244.204Z" fill="white"/>
<path d="M384.253 244.204H343.033V207.073H384.253V244.204Z" fill="#E6B589"/>
<path d="M353.559 217.797L353.572 218.127C353.58 218.391 353.591 218.653 353.608 218.917C353.667 219.795 353.844 220.677 354.151 221.615C354.677 223.217 355.491 224.808 356.712 226.621C358.169 228.787 359.664 230.652 361.279 232.328C362.568 233.664 363.939 234.827 365.355 235.781C367.007 236.896 368.563 237.645 370.111 238.079C370.845 238.284 371.5 238.409 372.111 238.464C372.947 238.536 373.844 238.353 374.847 237.901C375.503 237.605 376.133 237.144 376.832 236.451C376.916 236.365 377.008 236.18 377.096 236L377.201 235.791L377.235 235.467C377.169 235.125 377.021 234.824 376.775 234.527C376.187 233.817 375.601 233.105 375.019 232.392C374.492 231.751 373.967 231.109 373.439 230.472C373.292 230.295 373.109 230.075 372.94 229.964C372.409 229.619 371.871 229.651 371.337 230.059C371.125 230.221 370.919 230.392 370.715 230.563L370.577 230.676C370.229 230.965 369.883 231.253 369.543 231.536L369.081 231.92C368.807 232.148 368.417 232.177 368.112 231.989C364 229.463 361.056 225.867 359.36 221.307C359.224 220.941 359.36 220.529 359.688 220.317L359.787 220.256L359.883 220.195C360.072 220.04 360.263 219.885 360.455 219.731C360.94 219.339 361.443 218.932 361.909 218.519C362.497 217.997 362.583 217.232 362.117 216.656C360.98 215.253 359.776 213.788 358.437 212.172C357.996 211.64 357.369 211.512 356.803 211.837C356.223 212.171 355.688 212.617 355.216 213.163C354.556 213.927 354.121 214.751 353.889 215.684C353.839 215.887 353.791 216.089 353.743 216.293L353.684 216.539L353.559 217.797ZM372.477 240.145C372.305 240.145 372.135 240.139 371.965 240.124C371.249 240.061 370.497 239.916 369.663 239.684C367.939 239.203 366.225 238.379 364.424 237.163C362.909 236.143 361.449 234.905 360.079 233.484C358.396 231.739 356.843 229.799 355.329 227.552C354.02 225.608 353.141 223.887 352.568 222.135C352.216 221.063 352.013 220.045 351.945 219.027C351.927 218.748 351.916 218.468 351.907 218.188L351.891 217.807L351.895 217.691L352.029 216.317L352.049 216.205L352.121 215.908C352.171 215.699 352.22 215.489 352.272 215.281C352.565 214.105 353.132 213.025 353.956 212.073C354.552 211.384 355.231 210.819 355.972 210.393C357.249 209.659 358.756 209.947 359.72 211.108C361.064 212.728 362.271 214.2 363.411 215.607C364.436 216.869 364.265 218.657 363.015 219.765C362.52 220.204 362.003 220.623 361.503 221.027L361.149 221.312C362.68 225.101 365.085 228.033 368.481 230.251C368.821 229.969 369.168 229.68 369.515 229.393L369.648 229.281C369.871 229.096 370.095 228.912 370.324 228.735C371.415 227.901 372.733 227.839 373.851 228.568C374.201 228.797 374.464 229.096 374.721 229.408C375.252 230.048 375.78 230.693 376.307 231.336C376.889 232.045 377.469 232.756 378.057 233.463C378.519 234.017 378.801 234.641 378.899 235.32L378.904 235.521L378.844 236.12L378.737 236.455L378.592 236.736C378.451 237.025 378.289 237.352 378.007 237.633C377.163 238.472 376.376 239.04 375.531 239.42C374.453 239.907 373.448 240.145 372.477 240.145Z" fill="#B07C57"/>
<path d="M430.072 244.204H388.854V207.073H430.072V244.204Z" fill="white"/>
<path d="M425.056 213.303H392.885C392.125 213.303 391.508 212.685 391.508 211.924C391.508 211.163 392.125 210.545 392.885 210.545H425.056C425.816 210.545 426.433 211.163 426.433 211.924C426.433 212.685 425.816 213.303 425.056 213.303Z" fill="#8890B9"/>
<path d="M412.122 216.656H392.941C392.186 216.656 391.529 217.239 391.507 217.992C391.483 218.773 392.109 219.413 392.884 219.413H412.122C412.884 219.413 413.501 218.796 413.501 218.035C413.501 217.273 412.884 216.656 412.122 216.656Z" fill="#8890B9"/>
<path d="M155.161 80.5081H113.941V73.7334H155.161V80.5081Z" fill="#4F64B8"/>
<path d="M200.978 80.5081H159.76V73.7334H200.978V80.5081Z" fill="#E6B589"/>
<path d="M246.798 80.5081H205.578V73.7334H246.798V80.5081Z" fill="#F25A5B"/>
<path d="M292.617 80.5081H251.398V73.7334H292.617V80.5081Z" fill="#4F64B8"/>
<path d="M430.072 80.5081H388.854V73.7334H430.072V80.5081Z" fill="#4F64B8"/>
<path d="M338.435 80.5081H297.215V73.7334H338.435V80.5081Z" fill="#E6B589"/>
<path d="M384.253 80.5081H343.033V73.7334H384.253V80.5081Z" fill="#F25A5B"/>
<path d="M451.604 39.6454V58.3041H90.8027V39.6454C90.8027 35.9174 93.824 32.8961 97.5507 32.8961H444.856C448.583 32.8961 451.604 35.9174 451.604 39.6454Z" fill="#1C274A"/>
<path d="M114.984 41.3934C114.984 43.1774 113.539 44.6227 111.755 44.6227C109.971 44.6227 108.525 43.1774 108.525 41.3934C108.525 39.6107 109.971 38.1654 111.755 38.1654C113.539 38.1654 114.984 39.6107 114.984 41.3934Z" fill="#365289"/>
<path d="M125.907 32.896C126.171 31.8626 126.275 30.7666 126.19 29.636C125.807 24.5906 121.65 20.584 116.595 20.3826C110.877 20.1546 106.153 24.7386 106.153 30.408C106.153 31.2653 106.261 32.1 106.465 32.896C107.254 35.9706 109.467 38.4786 112.355 39.676C112.859 39.8853 113.231 40.3306 113.354 40.8613L113.371 40.9373C113.653 42.2813 112.265 43.368 110.998 42.8373C106.877 41.112 103.789 37.3946 102.946 32.896C102.807 32.1733 102.731 31.4293 102.715 30.6706C102.574 23.2786 108.502 17.096 115.894 16.9386C123.457 16.7773 129.658 22.8813 129.658 30.408C129.658 31.2573 129.579 32.0893 129.427 32.896H125.907Z" fill="#E6B589"/>
<path d="M146.222 41.3934C146.222 43.1774 144.776 44.6227 142.993 44.6227C141.209 44.6227 139.764 43.1774 139.764 41.3934C139.764 39.6107 141.209 38.1654 142.993 38.1654C144.776 38.1654 146.222 39.6107 146.222 41.3934Z" fill="#365289"/>
<path d="M157.144 32.896C157.408 31.8626 157.514 30.7666 157.427 29.636C157.046 24.5906 152.888 20.584 147.834 20.3826C142.115 20.1546 137.39 24.7386 137.39 30.408C137.39 31.2653 137.499 32.1 137.702 32.896C138.492 35.9706 140.704 38.4786 143.594 39.676C144.098 39.8853 144.467 40.3306 144.592 40.8613L144.61 40.9373C144.891 42.2813 143.502 43.368 142.236 42.8373C138.115 41.112 135.024 37.3946 134.183 32.896C134.046 32.1733 133.967 31.4293 133.954 30.6706C133.811 23.2786 139.74 17.096 147.131 16.9386C154.694 16.7773 160.896 22.8813 160.896 30.408C160.896 31.2573 160.818 32.0893 160.666 32.896H157.144Z" fill="#E6B589"/>
<path d="M177.461 41.3934C177.461 43.1774 176.016 44.6227 174.233 44.6227C172.449 44.6227 171.004 43.1774 171.004 41.3934C171.004 39.6107 172.449 38.1654 174.233 38.1654C176.016 38.1654 177.461 39.6107 177.461 41.3934Z" fill="#365289"/>
<path d="M188.384 32.896C188.647 31.8626 188.752 30.7666 188.667 29.636C188.285 24.5906 184.128 20.584 179.072 20.3826C173.353 20.1546 168.629 24.7386 168.629 30.408C168.629 31.2653 168.739 32.1 168.941 32.896C169.731 35.9706 171.944 38.4786 174.833 39.676C175.337 39.8853 175.707 40.3306 175.832 40.8613L175.849 40.9373C176.129 42.2813 174.741 43.368 173.475 42.8373C169.353 41.112 166.264 37.3946 165.421 32.896C165.285 32.1733 165.207 31.4293 165.192 30.6706C165.049 23.2786 170.979 17.096 178.371 16.9386C185.932 16.7773 192.135 22.8813 192.135 30.408C192.135 31.2573 192.056 32.0893 191.905 32.896H188.384Z" fill="#E6B589"/>
<path d="M208.698 41.3934C208.698 43.1774 207.252 44.6227 205.468 44.6227C203.686 44.6227 202.24 43.1774 202.24 41.3934C202.24 39.6107 203.686 38.1654 205.468 38.1654C207.252 38.1654 208.698 39.6107 208.698 41.3934Z" fill="#365289"/>
<path d="M219.62 32.896C219.884 31.8626 219.99 30.7666 219.904 29.636C219.52 24.5906 215.363 20.584 210.308 20.3826C204.59 20.1546 199.866 24.7386 199.866 30.408C199.866 31.2653 199.975 32.1 200.179 32.896C200.967 35.9706 203.182 38.4786 206.07 39.676C206.574 39.8853 206.944 40.3306 207.07 40.8613L207.086 40.9373C207.367 42.2813 205.978 43.368 204.712 42.8373C200.59 41.112 197.502 37.3946 196.659 32.896C196.52 32.1733 196.444 31.4293 196.428 30.6706C196.287 23.2786 202.215 17.096 209.607 16.9386C217.17 16.7773 223.372 22.8813 223.372 30.408C223.372 31.2573 223.294 32.0893 223.14 32.896H219.62Z" fill="#E6B589"/>
<path d="M239.937 41.3934C239.937 43.1774 238.492 44.6227 236.708 44.6227C234.924 44.6227 233.479 43.1774 233.479 41.3934C233.479 39.6107 234.924 38.1654 236.708 38.1654C238.492 38.1654 239.937 39.6107 239.937 41.3934Z" fill="#365289"/>
<path d="M250.857 32.896C251.123 31.8626 251.227 30.7666 251.141 29.636C250.759 24.5906 246.601 20.584 241.547 20.3826C235.828 20.1546 231.104 24.7386 231.104 30.408C231.104 31.2653 231.212 32.1 231.416 32.896C232.205 35.9706 234.417 38.4786 237.307 39.676C237.811 39.8853 238.181 40.3306 238.305 40.8613L238.323 40.9373C238.604 42.2813 237.215 43.368 235.949 42.8373C231.828 41.112 228.739 37.3946 227.897 32.896C227.759 32.1733 227.681 31.4293 227.667 30.6706C227.524 23.2786 233.453 17.096 240.845 16.9386C248.407 16.7773 254.609 22.8813 254.609 30.408C254.609 31.2573 254.531 32.0893 254.379 32.896H250.857Z" fill="#E6B589"/>
<path d="M271.175 41.3934C271.175 43.1774 269.729 44.6227 267.946 44.6227C266.162 44.6227 264.717 43.1774 264.717 41.3934C264.717 39.6107 266.162 38.1654 267.946 38.1654C269.729 38.1654 271.175 39.6107 271.175 41.3934Z" fill="#365289"/>
<path d="M282.096 32.896C282.36 31.8626 282.464 30.7666 282.378 29.636C281.997 24.5906 277.84 20.584 272.784 20.3826C267.066 20.1546 262.341 24.7386 262.341 30.408C262.341 31.2653 262.45 32.1 262.653 32.896C263.444 35.9706 265.656 38.4786 268.545 39.676C269.049 39.8853 269.418 40.3306 269.544 40.8613L269.561 40.9373C269.842 42.2813 268.453 43.368 267.186 42.8373C263.066 41.112 259.976 37.3946 259.133 32.896C258.997 32.1733 258.918 31.4293 258.905 30.6706C258.761 23.2786 264.69 17.096 272.082 16.9386C279.645 16.7773 285.848 22.8813 285.848 30.408C285.848 31.2573 285.769 32.0893 285.617 32.896H282.096Z" fill="#E6B589"/>
<path d="M302.41 41.3934C302.41 43.1774 300.965 44.6227 299.182 44.6227C297.4 44.6227 295.953 43.1774 295.953 41.3934C295.953 39.6107 297.4 38.1654 299.182 38.1654C300.965 38.1654 302.41 39.6107 302.41 41.3934Z" fill="#365289"/>
<path d="M313.335 32.896C313.598 31.8626 313.703 30.7666 313.618 29.636C313.235 24.5906 309.076 20.584 304.022 20.3826C298.304 20.1546 293.579 24.7386 293.579 30.408C293.579 31.2653 293.688 32.1 293.892 32.896C294.682 35.9706 296.895 38.4786 299.784 39.676C300.288 39.8853 300.658 40.3306 300.783 40.8613L300.799 40.9373C301.08 42.2813 299.691 43.368 298.426 42.8373C294.304 41.112 291.215 37.3946 290.372 32.896C290.235 32.1733 290.158 31.4293 290.143 30.6706C290 23.2786 295.928 17.096 303.322 16.9386C310.883 16.7773 317.086 22.8813 317.086 30.408C317.086 31.2573 317.007 32.0893 316.855 32.896H313.335Z" fill="#E6B589"/>
<path d="M333.65 41.3934C333.65 43.1774 332.205 44.6227 330.421 44.6227C328.638 44.6227 327.191 43.1774 327.191 41.3934C327.191 39.6107 328.638 38.1654 330.421 38.1654C332.205 38.1654 333.65 39.6107 333.65 41.3934Z" fill="#365289"/>
<path d="M344.571 32.896C344.835 31.8626 344.939 30.7666 344.854 29.636C344.471 24.5906 340.314 20.584 335.259 20.3826C329.541 20.1546 324.817 24.7386 324.817 30.408C324.817 31.2653 324.925 32.1 325.13 32.896C325.918 35.9706 328.131 38.4786 331.019 39.676C331.523 39.8853 331.895 40.3306 332.019 40.8613L332.035 40.9373C332.317 42.2813 330.929 43.368 329.662 42.8373C325.541 41.112 322.453 37.3946 321.61 32.896C321.471 32.1733 321.395 31.4293 321.379 30.6706C321.238 23.2786 327.166 17.096 334.558 16.9386C342.121 16.7773 348.323 22.8813 348.323 30.408C348.323 31.2573 348.243 32.0893 348.091 32.896H344.571Z" fill="#E6B589"/>
<path d="M364.888 41.3934C364.888 43.1774 363.443 44.6227 361.659 44.6227C359.875 44.6227 358.43 43.1774 358.43 41.3934C358.43 39.6107 359.875 38.1654 361.659 38.1654C363.443 38.1654 364.888 39.6107 364.888 41.3934Z" fill="#365289"/>
<path d="M375.81 32.896C376.076 31.8626 376.18 30.7666 376.093 29.636C375.712 24.5906 371.554 20.584 366.5 20.3826C360.781 20.1546 356.056 24.7386 356.056 30.408C356.056 31.2653 356.165 32.1 356.368 32.896C357.158 35.9706 359.37 38.4786 362.26 39.676C362.764 39.8853 363.133 40.3306 363.258 40.8613L363.276 40.9373C363.557 42.2813 362.168 43.368 360.902 42.8373C356.781 41.112 353.69 37.3946 352.849 32.896C352.712 32.1733 352.633 31.4293 352.62 30.6706C352.477 23.2786 358.406 17.096 365.798 16.9386C373.36 16.7773 379.562 22.8813 379.562 30.408C379.562 31.2573 379.484 32.0893 379.332 32.896H375.81Z" fill="#E6B589"/>
<path d="M396.127 41.3934C396.127 43.1774 394.68 44.6227 392.897 44.6227C391.113 44.6227 389.668 43.1774 389.668 41.3934C389.668 39.6107 391.113 38.1654 392.897 38.1654C394.68 38.1654 396.127 39.6107 396.127 41.3934Z" fill="#365289"/>
<path d="M407.048 32.896C407.311 31.8626 407.416 30.7666 407.331 29.636C406.949 24.5906 402.792 20.584 397.736 20.3826C392.019 20.1546 387.293 24.7386 387.293 30.408C387.293 31.2653 387.403 32.1 387.605 32.896C388.396 35.9706 390.608 38.4786 393.497 39.676C394.001 39.8853 394.371 40.3306 394.496 40.8613L394.513 40.9373C394.795 42.2813 393.405 43.368 392.139 42.8373C388.019 41.112 384.928 37.3946 384.085 32.896C383.949 32.1733 383.871 31.4293 383.856 30.6706C383.713 23.2786 389.643 17.096 397.035 16.9386C404.596 16.7773 410.799 22.8813 410.799 30.408C410.799 31.2573 410.72 32.0893 410.569 32.896H407.048Z" fill="#E6B589"/>
<path d="M427.364 41.3934C427.364 43.1774 425.918 44.6227 424.134 44.6227C422.353 44.6227 420.906 43.1774 420.906 41.3934C420.906 39.6107 422.353 38.1654 424.134 38.1654C425.918 38.1654 427.364 39.6107 427.364 41.3934Z" fill="#365289"/>
<path d="M438.286 32.896C438.55 31.8626 438.656 30.7666 438.57 29.636C438.188 24.5906 434.029 20.584 428.974 20.3826C423.256 20.1546 418.532 24.7386 418.532 30.408C418.532 31.2653 418.641 32.1 418.845 32.896C419.633 35.9706 421.848 38.4786 424.737 39.676C425.24 39.8853 425.61 40.3306 425.736 40.8613L425.752 40.9373C426.033 42.2813 424.644 43.368 423.378 42.8373C419.256 41.112 416.168 37.3946 415.325 32.896C415.188 32.1733 415.11 31.4293 415.094 30.6706C414.953 23.2786 420.881 17.096 428.274 16.9386C435.836 16.7773 442.038 22.8813 442.038 30.408C442.038 31.2573 441.96 32.0893 441.806 32.896H438.286Z" fill="#E6B589"/>
<path d="M481.333 393.371C481.333 398.341 373.583 402.371 240.667 402.371C107.749 402.371 0 398.341 0 393.371C0 388.4 107.749 384.371 240.667 384.371C373.583 384.371 481.333 388.4 481.333 393.371Z" fill="#D5D5EB"/>
<path d="M19.4049 392.764C19.1835 392.764 18.9582 392.723 18.7409 392.637C17.8062 392.269 17.3475 391.214 17.7142 390.283L54.0395 297.991C54.4075 297.057 55.4622 296.597 56.3955 296.967C57.3275 297.333 57.7875 298.388 57.4195 299.321L21.0955 391.612C20.8142 392.327 20.1289 392.764 19.4049 392.764Z" fill="#27459B"/>
<path d="M115.651 392.764C114.927 392.764 114.242 392.327 113.962 391.612L77.6366 299.321C77.2686 298.388 77.7286 297.333 78.662 296.967C79.5953 296.599 80.6499 297.057 81.0179 297.991L117.342 390.283C117.709 391.214 117.25 392.269 116.317 392.637C116.098 392.723 115.873 392.764 115.651 392.764Z" fill="#27459B"/>
<path d="M98.8451 350.063C98.6438 350.063 98.4424 350.029 98.2424 349.96L43.2025 330.669C42.2558 330.337 41.7571 329.301 42.0891 328.355C42.4211 327.408 43.4584 326.911 44.4051 327.241L99.4451 346.531C100.392 346.863 100.89 347.9 100.558 348.847C100.296 349.593 99.5945 350.063 98.8451 350.063Z" fill="#27459B"/>
<path d="M36.2081 350.063C35.4587 350.063 34.7561 349.593 34.4934 348.847C34.1614 347.9 34.6601 346.863 35.6067 346.531L90.6481 327.241C91.5948 326.909 92.6308 327.408 92.9614 328.355C93.2948 329.301 92.7948 330.337 91.8494 330.669L36.8081 349.96C36.6094 350.029 36.4067 350.063 36.2081 350.063Z" fill="#27459B"/>
<path d="M87.2937 392.764C87.0724 392.764 86.847 392.723 86.6284 392.637C85.6937 392.269 85.2364 391.214 85.603 390.283L121.927 297.991C122.295 297.057 123.35 296.597 124.283 296.967C125.216 297.333 125.675 298.388 125.307 299.321L88.983 391.612C88.7017 392.327 88.0177 392.764 87.2937 392.764Z" fill="#27459B"/>
<path d="M183.541 392.764C182.815 392.764 182.13 392.327 181.85 391.612L145.525 299.321C145.158 298.388 145.617 297.333 146.55 296.967C147.483 296.599 148.538 297.057 148.906 297.991L185.23 390.283C185.597 391.214 185.138 392.269 184.205 392.637C183.986 392.723 183.762 392.764 183.541 392.764Z" fill="#27459B"/>
<path d="M166.734 350.063C166.534 350.063 166.331 350.029 166.131 349.96L111.091 330.669C110.144 330.337 109.646 329.301 109.978 328.355C110.31 327.408 111.347 326.911 112.294 327.241L167.334 346.531C168.28 346.863 168.779 347.9 168.447 348.847C168.184 349.593 167.483 350.063 166.734 350.063Z" fill="#27459B"/>
<path d="M104.095 350.063C103.346 350.063 102.643 349.593 102.382 348.847C102.05 347.9 102.549 346.863 103.495 346.531L158.535 327.241C159.482 326.909 160.518 327.408 160.85 328.355C161.182 329.301 160.683 330.337 159.738 330.669L104.695 349.96C104.498 350.029 104.294 350.063 104.095 350.063Z" fill="#27459B"/>
<path d="M178.168 300.901C178.168 300.901 101.579 344.729 52.9734 309.279C51.0387 307.868 49.1481 306.335 47.3081 304.661C46.6747 304.088 46.0481 303.499 45.4294 302.892C3.98942 262.393 56.8294 197.433 56.8294 197.433C58.2108 198.012 59.5774 198.601 60.9348 199.205C61.4161 199.416 61.8974 199.631 62.3774 199.847C138.052 233.972 178.168 300.901 178.168 300.901Z" fill="#4F64B8"/>
<path d="M47.6283 223.532C41.3083 236.195 34.3683 255.143 37.1963 273.483C39.6603 289.461 45.4243 301.005 52.9736 309.279C51.0389 307.868 49.1483 306.335 47.3083 304.661C41.4176 296.263 37.5056 285.924 35.6256 273.724C34.3456 265.425 34.8896 256.336 37.2403 246.703C39.1149 239.019 42.1363 230.973 46.2229 222.792C52.8549 209.513 60.207 200.125 60.935 199.205C61.4163 199.416 61.8976 199.631 62.3776 199.847L62.2296 200.131C62.1549 200.225 54.5029 209.76 47.6283 223.532Z" fill="#27459B"/>
<path d="M71.5772 236.544C71.5772 236.544 56.7946 276.78 70.8652 294.941C84.9359 313.104 117.468 321.731 164.597 294.228L71.5772 236.544Z" fill="#27459B"/>
<path d="M140.278 226.171L140.405 226.301L140.441 226.341L140.345 226.26C140.197 226.135 140.137 226.051 140.278 226.171ZM197.778 240.017L195.75 239.731L191.685 239.147C188.974 238.748 186.267 238.32 183.567 237.871C178.167 236.984 172.797 236.008 167.514 234.915C165.778 234.553 164.054 234.177 162.345 233.784C161.991 233.704 161.643 233.624 161.294 233.54C160.75 233.415 160.21 233.288 159.671 233.157C157.09 232.533 154.551 231.867 152.097 231.135C150.658 230.704 149.241 230.251 147.885 229.781C147.37 229.6 146.867 229.417 146.374 229.231C145.954 229.075 145.537 228.915 145.134 228.751C144.074 228.32 143.074 227.871 142.221 227.427C141.507 227.061 140.891 226.677 140.523 226.404L140.483 226.341L140.231 225.931L139.203 224.301C138.863 223.757 138.543 223.2 138.214 222.651C137.543 221.553 136.923 220.424 136.287 219.307C135.97 218.748 135.678 218.175 135.37 217.611C135.067 217.04 134.757 216.477 134.47 215.901C133.281 213.617 132.171 211.288 131.101 208.94C130.047 206.584 129.065 204.193 128.114 201.795C126.247 196.973 124.618 192.053 123.287 187.077C122.607 184.593 121.994 182.097 121.467 179.611C121.203 178.371 120.958 177.128 120.747 175.908C120.637 175.297 120.534 174.695 120.438 174.101L120.307 173.237L120.218 172.575L96.5273 175.204L96.6247 175.98L96.71 176.617L96.894 177.831C97.0207 178.62 97.154 179.397 97.294 180.161C97.5767 181.695 97.8913 183.195 98.2247 184.688C98.894 187.664 99.6433 190.6 100.481 193.501C102.185 199.297 104.21 204.971 106.523 210.533C107.685 213.311 108.945 216.051 110.263 218.764C110.945 220.107 111.605 221.464 112.321 222.795C112.674 223.461 113.021 224.131 113.385 224.791L114.491 226.767C114.854 227.431 115.243 228.077 115.627 228.731C116.014 229.377 116.387 230.033 116.787 230.677C117.587 231.961 118.37 233.253 119.21 234.515C119.625 235.147 120.03 235.784 120.458 236.411L121.743 238.284L122.065 238.751L122.227 238.984L122.534 239.42C122.817 239.817 123.09 240.151 123.374 240.493C123.647 240.807 123.93 241.131 124.201 241.404C125.301 242.544 126.325 243.351 127.301 244.061C129.243 245.437 130.987 246.341 132.658 247.131C133.794 247.66 134.898 248.121 135.977 248.533C136.294 248.657 136.607 248.777 136.921 248.891C137.105 248.957 137.285 249.024 137.463 249.087C140.567 250.197 143.547 251.04 146.498 251.773C148.261 252.211 150.011 252.611 151.75 252.98C152.077 253.051 152.407 253.121 152.734 253.188C156.474 253.957 160.174 254.6 163.867 255.171C169.597 256.057 175.297 256.751 180.991 257.335C183.838 257.621 186.685 257.873 189.534 258.107C190.958 258.22 192.385 258.331 193.814 258.431L195.961 258.568L198.161 258.691L199.754 240.284L197.778 240.017Z" fill="#E6B589"/>
<path d="M162.448 234.844C162.43 234.493 162.394 234.137 162.345 233.784C161.992 233.704 161.644 233.624 161.294 233.54C161.374 233.977 161.428 234.431 161.452 234.895C161.544 236.773 161.084 239.001 159.498 239.615C158.144 240.135 156.732 240.204 153.161 235.788C152.137 234.517 150.924 234.111 149.708 234.111C148.438 234.111 147.165 234.553 146.09 234.927C145.001 235.307 143.97 235.668 143.498 235.384C143.285 235.253 143.137 234.951 143.065 234.48C142.628 231.728 146.037 230.327 147.885 229.781C147.37 229.6 146.868 229.417 146.374 229.231C144.257 230.061 141.614 231.697 142.074 234.637C142.201 235.424 142.498 235.951 142.981 236.241C143.861 236.767 145.048 236.351 146.421 235.873C148.441 235.168 150.732 234.367 152.385 236.415C155.105 239.781 156.794 240.864 158.332 240.864C158.848 240.864 159.345 240.744 159.857 240.547C161.627 239.864 162.597 237.735 162.448 234.844Z" fill="#B07C57"/>
<path d="M152.791 250.008C152.241 248.335 150.771 247.348 148.754 247.297C146.907 247.251 146.863 246.54 146.794 245.364C146.721 244.131 146.621 242.437 143.694 242.231C139.347 241.917 136.787 246.717 135.977 248.533C136.294 248.657 136.607 248.777 136.921 248.891C137.685 247.22 139.994 242.971 143.621 243.228C145.674 243.373 145.725 244.235 145.797 245.424C145.867 246.607 145.963 248.228 148.727 248.297C150.767 248.348 151.547 249.424 151.845 250.32C152.118 251.153 152.061 252.135 151.75 252.98C152.077 253.051 152.407 253.121 152.734 253.188C153.081 252.168 153.125 251.015 152.791 250.008Z" fill="#B07C57"/>
<path d="M129.029 235.393C130.02 240.72 131.842 246.245 133.144 246.109C134.049 246.017 134.586 245.787 134.793 245.411C135.086 244.871 134.829 243.817 134.006 242.187C133.186 240.564 133.645 239.311 134.013 238.304C134.402 237.241 134.682 236.472 133.81 235.343C132.621 233.799 129.938 234.943 129.029 235.393ZM133.472 247.077L133.246 247.104C130.39 247.403 128.493 238.076 127.978 235.211C127.942 235.003 128.038 234.795 128.221 234.689C128.401 234.585 132.637 232.183 134.602 234.732C135.81 236.3 135.354 237.547 134.953 238.647C134.604 239.6 134.274 240.501 134.898 241.736C135.921 243.763 136.153 245.005 135.67 245.889C135.318 246.533 134.598 246.923 133.472 247.077Z" fill="#B07C57"/>
<path d="M163.271 252.477C162.867 252.841 162.514 253.001 162.301 252.917C162.158 252.864 161.674 252.524 161.498 250.557C160.857 243.357 165.867 240.237 167.554 239.397C168.274 243.504 165.501 250.461 163.271 252.477ZM168.387 238.557C168.351 238.42 168.257 238.307 168.13 238.244C168.007 238.181 167.861 238.175 167.727 238.224C167.647 238.253 159.685 241.424 160.505 250.644C160.667 252.487 161.134 253.537 161.938 253.851C162.071 253.901 162.231 253.94 162.421 253.94C162.814 253.94 163.327 253.771 163.941 253.217C166.507 250.897 169.614 242.937 168.387 238.557Z" fill="#B07C57"/>
<path d="M133.922 232.957C133.716 232.997 133.495 232.943 133.328 232.791C133.048 232.533 133.03 232.1 133.286 231.821C136.442 228.377 139.5 225.981 139.628 225.881C139.927 225.649 140.356 225.703 140.59 226.001C140.823 226.3 140.77 226.731 140.471 226.963C140.44 226.985 137.371 229.391 134.295 232.748C134.192 232.86 134.062 232.929 133.922 232.957Z" fill="#B07C57"/>
<path d="M135.029 228.063C134.681 228.131 134.335 227.919 134.24 227.571C134.139 227.205 134.353 226.829 134.719 226.729C134.744 226.723 137.341 226.013 139.561 225.581C139.932 225.509 140.293 225.751 140.364 226.123C140.437 226.493 140.195 226.853 139.823 226.925C137.653 227.348 135.107 228.043 135.08 228.051L135.029 228.063Z" fill="#B07C57"/>
<path d="M187.198 259.857L187.002 259.865C186.626 259.829 186.35 259.495 186.386 259.119L188.487 237.479C188.525 237.103 188.858 236.828 189.237 236.864C189.613 236.901 189.889 237.236 189.851 237.612L187.749 259.251C187.719 259.56 187.489 259.801 187.198 259.857Z" fill="#B07C57"/>
<path d="M198.041 254.881L197.831 254.889L187.907 253.753C187.53 253.711 187.261 253.372 187.303 252.996C187.347 252.62 187.686 252.349 188.062 252.393L197.987 253.528C198.362 253.572 198.633 253.912 198.59 254.287C198.555 254.591 198.326 254.825 198.041 254.881Z" fill="#B07C57"/>
<path d="M195.036 247.895C195.372 248.701 194.992 249.629 194.185 249.965C193.378 250.301 192.452 249.919 192.114 249.113C191.778 248.305 192.16 247.38 192.965 247.043C193.773 246.707 194.7 247.088 195.036 247.895Z" fill="#B07C57"/>
<path d="M194.102 365.137L197.996 375.267L212.467 373.256L209.482 362.497L194.102 365.137Z" fill="#F6896E"/>
<path d="M250.327 391.292L197.64 398.613C197.149 397.956 196.795 396.975 196.54 395.784C195.592 391.373 196.024 384.064 196.097 379.481C196.109 378.947 196.113 378.447 196.108 377.997C196.101 377.235 196.073 376.601 196.011 376.144C195.503 372.484 198.828 372.661 198.828 372.661C204.887 377.148 209.835 368.469 213.716 370.551C213.716 370.551 215.385 371.428 220.092 374.609C224.795 377.793 232.256 379.288 238.664 380.98C246.936 383.161 249.607 386.118 250.352 388.305C250.941 390.04 250.327 391.292 250.327 391.292Z" fill="#1C274A"/>
<path d="M250.328 391.292L197.641 398.613C197.15 397.956 196.796 396.975 196.541 395.784L250.353 388.305C250.942 390.04 250.328 391.292 250.328 391.292Z" fill="#385BAB"/>
<path d="M214.814 372.679C214.814 372.679 215.437 370.248 217.629 370.689C219.821 371.131 220.092 374.609 220.092 374.609C220.092 374.609 219.273 377.919 214.814 372.679Z" fill="white"/>
<path d="M215.609 383.127C215.129 383.193 214.687 382.859 214.621 382.379C213.895 377.147 216.772 373.86 216.896 373.721C217.217 373.36 217.772 373.329 218.132 373.652C218.493 373.975 218.524 374.527 218.204 374.888C218.099 375.007 215.747 377.743 216.357 382.139C216.424 382.618 216.089 383.06 215.609 383.127Z" fill="white"/>
<path d="M225.609 374.783C225.405 374.811 225.188 374.768 225.004 374.644C223.764 373.819 220.503 374.085 218.737 374.448C218.263 374.544 217.799 374.24 217.701 373.765C217.605 373.292 217.909 372.828 218.384 372.731C218.925 372.62 223.731 371.691 225.975 373.185C226.377 373.453 226.487 373.997 226.219 374.4C226.073 374.617 225.849 374.749 225.609 374.783Z" fill="white"/>
<path d="M211.766 373.963C210.868 373.967 210.102 373.853 209.475 373.672C208.466 373.381 207.823 372.905 207.578 372.433L207.514 372.275C207.431 372.017 207.486 371.769 207.675 371.507C207.987 371.073 208.402 370.828 208.98 370.739L209.026 370.732C209.411 370.679 209.836 370.697 210.286 370.771C210.802 370.856 211.351 371.013 211.903 371.216C212.915 371.589 213.946 372.117 214.83 372.633C215.432 372.985 215.968 373.333 216.384 373.621C216.207 373.655 215.998 373.688 215.756 373.72C214.875 373.843 213.568 373.959 211.766 373.963ZM217.959 372.412C217.872 372.349 217.683 372.207 217.407 372.015C217.096 371.801 216.678 371.521 216.182 371.22L215.884 371.039C214.626 370.292 212.954 369.444 211.299 369.041C210.428 368.829 209.562 368.74 208.762 368.851L208.691 368.86C207.604 369.028 206.743 369.547 206.131 370.401C205.523 371.248 205.41 372.24 205.816 373.148L205.891 373.304C206.036 373.585 206.227 373.849 206.46 374.091C207.527 375.208 209.46 375.869 211.77 375.863C213.431 375.859 214.71 375.764 215.662 375.649C215.787 375.636 215.903 375.619 216.016 375.603C216.868 375.484 217.407 375.355 217.67 375.277C217.792 375.247 217.855 375.223 217.866 375.219L217.258 373.48L217.239 373.424L217.188 373.44L217.57 372.931L217.959 372.412Z" fill="white"/>
<path d="M219.19 374.189L218.15 372.6C219.769 371.54 221.125 369.149 220.837 367.863C220.767 367.551 220.578 367.177 219.73 367.057C219.138 366.973 218.878 367.152 218.717 367.316C217.907 368.144 217.953 370.56 218.171 371.888L216.295 372.2C216.222 371.752 215.618 367.772 217.355 365.991C217.821 365.515 218.657 364.985 219.995 365.176C221.962 365.455 222.527 366.72 222.69 367.449C223.201 369.736 221.255 372.836 219.19 374.189Z" fill="white"/>
<path d="M203.016 397.866L201.451 398.084C202.764 396.083 203.846 393.141 203.111 389.254C202.132 384.083 198.522 381.009 196.098 379.481C196.11 378.947 196.114 378.447 196.108 377.997C198.696 379.46 203.183 382.825 204.355 389.018C205.058 392.73 204.219 395.689 203.016 397.866Z" fill="#385BAB"/>
<path d="M219.631 377.843C219.241 377.897 218.852 377.683 218.697 377.301C218.519 376.852 218.736 376.34 219.185 376.16L222.363 374.885C222.811 374.704 223.323 374.924 223.503 375.373C223.684 375.823 223.464 376.333 223.016 376.513L219.837 377.788L219.631 377.843Z" fill="white"/>
<path d="M223.188 379.299C222.798 379.353 222.408 379.139 222.254 378.755C222.074 378.307 222.293 377.796 222.741 377.616L225.92 376.343C226.369 376.16 226.88 376.379 227.06 376.829C227.241 377.279 227.021 377.789 226.573 377.969L223.394 379.244L223.188 379.299Z" fill="white"/>
<path d="M226.736 380.68C226.347 380.735 225.955 380.52 225.801 380.139C225.621 379.689 225.84 379.179 226.289 378.997L229.467 377.724C229.916 377.541 230.427 377.761 230.607 378.211C230.787 378.66 230.569 379.171 230.12 379.351L226.941 380.625L226.736 380.68Z" fill="white"/>
<path d="M230.559 381.881C230.17 381.936 229.779 381.721 229.626 381.34C229.446 380.891 229.663 380.38 230.114 380.2L233.291 378.925C233.74 378.745 234.25 378.964 234.43 379.413C234.611 379.861 234.392 380.372 233.943 380.552L230.766 381.827L230.559 381.881Z" fill="white"/>
<path d="M234.653 382.792C234.263 382.847 233.871 382.631 233.719 382.249C233.539 381.801 233.757 381.289 234.206 381.109L237.385 379.835C237.834 379.653 238.345 379.872 238.523 380.323C238.705 380.772 238.486 381.283 238.037 381.463L234.858 382.737L234.653 382.792Z" fill="white"/>
<path d="M249.055 359.18L254.623 366.051L267.088 358.433L261.52 351.563L249.055 359.18Z" fill="#F6896E"/>
<path d="M309.001 359.865L263.61 387.6C262.898 387.193 262.183 386.435 261.473 385.444C258.843 381.779 256.323 374.903 254.563 370.673C254.359 370.177 254.165 369.717 253.979 369.307C253.67 368.611 253.393 368.041 253.151 367.647C251.225 364.493 254.346 363.329 254.346 363.329C261.69 365.027 262.765 355.093 267.155 355.453C267.155 355.453 269.035 355.592 274.621 356.632C280.203 357.673 287.641 356.068 294.191 355.063C302.647 353.763 306.277 355.409 307.833 357.117C309.065 358.472 309.001 359.865 309.001 359.865Z" fill="#1C274A"/>
<path d="M309.001 359.865L263.61 387.6C262.898 387.193 262.183 386.435 261.473 385.444L307.833 357.117C309.065 358.472 309.001 359.865 309.001 359.865Z" fill="#385BAB"/>
<path d="M269.011 356.967C269.011 356.967 268.611 354.489 270.796 354.02C272.983 353.549 274.619 356.632 274.619 356.632C274.619 356.632 275.188 359.993 269.011 356.967Z" fill="white"/>
<path d="M273.906 366.231C273.494 366.483 272.954 366.353 272.701 365.939C269.948 361.431 271.276 357.268 271.333 357.092C271.485 356.635 271.981 356.384 272.44 356.536C272.9 356.688 273.148 357.183 272.998 357.64C272.95 357.792 271.884 361.239 274.197 365.025C274.45 365.439 274.32 365.977 273.906 366.231Z" fill="white"/>
<path d="M279.748 354.588C279.572 354.696 279.356 354.744 279.136 354.703C277.672 354.441 274.786 355.988 273.313 357.025C272.916 357.301 272.369 357.207 272.092 356.811C271.813 356.416 271.908 355.868 272.304 355.589C272.756 355.272 276.792 352.503 279.446 352.977C279.922 353.064 280.24 353.519 280.154 353.995C280.109 354.252 279.956 354.463 279.748 354.588Z" fill="white"/>
<path d="M266.729 359.36C265.906 359.723 265.158 359.924 264.511 360.008C263.47 360.143 262.689 359.964 262.278 359.629L262.154 359.509C261.975 359.305 261.927 359.057 261.997 358.741C262.11 358.219 262.391 357.828 262.887 357.516L262.926 357.491C263.258 357.289 263.655 357.137 264.097 357.025C264.605 356.896 265.17 356.821 265.757 356.788C266.835 356.727 267.99 356.799 269.006 356.919C269.699 357.001 270.33 357.105 270.827 357.204C270.678 357.305 270.498 357.419 270.291 357.545C269.531 358.011 268.378 358.637 266.729 359.36ZM271.787 355.468C271.683 355.444 271.453 355.391 271.123 355.324C270.753 355.251 270.257 355.163 269.682 355.084L269.338 355.036C267.885 354.855 266.014 354.744 264.337 355.033C263.454 355.188 262.622 355.451 261.933 355.871L261.873 355.909C260.943 356.496 260.361 357.315 260.139 358.343C259.921 359.361 260.213 360.316 260.949 360.987L261.077 361.1C261.323 361.301 261.602 361.467 261.913 361.595C263.338 362.193 265.374 362.028 267.49 361.101C269.011 360.433 270.145 359.839 270.971 359.353L271.279 359.169C272.014 358.72 272.455 358.387 272.666 358.211L272.822 358.079L271.571 356.727L271.531 356.684L271.493 356.717L271.637 356.099L271.787 355.468Z" fill="white"/>
<path d="M273.626 356.605L272.038 355.564C273.098 353.947 273.389 351.213 272.612 350.148C272.422 349.891 272.101 349.623 271.274 349.852C270.7 350.011 270.532 350.277 270.45 350.493C270.037 351.576 271.042 353.773 271.773 354.904L270.18 355.936C269.932 355.556 267.79 352.147 268.673 349.82C268.909 349.197 269.464 348.38 270.768 348.021C272.682 347.491 273.706 348.425 274.146 349.028C275.526 350.921 274.98 354.541 273.626 356.605Z" fill="white"/>
<path d="M268.24 384.771L266.892 385.595C267.297 383.236 267.116 380.107 264.892 376.836C261.932 372.484 257.394 371.105 254.562 370.673C254.358 370.177 254.164 369.717 253.979 369.307C256.936 369.616 262.392 370.913 265.938 376.121C268.064 379.247 268.475 382.295 268.24 384.771Z" fill="#385BAB"/>
<path d="M275.487 359.78C275.151 359.985 274.707 359.944 274.414 359.655C274.071 359.315 274.067 358.76 274.407 358.416L276.811 355.979C277.151 355.635 277.707 355.632 278.051 355.972C278.396 356.311 278.4 356.867 278.059 357.211L275.654 359.647L275.487 359.78Z" fill="white"/>
<path d="M279.33 359.695C278.994 359.901 278.55 359.86 278.257 359.571C277.912 359.231 277.909 358.676 278.249 358.332L280.654 355.896C280.994 355.549 281.55 355.547 281.894 355.887C282.24 356.227 282.242 356.783 281.902 357.127L279.497 359.563L279.33 359.695Z" fill="white"/>
<path d="M283.133 359.548C282.797 359.752 282.353 359.712 282.061 359.423C281.717 359.083 281.713 358.527 282.053 358.184L284.459 355.748C284.799 355.401 285.353 355.399 285.697 355.74C286.043 356.08 286.047 356.635 285.705 356.979L283.3 359.416L283.133 359.548Z" fill="white"/>
<path d="M287.121 359.124C286.785 359.329 286.341 359.288 286.048 358.999C285.704 358.659 285.7 358.104 286.04 357.759L288.445 355.323C288.786 354.979 289.341 354.975 289.685 355.315C290.029 355.655 290.033 356.211 289.692 356.555L287.288 358.991L287.121 359.124Z" fill="white"/>
<path d="M291.236 358.325C290.9 358.529 290.456 358.489 290.163 358.2C289.819 357.86 289.815 357.305 290.155 356.961L292.562 354.525C292.902 354.179 293.456 354.176 293.8 354.516C294.144 354.857 294.148 355.412 293.808 355.755L291.403 358.193L291.236 358.325Z" fill="white"/>
<path d="M203.341 255.216C197.789 251.536 119.936 247.221 96.853 258.788C95.105 264.715 133.297 280.264 144.498 291.176C177.604 290.175 197.612 297.481 197.612 297.481C197.612 297.481 214.105 321.557 222.742 329.891C231.382 338.224 249.477 362.497 249.477 362.497L265.565 350.625C265.565 350.625 218.457 265.233 203.341 255.216Z" fill="#E03D3F"/>
<path d="M242.762 353.193C242.502 353.244 242.226 353.139 242.066 352.908C241.851 352.595 241.931 352.169 242.243 351.956L258.894 340.549C259.206 340.335 259.631 340.416 259.846 340.727C260.06 341.039 259.979 341.467 259.668 341.68L243.018 353.084L242.762 353.193Z" fill="#A12028"/>
<path d="M247.082 350.195C246.825 350.245 246.55 350.143 246.389 349.915C246.31 349.804 244.281 346.979 230.515 331.915C215.518 315.503 198.889 290.885 198.722 290.639C198.511 290.325 198.594 289.9 198.907 289.689C199.221 289.476 199.647 289.56 199.858 289.873C200.023 290.12 216.599 314.653 231.526 330.989C245.445 346.22 247.434 349.019 247.513 349.131C247.73 349.44 247.653 349.867 247.343 350.083L247.082 350.195Z" fill="#A12028"/>
<path d="M69.6775 257.808C69.6775 257.808 55.2189 318.301 125.435 308.844C157.124 304.576 171.148 296.801 171.148 296.801C171.148 296.801 177.298 324.368 181.032 335.775C184.768 347.183 193.172 367.185 193.172 367.185L211.955 363.528C211.955 363.528 202.851 276.628 185.882 270.233C168.912 263.84 141.278 261.937 103.179 265.631C103.179 265.631 75.7069 259.409 69.6775 257.808Z" fill="#F25A5B"/>
<path d="M193.547 356.685C193.233 356.747 192.908 356.58 192.783 356.273C187.463 343.388 183.304 326.873 179.961 313.603C177.191 302.599 174.573 292.205 172.9 291.221C171.543 290.423 166.893 292.156 161.008 294.352C149.297 298.715 131.603 305.309 110.524 304.543C99.0428 304.125 89.9295 300.361 83.4362 293.357C72.2402 281.275 72.8095 263.484 72.8175 263.307C72.8321 262.928 73.1508 262.635 73.5281 262.649C73.9068 262.664 74.2001 262.983 74.1855 263.36C74.1788 263.533 73.6388 280.777 84.4495 292.433C90.6841 299.156 99.4748 302.771 110.573 303.175C131.38 303.931 148.921 297.393 160.528 293.068C167.48 290.476 171.676 288.913 173.593 290.04C175.665 291.257 177.657 298.843 181.291 313.268C184.623 326.496 188.768 342.959 194.049 355.749C194.193 356.1 194.027 356.5 193.677 356.644L193.547 356.685Z" fill="#E03D3F"/>
<path d="M210.358 353.412L210.345 353.415L189.37 357.031C188.998 357.096 188.642 356.847 188.578 356.472C188.515 356.1 188.759 355.739 189.137 355.683L210.111 352.065C210.483 352 210.838 352.249 210.903 352.623C210.966 352.991 210.724 353.341 210.358 353.412Z" fill="#E03D3F"/>
<path d="M119.281 268.664L194.51 265.565C194.722 265.556 194.886 265.377 194.877 265.167L194.501 256.028C194.492 255.817 194.313 255.652 194.102 255.661L118.873 258.761C118.661 258.769 118.497 258.948 118.506 259.16L118.882 268.297C118.892 268.509 119.07 268.673 119.281 268.664Z" fill="#1C274A"/>
<path d="M202.826 265.223C205.685 265.104 208.11 263.08 208.734 260.285L220.753 206.476C221.488 203.189 218.905 200.097 215.538 200.236L181.513 201.639C179.217 201.733 177.265 203.343 176.736 205.579L162.205 266.896L202.826 265.223Z" fill="#1C274A"/>
<path d="M199.3 233.469C198.514 236.996 195.312 240.079 192.149 240.355C188.986 240.632 187.061 237.996 187.848 234.469C188.634 230.941 191.837 227.86 195 227.583C198.161 227.305 200.086 229.941 199.3 233.469Z" fill="#E6B589"/>
<path d="M192.903 232.829C192.744 233.535 192.395 234.127 192.12 234.151C191.844 234.175 191.748 233.623 191.907 232.916C192.064 232.211 192.413 231.62 192.688 231.596C192.964 231.572 193.06 232.124 192.903 232.829Z" fill="#1C274A"/>
<path d="M195.889 232.569C195.733 233.275 195.381 233.865 195.106 233.889C194.832 233.915 194.737 233.36 194.894 232.656C195.052 231.951 195.402 231.36 195.677 231.335C195.952 231.311 196.046 231.863 195.889 232.569Z" fill="#1C274A"/>
<path d="M192.931 237.075C190.467 237.289 190.518 234.593 190.518 234.567C190.522 234.417 190.64 234.263 190.782 234.219C190.923 234.175 191.035 234.257 191.03 234.405C191.028 234.503 190.999 236.697 193.055 236.519C195.112 236.339 196.08 234.057 196.122 233.96C196.184 233.808 196.339 233.701 196.464 233.723C196.591 233.744 196.643 233.884 196.58 234.036C196.57 234.064 195.394 236.86 192.931 237.075Z" fill="#1C274A"/>
<path d="M176.733 205.58L162.324 266.392L158.436 266.552L172.845 205.74C173.378 203.503 175.328 201.891 177.625 201.796L181.513 201.636C179.216 201.731 177.266 203.343 176.733 205.58Z" fill="#1C274A"/>
<path d="M163.354 262.605C163.606 262.605 163.834 262.433 163.895 262.177L177.272 205.708C177.344 205.409 177.159 205.109 176.859 205.039C176.562 204.968 176.262 205.152 176.19 205.452L162.812 261.92C162.74 262.22 162.926 262.52 163.226 262.589L163.354 262.605Z" fill="#385BAB"/>
<path d="M132.927 214.781L132.874 214.971C132.667 215.688 132.42 216.38 132.127 217.064C130.407 221.157 127.423 224.631 126.231 225.924C125.9 226.291 125.703 226.477 125.703 226.477L125.713 226.553C125.737 226.764 125.76 226.973 125.784 227.204C125.876 228.084 126.018 229.14 126.263 230.307C129.196 243.688 129.92 245.927 131.107 251.611C113.596 276.944 71.9668 260.984 69.7602 257.855C67.8335 244.295 67.8335 244.295 65.7908 231.175C64.8108 224.837 62.2042 215.341 58.7402 205.88C58.6068 205.508 58.4735 205.135 58.3268 204.76C57.2908 201.98 56.1842 199.213 55.0228 196.557C52.5135 190.795 51.5308 185.313 52.0068 180.673C52.0708 180.037 52.1628 179.415 52.2842 178.811C53.0495 174.924 54.9428 171.748 57.9135 169.657C59.8602 168.287 65.2002 166.557 68.7162 165.647C69.1935 165.524 69.6402 165.415 70.0375 165.324C70.1869 165.291 70.3268 165.26 70.4628 165.231C71.3108 165.051 72.1468 164.881 72.9402 164.724C77.3708 163.864 80.8335 163.371 80.8335 163.371L102.104 163.521C104.196 163.751 106.08 164.004 107.777 164.313C109.263 164.571 110.607 164.871 111.82 165.207C112.856 165.491 113.796 165.797 114.654 166.131C115.1 166.304 115.527 166.488 115.927 166.673C122.827 169.917 123.387 175.357 125.1 184.135C125.15 184.38 125.2 184.628 125.254 184.873C125.324 185.224 125.4 185.571 125.483 185.917C125.953 187.977 126.527 190.008 127.143 191.984C127.217 192.228 127.294 192.468 127.37 192.707C127.414 192.841 127.458 192.971 127.504 193.1C127.75 193.837 127.997 194.564 128.243 195.291C130.127 200.788 132.136 205.764 132.884 209.751C132.954 210.117 133.011 210.477 133.058 210.824C133.254 212.311 133.238 213.637 132.927 214.781Z" fill="#E6B589"/>
<path d="M82.4136 219.12C80.9189 219.12 79.5483 218.531 79.4656 218.495C79.2136 218.384 79.0989 218.089 79.2096 217.837C79.3202 217.584 79.6149 217.469 79.8669 217.58C79.8909 217.589 82.3696 218.649 83.9256 217.78C84.6029 217.401 85.0216 216.68 85.1722 215.633C85.4656 213.576 84.7843 212.775 84.1256 212C83.3603 211.101 82.5696 210.172 83.5389 207.845L83.5816 207.743C84.6416 205.196 85.8456 202.311 84.9136 200.36C84.4376 199.36 83.4389 198.648 81.8589 198.184C80.4629 197.773 79.2403 197.877 78.2189 198.493C76.1203 199.763 75.4963 202.772 75.4896 202.803C75.4363 203.073 75.1736 203.249 74.9029 203.193C74.6309 203.14 74.4562 202.876 74.5096 202.605C74.5389 202.465 75.2296 199.133 77.7029 197.639C78.9723 196.869 80.4656 196.732 82.1416 197.224C83.9829 197.765 85.2203 198.676 85.8176 199.929C86.9403 202.284 85.6456 205.388 84.5056 208.127L84.4616 208.229C83.7283 209.991 84.1883 210.532 84.8869 211.353C85.6149 212.207 86.5189 213.269 86.1616 215.775C85.9656 217.147 85.3762 218.117 84.4096 218.655C83.7909 219 83.0896 219.12 82.4136 219.12Z" fill="#B07C57"/>
<path d="M121.725 220.011C120.794 221.281 119.272 222.607 117.31 221.713C114.541 220.451 111.461 221.517 108.744 222.457C106.09 223.373 103.804 224.168 102.574 222.568C101.65 221.371 101.381 220.301 101.768 219.387C102.434 217.827 105.037 216.688 108.917 216.264C112.808 215.837 112.945 213.015 113.044 210.955C113.097 209.86 113.148 208.831 113.678 208.36C113.941 208.128 114.341 208.011 114.892 208.011L115.228 208.024C115.704 208.057 116.181 208.115 116.644 208.188C119.321 208.607 121.534 210.357 122.572 212.867C122.952 213.795 123.137 214.757 123.137 215.711C123.137 217.237 122.661 218.741 121.725 220.011ZM123.494 212.487C122.328 209.651 119.825 207.675 116.801 207.197C116.308 207.121 115.804 207.064 115.301 207.027C114.288 206.955 113.541 207.144 113.014 207.615C112.168 208.36 112.108 209.597 112.044 210.904C111.945 212.977 111.852 214.937 108.808 215.271C104.498 215.741 101.672 217.064 100.848 218.997C100.477 219.871 100.338 221.304 101.781 223.177C102.528 224.147 103.481 224.493 104.568 224.493C105.917 224.493 107.468 223.957 109.072 223.401C111.734 222.48 114.492 221.524 116.898 222.624C118.901 223.537 120.905 222.82 122.53 220.604C124.257 218.253 124.618 215.217 123.494 212.487Z" fill="#B07C57"/>
<path d="M104.557 210.121C103.557 210.788 102.247 211.337 100.667 211.751C97.1068 212.688 93.4508 211.021 91.9734 207.791C91.3694 206.477 91.2961 205.253 91.7801 204.597C92.2308 203.98 93.1135 203.951 93.7708 204.033C96.7068 204.401 97.9094 203.251 98.8801 202.324C99.7628 201.48 100.3 200.968 101.973 201.664C104.036 202.524 105.629 204.684 105.847 206.917C105.923 207.741 105.863 209.251 104.557 210.121ZM106.84 206.82C106.589 204.237 104.747 201.737 102.36 200.744C100.083 199.795 99.1201 200.713 98.1868 201.6C97.2908 202.461 96.3601 203.348 93.8975 203.04C92.2201 202.831 91.3801 203.451 90.9734 204.004C90.6334 204.464 90.4668 205.068 90.4668 205.751C90.4668 206.493 90.6668 207.337 91.0641 208.207C92.4295 211.197 95.4294 213.011 98.6774 213.011C99.4161 213.011 100.171 212.915 100.92 212.717C102.611 212.273 104.02 211.681 105.111 210.955C106.384 210.107 107.013 208.6 106.84 206.82Z" fill="#B07C57"/>
<path d="M125.483 185.917C124.647 186.42 123.671 186.748 122.541 186.748C122.291 186.748 122.037 186.735 121.771 186.7C118.37 186.273 118.601 183.748 118.807 181.521C118.977 179.64 119.158 177.7 117.797 176.207C116.491 174.771 114.803 174.507 113.317 174.277C112.077 174.084 111.007 173.917 110.505 173.057C110.114 172.388 110.174 171.424 110.701 170.028C111.385 168.204 112.901 166.968 114.654 166.131C115.101 166.304 115.527 166.488 115.927 166.673C114.023 167.415 112.31 168.571 111.634 170.381C111.238 171.441 111.147 172.173 111.367 172.551C111.63 173 112.483 173.135 113.47 173.287C115.041 173.531 116.994 173.837 118.537 175.533C120.19 177.355 119.983 179.613 119.801 181.611C119.567 184.171 119.558 185.415 121.898 185.707C122.111 185.735 122.321 185.748 122.527 185.748C123.587 185.748 124.491 185.401 125.254 184.873C125.325 185.224 125.401 185.571 125.483 185.917Z" fill="#B07C57"/>
<path d="M132.885 209.751C130.185 211.527 127.917 211.415 126.577 210.587C124.934 209.571 124.321 207.431 124.983 205.001C125.905 201.621 124.137 199.404 122.721 197.624C121.387 195.957 120.734 195.031 121.577 193.824C122.171 192.973 123.261 192.668 124.507 192.668C125.461 192.668 126.511 192.848 127.505 193.1C127.458 192.971 127.414 192.841 127.37 192.707C127.294 192.468 127.218 192.228 127.143 191.984C124.781 191.461 122.061 191.387 120.757 193.251C119.447 195.124 120.714 196.711 121.938 198.248C123.281 199.933 124.807 201.848 124.018 204.741C123.238 207.615 124.014 210.181 126.054 211.437C126.767 211.88 127.69 212.16 128.767 212.16C130.018 212.16 131.481 211.781 133.058 210.824C133.011 210.477 132.954 210.117 132.885 209.751Z" fill="#B07C57"/>
<path d="M96.1421 178.301C94.2927 180.557 88.8661 181.751 85.3994 179.871C84.1434 179.191 82.8461 178.947 81.5754 178.947C79.6434 178.947 77.7834 179.515 76.2634 179.977C74.2794 180.584 73.0434 180.92 72.6194 180.231C72.1234 179.42 72.1088 178.661 72.5821 177.908C73.9261 175.76 78.9461 174.184 83.1087 174.597C87.9434 175.081 89.2168 173.647 89.5501 172.951C90.3994 172.753 93.4528 172.331 96.1168 175.524C96.8861 176.447 96.8967 177.384 96.1421 178.301ZM96.8834 174.884C93.3728 170.671 89.1861 172.004 89.0101 172.064C88.8327 172.12 88.7061 172.253 88.6767 172.437C88.6727 172.453 88.1994 174.101 83.2061 173.604C79.1527 173.197 73.4421 174.651 71.7368 177.373C71.0594 178.453 71.0701 179.62 71.7661 180.753C72.6168 182.137 74.4421 181.577 76.5528 180.935C79.0368 180.177 82.1261 179.233 84.9221 180.751C86.2701 181.48 87.8594 181.801 89.4501 181.801C92.4821 181.801 95.5221 180.637 96.9154 178.935C97.9687 177.651 97.9568 176.173 96.8834 174.884Z" fill="#B07C57"/>
<path d="M112.816 185.064C110.353 186.571 105.94 187.191 103.547 185.671C102.547 185.037 102.02 184.137 101.938 182.924C101.847 181.657 102.277 180.435 103.143 179.471C104.053 178.461 105.353 177.857 106.717 177.811C110.593 177.677 114.463 179.867 114.689 182.321C114.813 183.635 113.571 184.604 112.816 185.064ZM115.687 182.227C115.413 179.277 111.44 176.804 107.08 176.804C106.947 176.804 106.813 176.807 106.68 176.811C105.051 176.867 103.491 177.591 102.4 178.801C101.351 179.968 100.831 181.453 100.938 182.991C101.043 184.524 101.743 185.711 103.011 186.515C104.143 187.235 105.627 187.547 107.177 187.547C109.38 187.547 111.709 186.915 113.34 185.917C114.98 184.915 115.813 183.604 115.687 182.227Z" fill="#B07C57"/>
<path d="M125.741 242.611L125.732 242.677C125.581 244.924 124.325 247.408 123.841 248.284L111.761 244.911C111.804 244.151 112.021 242.855 112.71 242.304C113.054 242.031 113.492 241.968 114.048 242.107C116.188 242.64 118.084 242.437 119.125 241.561C119.764 241.021 120.068 240.26 120.001 239.36C119.908 238.117 120.428 236.817 121.272 236.2C121.992 235.675 122.905 235.624 123.981 236.057C126.804 237.193 125.75 242.557 125.741 242.611ZM124.354 235.131C122.588 234.42 121.381 234.88 120.681 235.395C119.381 236.344 118.905 238.107 119.001 239.433C119.044 240.017 118.874 240.464 118.481 240.795C117.697 241.457 116.09 241.587 114.288 241.135C113.421 240.917 112.681 241.047 112.09 241.521C110.718 242.615 110.748 245.188 110.75 245.297C110.754 245.517 110.905 245.711 111.118 245.767L123.952 249.351L124.084 249.371C124.257 249.371 124.421 249.281 124.512 249.131C124.594 248.993 126.514 245.784 126.728 242.777C126.834 242.231 127.852 236.537 124.354 235.131Z" fill="#B07C57"/>
<path d="M111.447 234.611C110.944 235.797 109.351 237.047 106.38 236.98C104.56 236.948 103.21 237.433 102.387 238.44C101.654 239.341 101.518 240.44 101.53 241.2L96.3137 238.933C96.6337 237.757 97.7497 234.228 100.058 231.951C102.75 229.297 108.958 230.033 110.898 231.951C111.636 232.681 111.844 233.675 111.447 234.611ZM111.6 231.241C109.3 228.968 102.518 228.124 99.3564 231.237C96.3564 234.193 95.2777 238.915 95.2337 239.115C95.1844 239.351 95.3031 239.587 95.5231 239.684L101.914 242.457L102.111 242.497L102.43 242.384C102.574 242.264 102.64 242.071 102.6 241.887C102.596 241.871 102.234 240.207 103.164 239.075C103.78 238.317 104.854 237.948 106.356 237.98C109.814 238.053 111.738 236.491 112.367 235.001C112.92 233.693 112.627 232.253 111.6 231.241Z" fill="#B07C57"/>
<path d="M101.517 190.089C103.805 190.089 105.58 189.237 106.789 187.553C111.33 181.231 105.916 164.928 105.684 164.237C105.532 163.785 105.044 163.543 104.59 163.695C104.138 163.847 103.896 164.336 104.048 164.788C104.101 164.949 109.414 180.94 105.386 186.547C104.508 187.768 103.241 188.363 101.517 188.363C87.0544 188.363 78.5465 164.523 78.4625 164.281C78.3051 163.832 77.8145 163.593 77.3625 163.751C76.9118 163.909 76.6745 164.401 76.8318 164.851C77.1918 165.881 85.8291 190.089 101.517 190.089Z" fill="white"/>
<path d="M125.705 226.477L125.715 226.555C125.739 226.764 125.762 226.972 125.786 227.204C121.905 228.105 116.907 228.244 111.022 227.131C99.4193 224.925 89.9713 230.327 89.8833 230.381L89.586 230.461C89.3886 230.461 89.19 230.353 89.09 230.165C88.9233 229.892 89.0193 229.539 89.2953 229.372C89.6887 229.139 99.2033 223.704 111.247 225.984C117.353 227.139 122.438 226.925 126.23 225.924C125.902 226.291 125.705 226.477 125.705 226.477Z" fill="#B07C57"/>
<path d="M106.461 197.632C99.3639 197.669 84.8279 187.584 84.2119 187.153C83.9479 186.971 83.8839 186.607 84.0679 186.343C84.2519 186.08 84.6159 186.015 84.8785 186.197C85.0265 186.301 99.7252 196.503 106.455 196.467C112.893 196.431 114.281 189.391 114.295 189.319C114.353 189.003 114.657 188.793 114.975 188.853C115.291 188.913 115.5 189.217 115.44 189.533C115.425 189.613 113.851 197.591 106.461 197.632Z" fill="#B07C57"/>
<path d="M129.488 241.985C129.151 242.051 128.811 241.855 128.704 241.52C127.035 236.237 125.042 226.855 125.02 226.76C124.966 226.497 125.07 226.227 125.286 226.067C125.343 226.025 131.018 221.757 132.251 214.74C132.318 214.367 132.672 214.119 133.046 214.184C133.418 214.249 133.667 214.605 133.6 214.976C132.439 221.58 127.788 225.799 126.451 226.892C126.856 228.765 128.562 236.52 130.011 241.107C130.126 241.468 129.926 241.852 129.566 241.967L129.488 241.985Z" fill="#B07C57"/>
<path d="M103.348 160.327L86.7344 158.28C80.0864 157.463 74.3771 152.677 73.0451 146.113C72.6304 144.063 71.7984 139.285 74.0011 136.311C78.8118 129.812 76.0877 129.189 78.8171 118.007C81.5451 106.824 98.5957 111.797 98.5957 111.797C98.5957 111.797 122.121 121.653 122.9 128.896C124.097 140.052 118.297 136.779 120.885 145.252C122.181 149.5 119.433 153.472 115.688 156.669C112.285 159.579 107.792 160.875 103.348 160.327Z" fill="#1C274A"/>
<path d="M101.043 113.775C101.043 113.775 104.687 95.804 88.1881 95.7827C71.6894 95.7627 72.2374 117.617 86.8134 119.208C101.391 120.797 101.043 113.775 101.043 113.775Z" fill="#1C274A"/>
<path d="M102.824 171.653C98.0096 183.707 81.3003 170.499 81.3949 164.429C85.1176 156.333 85.3283 147.213 85.3283 147.213L104.806 156.929C104.686 157.517 104.564 158.108 104.443 158.701C103.879 161.437 103.318 164.236 103.026 167.232C102.888 168.656 102.811 170.125 102.824 171.653Z" fill="#F6896E"/>
<path d="M103.027 167.232C92.6292 163.577 87.0039 151.736 87.0039 151.736L104.444 158.701C103.88 161.437 103.319 164.236 103.027 167.232Z" fill="#1C274A"/>
<path d="M111.068 142.36C111.068 142.36 113.223 137.535 117.168 139.139C121.114 140.743 119.724 154.319 112.018 153.013L111.068 142.36Z" fill="#DB5C59"/>
<path d="M116.334 151.871C116.334 153.251 115.215 154.371 113.834 154.371C112.454 154.371 111.334 153.251 111.334 151.871C111.334 150.491 112.454 149.371 113.834 149.371C115.215 149.371 116.334 150.491 116.334 151.871Z" fill="white"/>
<path d="M117.23 142.201C117.17 142.648 117.088 143.121 116.988 143.619C116.879 144.175 116.743 144.753 116.586 145.359C116.406 146.049 116.194 146.771 115.959 147.508C115.819 147.952 115.67 148.401 115.51 148.856C113.043 155.917 109.598 158.871 105.915 160.139C99.8497 162.229 86.4111 154.451 84.8631 148.808C83.7431 144.729 83.5724 146.34 84.4351 135.831C85.2951 125.321 90.2657 120.095 90.2657 120.095C96.8551 114.188 107.058 116.452 113.227 121.653C119.398 126.851 118.179 134.967 117.23 142.201Z" fill="#F6896E"/>
<path d="M105.526 151.335C105.068 151.283 104.561 151.164 104.011 150.948C101.166 149.836 99.6262 146.889 99.5608 146.765C99.4622 146.575 99.5382 146.34 99.7288 146.241C99.9195 146.143 100.154 146.219 100.251 146.409C100.266 146.437 101.729 149.221 104.294 150.224C106.836 151.217 108.221 149.841 108.234 149.827C108.385 149.673 108.63 149.671 108.783 149.82C108.938 149.971 108.941 150.217 108.792 150.371C108.733 150.429 107.59 151.567 105.526 151.335Z" fill="#1C274A"/>
<path d="M105.046 154.572C105.258 154.497 105.388 154.432 105.41 154.421C105.664 154.293 105.766 153.984 105.638 153.731C105.511 153.477 105.203 153.373 104.948 153.501C104.874 153.539 103.203 154.339 101.684 153.223C101.456 153.055 101.134 153.104 100.966 153.333C100.796 153.563 100.847 153.885 101.075 154.053C102.65 155.209 104.323 154.827 105.046 154.572Z" fill="#DB5C59"/>
<path d="M105.797 146.013C105.549 146.008 105.288 145.977 105.016 145.915C104.75 145.853 104.586 145.589 104.648 145.325C104.709 145.061 104.973 144.897 105.237 144.959C106.277 145.2 107.104 144.797 107.526 144.515C106.265 142.253 106.082 136.983 106.074 136.745C106.066 136.473 106.278 136.248 106.549 136.24C106.825 136.233 107.046 136.443 107.056 136.713C107.108 138.353 107.482 142.915 108.57 144.324C108.721 144.52 108.701 144.799 108.525 144.972C108.473 145.023 107.409 146.048 105.797 146.013Z" fill="#1C274A"/>
<path d="M116.753 144.881C116.644 145.437 116.509 146.016 116.352 146.62C116.172 147.312 115.961 148.032 115.725 148.771C113.04 148.381 110.997 147.197 111.151 146.112C111.301 145.019 113.629 144.439 116.348 144.817C116.485 144.835 116.62 144.859 116.753 144.881Z" fill="#DB5C59"/>
<path d="M90.0236 142.725C89.8703 143.82 91.9503 145.016 94.6676 145.396C97.3849 145.776 99.7116 145.196 99.8636 144.103C100.018 143.008 97.9396 141.812 95.2223 141.432C92.5049 141.052 90.1783 141.631 90.0236 142.725Z" fill="#DB5C59"/>
<path d="M99.5169 133.36C96.3942 133.292 93.7996 135.777 93.7329 138.897C93.6649 142.019 96.1489 144.613 99.2702 144.681C102.393 144.749 104.988 142.265 105.056 139.143C105.124 136.023 102.637 133.427 99.5169 133.36ZM99.2489 145.663C95.5862 145.583 92.6729 142.539 92.7516 138.876C92.8316 135.215 95.8742 132.3 99.5369 132.38C103.2 132.459 106.114 135.503 106.034 139.164C105.956 142.827 102.912 145.741 99.2489 145.663Z" fill="white"/>
<path d="M114.672 135.644C111.549 135.576 108.956 138.061 108.888 141.181C108.82 144.304 111.304 146.899 114.425 146.967C117.548 147.033 120.143 144.549 120.211 141.428C120.279 138.307 117.793 135.712 114.672 135.644ZM114.405 147.947C110.741 147.867 107.828 144.823 107.908 141.161C107.987 137.499 111.029 134.584 114.692 134.664C118.355 134.744 121.269 137.787 121.189 141.448C121.111 145.111 118.068 148.027 114.405 147.947Z" fill="white"/>
<path d="M108.022 141.008C107.178 139.803 105.918 140.5 105.776 140.584L105.27 139.744C106.011 139.292 107.712 138.856 108.826 140.444L108.022 141.008Z" fill="white"/>
<path d="M93.5735 137.023C93.4282 137.02 93.2868 136.952 93.1922 136.828C93.1455 136.779 92.3882 136.044 88.9202 135.405C88.6548 135.356 88.4775 135.101 88.5282 134.835C88.5748 134.568 88.8388 134.388 89.0988 134.443C93.0895 135.177 93.8735 136.084 93.9908 136.26C94.1415 136.485 94.0802 136.789 93.8562 136.94L93.5735 137.023Z" fill="white"/>
<path d="M120.689 141.928L120.406 141.829C119.706 141.304 118.304 141.081 117.822 141.04C117.553 141.016 117.353 140.779 117.377 140.509C117.4 140.24 117.636 140.036 117.908 140.063C117.989 140.071 119.932 140.245 120.994 141.047C121.212 141.209 121.254 141.517 121.09 141.733C120.993 141.864 120.842 141.932 120.689 141.928Z" fill="white"/>
<path d="M103.482 130.807C103.482 130.807 100.91 129.245 98.2398 130.684C96.7478 131.487 97.3745 133.021 99.2358 132.536C100.535 132.197 101.244 132.099 102.65 132.404C104.057 132.711 104.14 131.108 103.482 130.807Z" fill="#1C274A"/>
<path d="M111.402 132.201C111.402 132.201 114.322 131.472 116.446 133.637C117.632 134.847 116.578 136.125 114.946 135.111C113.805 134.403 113.157 134.097 111.724 133.972C110.29 133.848 110.684 132.293 111.402 132.201Z" fill="#1C274A"/>
<path d="M87.2141 134.816C87.2141 134.816 85.2955 130.319 80.7995 131.676C76.3048 133.033 76.4395 148.077 85.0328 147.433L87.2141 134.816Z" fill="#F6896E"/>
<path d="M84 145.537C84 146.917 82.88 148.037 81.5 148.037C80.12 148.037 79 146.917 79 145.537C79 144.157 80.12 143.037 81.5 143.037C82.88 143.037 84 144.157 84 145.537Z" fill="white"/>
<path d="M88.9214 126.921C88.9214 126.921 91.1747 130.311 89.3347 132.704C86.5694 136.3 88.3347 140.704 88.3347 140.704C88.3347 140.704 83.0121 135.68 84.9761 129.536C86.9401 123.391 88.9214 126.921 88.9214 126.921Z" fill="#1C274A"/>
<path d="M84.609 141.524C84.6384 141.745 84.4837 141.948 84.2624 141.977L84.1744 141.981C83.9904 141.967 83.833 141.821 83.809 141.631C83.805 141.607 83.601 140.16 82.7464 138.765C81.833 139.403 81.0957 140.005 81.0851 140.012L80.7957 140.103L80.5171 139.957C80.3771 139.784 80.4024 139.531 80.5744 139.388C80.6077 139.361 81.3464 138.757 82.281 138.104C81.7184 137.403 80.9571 136.78 79.9331 136.452C79.7211 136.384 79.605 136.156 79.6744 135.945C79.7424 135.731 79.969 135.615 80.181 135.684C83.957 136.9 84.5837 141.336 84.609 141.524Z" fill="#1C274A"/>
<path d="M99.9657 139.679C99.8203 140.657 100.154 141.519 100.712 141.603C101.271 141.685 101.843 140.961 101.99 139.984C102.136 139.005 101.803 138.145 101.244 138.061C100.686 137.977 100.114 138.701 99.9657 139.679Z" fill="#1C274A"/>
<path d="M110.878 141.568C110.732 142.545 111.065 143.405 111.625 143.491C112.184 143.575 112.754 142.849 112.902 141.872C113.049 140.893 112.716 140.033 112.156 139.949C111.597 139.865 111.025 140.589 110.878 141.568Z" fill="#1C274A"/>
<path d="M100.337 106.199C100.337 106.199 116.863 108.643 121.881 118.135C126.901 127.625 121.191 133.359 121.191 133.359C121.191 133.359 112.431 137.52 102.679 123.815C102.679 123.815 99.6199 131.775 91.2212 131.251C82.8225 130.725 85.7559 123.095 85.7559 123.095C85.7559 123.095 91.0719 106.685 100.337 106.199Z" fill="#1C274A"/>
<path d="M142.91 253.013C142.91 253.013 156.241 247.009 162.337 250.087L159.922 260.277C159.922 260.277 154.574 262.784 152.233 263.877C149.893 264.972 149.654 269.435 140.729 269.476L142.91 253.013Z" fill="#F6896E"/>
<path d="M83.9612 236.811C83.9906 236.827 84.0479 236.877 84.1519 237.001L84.1812 237.037C84.0119 236.895 83.9319 236.797 83.9612 236.811ZM140.961 252.711L138.901 252.348L134.764 251.604C132.012 251.097 129.257 250.564 126.515 250.004C124.304 249.561 122.101 249.1 119.908 248.621C119.581 248.551 119.255 248.48 118.928 248.408C116.005 247.764 113.097 247.091 110.221 246.384C108.575 245.973 106.935 245.553 105.308 245.115C104.779 244.973 104.251 244.831 103.725 244.684C100.621 243.827 97.5812 242.911 94.6719 241.904C92.2212 241.047 89.8546 240.137 87.8039 239.16C86.7879 238.677 85.8546 238.175 85.1252 237.711C84.7786 237.487 84.4812 237.277 84.2719 237.107L84.2386 237.053C83.9319 236.531 83.6252 236.008 83.3386 235.473C82.7479 234.415 82.2012 233.327 81.6745 232.235C81.1519 231.137 80.6639 230.021 80.1986 228.897C79.7479 227.764 79.3039 226.628 78.9105 225.468C78.5119 224.311 78.1306 223.147 77.7919 221.964C77.4519 220.781 77.1346 219.591 76.8546 218.387C76.5719 217.184 76.3186 215.971 76.0986 214.751C75.8719 213.527 75.6639 212.297 75.4946 211.061C74.8039 206.117 74.5719 201.051 74.7612 195.991C74.8386 193.464 75.0185 190.933 75.3119 188.44C75.4519 187.195 75.6279 185.961 75.8239 184.751C75.9212 184.147 76.0212 183.551 76.1306 182.973L76.2946 182.137L76.4252 181.544L63.5079 178.331L62.5386 178.091L53.2946 175.791L53.1812 176.268L53.1012 176.624L52.9586 177.291C52.8679 177.724 52.7852 178.144 52.7079 178.56C52.6479 178.881 52.5919 179.197 52.5346 179.511V179.515C52.4439 180.021 52.3612 180.521 52.2812 181.017L52.2745 181.071C52.0319 182.671 51.8239 184.251 51.6572 185.835C51.5012 187.32 51.3746 188.807 51.2852 190.295C51.2586 190.628 51.2386 190.961 51.2212 191.295C51.1452 192.668 51.0946 194.04 51.0652 195.415C50.9946 200.691 51.2772 205.984 51.9639 211.26C52.0079 211.591 52.0506 211.92 52.1012 212.253C52.2079 213.031 52.3239 213.804 52.4519 214.581C52.6906 216.061 52.9679 217.54 53.2772 219.015C53.3545 219.371 53.4319 219.724 53.5119 220.077C54.5186 224.581 55.8612 229.037 57.5386 233.387C58.1039 234.867 58.7386 236.327 59.3879 237.781L59.4519 237.924C59.6212 238.295 59.7946 238.664 59.9679 239.031C60.4972 240.151 61.0479 241.26 61.6252 242.357C61.7079 242.511 61.7919 242.664 61.8719 242.817C62.5679 244.117 63.2879 245.404 64.0572 246.664C64.4786 247.373 64.9172 248.068 65.3652 248.764L65.5319 249.024L65.6252 249.175L65.8279 249.477C66.1012 249.891 66.3679 250.244 66.6452 250.6C67.1906 251.288 67.7279 251.871 68.2586 252.397C69.3012 253.424 70.3012 254.22 71.2412 254.887C72.1852 255.557 73.0839 256.117 73.9546 256.617C75.3239 257.401 76.6279 258.04 77.9052 258.611C78.2439 258.767 78.5839 258.917 78.9252 259.061C79.8946 259.473 80.8479 259.855 81.7946 260.207C82.1079 260.324 82.4212 260.44 82.7319 260.551C84.5612 261.213 86.3546 261.791 88.1372 262.32C92.0012 263.461 95.7972 264.408 99.5745 265.241C99.9679 265.327 100.357 265.415 100.748 265.497C101.901 265.744 103.052 265.98 104.197 266.207C104.524 266.273 104.852 266.337 105.179 266.401C105.388 266.444 105.597 266.484 105.808 266.524C111.631 267.653 117.435 268.581 123.235 269.387C123.981 269.487 124.728 269.587 125.475 269.684C125.811 269.731 126.144 269.773 126.481 269.813C128.301 270.051 130.121 270.273 131.941 270.487C133.395 270.653 134.848 270.82 136.304 270.973L138.499 271.188L140.741 271.397L142.977 253.053L140.961 252.711Z" fill="#E6B589"/>
<path d="M60.1674 195.408C59.9847 197.977 58.0807 198.857 56.69 199.501C55.9314 199.851 55.2767 200.153 55.154 200.577C55.0647 200.88 55.2114 201.337 55.5914 201.937C57.2047 204.48 57.4207 207.391 56.1607 209.531C55.3034 210.984 53.874 211.931 52.1007 212.253C52.05 211.92 52.0074 211.591 51.9634 211.26C53.4314 210.98 54.6034 210.207 55.3007 209.024C56.3714 207.207 56.1567 204.697 54.7434 202.471C54.19 201.597 54.014 200.904 54.194 200.297C54.4474 199.437 55.3301 199.027 56.2701 198.593C57.6247 197.964 59.0274 197.317 59.1674 195.335C59.214 194.684 59.0114 194.124 58.5407 193.621C57.054 192.021 53.454 191.48 51.2207 191.295C51.238 190.961 51.258 190.628 51.2847 190.295C53.654 190.487 57.5447 191.084 59.2701 192.937C59.9314 193.647 60.234 194.477 60.1674 195.408Z" fill="#B07C57"/>
<path d="M74.7901 233.401C73.6461 236.068 69.8434 238.455 65.5434 239.207C64.6727 239.357 63.8261 239.433 63.0167 239.433C61.9301 239.433 60.9034 239.297 59.9661 239.031C59.7927 238.664 59.6194 238.295 59.4501 237.924L59.3861 237.781C61.0434 238.455 63.1061 238.617 65.3701 238.22C69.2928 237.533 72.8701 235.344 73.8701 233.008C74.8394 230.741 72.5594 229.224 68.9661 227.171C66.8927 225.984 64.9327 224.864 64.2154 223.427C63.2927 221.581 65.1021 220.051 66.5594 218.82C67.5261 218.008 68.5221 217.164 68.4461 216.531C68.4034 216.153 67.9394 215.735 67.1061 215.317C63.7194 213.621 57.3061 217.433 53.5101 220.077C53.4301 219.724 53.3527 219.371 53.2754 219.015C57.2754 216.267 63.8021 212.547 67.5527 214.424C68.7327 215.015 69.3501 215.664 69.4394 216.415C69.5794 217.581 68.4261 218.553 67.2061 219.584C65.5927 220.944 64.5794 221.917 65.1087 222.98C65.6927 224.147 67.6087 225.241 69.4594 226.301C72.6127 228.104 76.1834 230.147 74.7901 233.401Z" fill="#B07C57"/>
<path d="M97.8063 258.191C93.7996 258.184 93.1863 256.151 92.533 253.997C92.033 252.344 91.4663 250.468 89.0703 250.164C85.0823 249.671 82.713 256.728 81.793 260.207C82.1063 260.324 82.4196 260.44 82.7303 260.551C83.713 256.773 85.937 250.781 88.9436 251.157C90.613 251.367 91.033 252.484 91.5756 254.288C92.237 256.468 93.0596 259.184 97.8063 259.191C100.133 259.193 101.446 260.001 101.506 261.464C101.553 262.66 100.777 264.107 99.5729 265.241C99.9663 265.327 100.356 265.415 100.746 265.497C101.88 264.244 102.557 262.735 102.504 261.424C102.466 260.455 101.933 258.197 97.8063 258.191Z" fill="#B07C57"/>
<path d="M114.177 255.517C113.197 255.517 111.98 255.048 110.833 253.312C109.273 250.956 106.793 251.652 104.167 252.392C101.824 253.049 99.4013 253.732 98.224 251.516C97.7947 250.709 97.7507 249.88 98.092 249.047C99.372 245.92 105.939 243.816 106.219 243.728C106.48 243.645 106.763 243.791 106.845 244.053C106.928 244.317 106.783 244.597 106.519 244.681C104.743 245.244 99.932 247.191 99.0173 249.427C98.792 249.979 98.8213 250.509 99.1067 251.047C99.8667 252.477 101.421 252.125 103.896 251.428C106.484 250.7 109.705 249.795 111.667 252.761C112.575 254.136 113.584 254.707 114.669 254.46C116.699 253.996 118.6 250.824 118.945 248.299C118.983 248.025 119.236 247.831 119.508 247.869C119.781 247.908 119.972 248.159 119.936 248.432C119.539 251.349 117.416 254.859 114.892 255.435C114.673 255.484 114.433 255.517 114.177 255.517Z" fill="#B07C57"/>
<path d="M126.815 266.313C126.659 263.437 125.181 260.82 122.871 259.317C120.995 258.091 119.024 257.901 117.179 258.773C114.935 259.831 114.341 261.32 113.905 262.411C113.399 263.684 113.165 264.26 110.248 263.331C106.901 262.264 105.381 263.757 104.772 264.741C104.501 265.177 104.311 265.677 104.197 266.207C104.524 266.273 104.852 266.337 105.179 266.401C105.264 265.997 105.411 265.611 105.625 265.267C106.159 264.401 107.005 263.964 108.115 263.964C108.665 263.964 109.275 264.071 109.945 264.284C113.492 265.417 114.159 264.471 114.835 262.781C115.248 261.744 115.719 260.568 117.605 259.677C119.141 258.955 120.732 259.115 122.328 260.153C124.371 261.487 125.675 263.811 125.817 266.371C125.875 267.44 125.828 268.675 125.475 269.684C125.811 269.731 126.144 269.773 126.481 269.813C126.719 269.057 126.839 268.153 126.839 267.121C126.839 266.86 126.832 266.591 126.815 266.313Z" fill="#B07C57"/>
<path d="M59.3716 167.551C58.1116 169.124 56.3529 169.24 54.8023 169.34C52.7783 169.471 51.3156 169.567 51.149 172.597C50.9396 176.34 49.8383 178.911 47.9663 180.027C47.2489 180.453 46.4356 180.668 45.5289 180.668C44.4129 180.668 43.1556 180.34 41.7689 179.691C40.6383 179.161 39.8529 178.411 39.3223 177.54C39.3863 176.904 39.4783 176.281 39.5996 175.677C39.9663 176.96 40.7423 178.1 42.1956 178.784C44.3823 179.815 46.1529 179.944 47.4556 179.168C49.0289 178.228 49.9623 175.937 50.149 172.544C50.369 168.627 52.6889 168.475 54.7356 168.344C56.2129 168.248 57.6063 168.157 58.5916 166.924C58.9689 166.453 59.0889 165.975 58.9556 165.468C58.6756 164.407 57.3823 163.351 56.0316 162.513C56.5089 162.391 56.9556 162.281 57.353 162.191C58.5423 163.031 59.6223 164.071 59.9223 165.211C60.1383 166.037 59.9556 166.824 59.3716 167.551Z" fill="#B07C57"/>
<path d="M61.873 242.819C62.5664 244.117 63.2891 245.403 64.0557 246.664C64.4771 247.372 64.9197 248.069 65.3637 248.764L65.5304 249.025L65.6237 249.175L65.8264 249.476C66.0997 249.891 66.3664 250.244 66.6451 250.601C67.1891 251.289 67.7277 251.871 68.2571 252.399C69.3024 253.423 70.3024 254.22 71.241 254.887C72.1837 255.559 73.0851 256.116 73.9544 256.617C75.3237 257.4 76.6291 258.04 77.9037 258.612C77.2557 243.307 67.221 242.269 61.873 242.819Z" fill="#B07C57"/>
<path d="M77.465 243.424C77.2503 243.467 77.0196 243.405 76.853 243.241C76.5836 242.975 76.5796 242.541 76.845 242.272C80.1236 238.936 84.809 235.624 85.0076 235.484C85.3156 235.267 85.7423 235.34 85.9623 235.649C86.1796 235.959 86.105 236.385 85.7956 236.604C85.7476 236.637 81.0116 239.985 77.8223 243.232C77.721 243.335 77.5956 243.399 77.465 243.424Z" fill="#B07C57"/>
<path d="M78.7412 238.572C78.3999 238.639 78.0572 238.436 77.9546 238.095C77.8466 237.733 78.0519 237.352 78.4145 237.244C78.5652 237.197 82.1346 236.135 84.9492 235.607C85.3199 235.537 85.6785 235.783 85.7465 236.153C85.8172 236.527 85.5652 236.876 85.1986 236.953C82.4612 237.467 78.8439 238.544 78.8079 238.555L78.7412 238.572Z" fill="#B07C57"/>
<path d="M129.097 250.837L128.801 250.829C103.389 244.513 86.3227 237.257 85.4653 236.432L85.3053 236.196C84.7227 234.759 71.052 200.843 73.0173 187.175C73.0707 186.801 73.4173 186.54 73.7933 186.595C74.1667 186.648 74.4266 186.995 74.3733 187.369C72.5346 200.159 85.3787 232.691 86.4987 235.491C88.2747 236.523 104.875 243.471 129.132 249.5C129.5 249.591 129.723 249.964 129.631 250.331C129.565 250.597 129.352 250.788 129.097 250.837Z" fill="#B07C57"/>
<path d="M74.1153 193.779C73.9447 193.811 73.762 193.781 73.606 193.679C73.2913 193.471 73.2033 193.044 73.4127 192.729L75.7407 189.2C75.95 188.885 76.3753 188.799 76.69 189.007C77.006 189.215 77.0927 189.64 76.8847 189.956L74.5553 193.483C74.45 193.643 74.2887 193.745 74.1153 193.779Z" fill="#B07C57"/>
<path d="M129.989 270.48L129.769 270.487C129.395 270.437 129.129 270.093 129.18 269.719L131.556 251.811C131.605 251.436 131.949 251.172 132.324 251.221C132.699 251.272 132.963 251.616 132.912 251.991L130.537 269.899C130.499 270.197 130.271 270.425 129.989 270.48Z" fill="#B07C57"/>
<path d="M140.776 267.581L140.542 267.584L130.664 266.103C130.29 266.047 130.032 265.697 130.088 265.324C130.144 264.949 130.493 264.692 130.866 264.749L140.745 266.231C141.121 266.287 141.378 266.636 141.322 267.009C141.278 267.304 141.052 267.527 140.776 267.581Z" fill="#B07C57"/>
<path d="M137.994 260.497C138.301 261.315 137.889 262.228 137.07 262.535C136.252 262.844 135.34 262.429 135.032 261.612C134.724 260.795 135.137 259.881 135.956 259.575C136.773 259.265 137.685 259.68 137.994 260.497Z" fill="#B07C57"/>
<path d="M378.067 342.996C378.067 342.996 350.507 337.548 342.815 318.32C335.125 299.092 363.245 284.671 378.067 294.996C393.923 306.041 378.067 342.996 378.067 342.996Z" fill="#4F64B8"/>
<path d="M394.455 393.512C394.212 393.512 393.999 393.333 393.963 393.085C391.322 375.227 380.68 349.531 372.218 331.12C363.04 311.155 354.379 295.221 354.294 295.063C354.162 294.82 354.25 294.519 354.492 294.385C354.735 294.253 355.038 294.344 355.17 294.584C355.255 294.745 363.932 310.707 373.124 330.703C381.614 349.173 392.292 374.964 394.95 392.94C394.99 393.212 394.8 393.467 394.528 393.507L394.455 393.512Z" fill="#27459B"/>
<path d="M377.032 341.136C376.853 341.136 376.683 341.04 376.592 340.872C364.605 318.545 345.139 302.347 344.944 302.187C344.731 302.011 344.7 301.696 344.876 301.483C345.051 301.271 345.365 301.241 345.577 301.416C345.775 301.579 365.388 317.896 377.471 340.401C377.601 340.643 377.511 340.947 377.268 341.077L377.032 341.136Z" fill="#27459B"/>
<path d="M377.576 342.735C377.435 342.735 377.296 342.675 377.196 342.559C368.455 332.268 359.502 325.871 353.53 322.316C347.058 318.464 342.595 317.027 342.551 317.013C342.288 316.929 342.143 316.648 342.227 316.387C342.31 316.124 342.59 315.979 342.852 316.061C343.036 316.12 347.443 317.536 354.007 321.439C360.052 325.033 369.114 331.504 377.958 341.913C378.135 342.123 378.11 342.437 377.9 342.616L377.576 342.735Z" fill="#27459B"/>
<path d="M375.151 336.881C374.944 336.881 374.749 336.749 374.68 336.543C367.96 316.821 370.431 292.855 370.457 292.613C370.487 292.34 370.731 292.141 371.007 292.172C371.28 292.2 371.477 292.447 371.449 292.72C371.423 292.959 368.975 316.712 375.624 336.221C375.712 336.481 375.573 336.765 375.312 336.855L375.151 336.881Z" fill="#27459B"/>
<path d="M376.841 340.785C376.601 340.785 376.39 340.612 376.35 340.367C374.294 327.883 375.873 317.699 377.561 311.356C379.394 304.465 381.685 300.585 381.781 300.423C381.921 300.188 382.228 300.111 382.465 300.251C382.701 300.392 382.778 300.697 382.637 300.935C382.614 300.973 380.309 304.884 378.514 311.652C376.858 317.895 375.309 327.916 377.334 340.205C377.378 340.476 377.194 340.733 376.922 340.779L376.841 340.785Z" fill="#27459B"/>
<path d="M407.139 348.02C407.139 348.02 434.974 344.212 443.791 325.472C452.606 306.735 425.388 290.673 409.98 300.103C393.498 310.192 407.139 348.02 407.139 348.02Z" fill="#4F64B8"/>
<path d="M396.581 391.877H396.577C396.299 391.875 396.079 391.648 396.082 391.373C396.193 382.176 398.198 371.697 402.045 360.233C405.118 351.076 409.365 341.267 414.671 331.081C423.699 313.744 432.791 301.145 432.882 301.02C433.045 300.797 433.355 300.748 433.578 300.909C433.801 301.071 433.853 301.383 433.689 301.605C433.599 301.731 424.543 314.279 415.549 331.555C407.258 347.473 397.326 370.776 397.079 391.385C397.077 391.659 396.854 391.877 396.581 391.877Z" fill="#27459B"/>
<path d="M408.312 346.224L408.052 346.149C407.817 346.007 407.744 345.699 407.889 345.465C421.282 323.713 441.828 308.585 442.033 308.435C442.256 308.273 442.568 308.321 442.73 308.544C442.893 308.767 442.844 309.08 442.621 309.241C442.416 309.391 422.025 324.408 408.738 345.987C408.644 346.14 408.48 346.224 408.312 346.224Z" fill="#27459B"/>
<path d="M407.675 347.788C407.549 347.788 407.425 347.743 407.329 347.649C407.131 347.46 407.124 347.143 407.313 346.944C416.756 337.077 426.187 331.155 432.433 327.924C439.216 324.416 443.699 323.264 443.887 323.217C444.152 323.148 444.424 323.311 444.492 323.579C444.56 323.845 444.399 324.116 444.132 324.184C444.085 324.195 439.547 325.365 432.857 328.828C426.687 332.024 417.369 337.879 408.033 347.635C407.936 347.737 407.805 347.788 407.675 347.788Z" fill="#27459B"/>
<path d="M410.442 342.088L410.253 342.052C409.998 341.948 409.877 341.656 409.98 341.401C417.77 322.32 416.734 298.463 416.722 298.224C416.709 297.948 416.921 297.715 417.196 297.701C417.468 297.687 417.705 297.901 417.719 298.176C417.731 298.416 418.78 322.489 410.905 341.779C410.825 341.972 410.638 342.088 410.442 342.088Z" fill="#27459B"/>
<path d="M408.524 345.885L408.413 345.873C408.144 345.812 407.976 345.545 408.037 345.277C410.785 333.129 409.832 323.033 408.549 316.704C407.157 309.841 405.088 305.801 405.068 305.761C404.941 305.517 405.036 305.216 405.28 305.088C405.524 304.963 405.825 305.057 405.953 305.303C406.039 305.469 408.096 309.477 409.519 316.464C410.827 322.897 411.801 333.156 409.011 345.497C408.959 345.729 408.752 345.885 408.524 345.885Z" fill="#27459B"/>
<path d="M396.422 311.759C396.422 311.759 372.84 296.492 372.814 275.784C372.79 255.075 404.252 252.091 414.197 267.171C424.837 283.304 396.422 311.759 396.422 311.759Z" fill="#4F64B8"/>
<path d="M393.125 364.788L393.01 364.775C392.742 364.711 392.576 364.441 392.638 364.175C396.8 346.607 396.429 318.797 395.386 298.56C394.254 276.616 392.109 258.608 392.088 258.429C392.054 258.156 392.249 257.908 392.522 257.875C392.794 257.844 393.045 258.036 393.077 258.309C393.1 258.489 395.248 276.531 396.382 298.509C397.429 318.809 397.798 346.721 393.61 364.404C393.556 364.633 393.352 364.788 393.125 364.788Z" fill="#27459B"/>
<path d="M396.333 309.683C396.082 309.683 395.868 309.495 395.838 309.241C392.97 284.061 380.888 261.805 380.765 261.584C380.632 261.343 380.721 261.039 380.962 260.908C381.204 260.775 381.508 260.863 381.638 261.104C381.762 261.328 393.94 283.748 396.829 309.128C396.86 309.401 396.664 309.648 396.39 309.68L396.333 309.683Z" fill="#27459B"/>
<path d="M396.249 311.369C396.041 311.369 395.848 311.239 395.777 311.029C391.467 298.233 385.52 288.975 381.289 283.463C376.703 277.487 373.089 274.5 373.053 274.472C372.841 274.297 372.809 273.981 372.984 273.769C373.159 273.556 373.472 273.525 373.687 273.699C373.836 273.821 377.405 276.769 382.056 282.825C386.341 288.403 392.361 297.768 396.723 310.712C396.809 310.972 396.671 311.255 396.409 311.344L396.249 311.369Z" fill="#27459B"/>
<path d="M396.165 305.033H396.139C395.864 305.02 395.652 304.785 395.667 304.511C396.727 283.701 407.899 262.353 408.012 262.14C408.14 261.897 408.443 261.804 408.685 261.932C408.928 262.061 409.021 262.363 408.893 262.607C408.781 262.817 397.711 283.977 396.663 304.561C396.648 304.827 396.428 305.033 396.165 305.033Z" fill="#27459B"/>
<path d="M396.29 309.287L396.182 309.275C395.912 309.216 395.743 308.951 395.8 308.681C398.514 296.324 403.768 287.38 407.699 282.053C411.968 276.268 415.546 273.451 415.696 273.333C415.912 273.164 416.227 273.203 416.396 273.42C416.566 273.637 416.527 273.951 416.31 274.12C416.274 274.148 412.668 276.992 408.478 282.679C404.614 287.921 399.447 296.728 396.775 308.895C396.724 309.128 396.519 309.287 396.29 309.287Z" fill="#27459B"/>
<path d="M425.236 362.107L424.413 364.288L423.895 365.671L422.404 369.629L421.881 371.012L420.351 375.079L419.831 376.459L413.26 393.902H377.368L370.799 376.459L370.279 375.079L368.747 371.012L368.227 369.629L366.735 365.671L366.216 364.288L365.393 362.107C364.829 360.611 365.933 359.015 367.531 359.015H423.097C424.693 359.015 425.799 360.611 425.236 362.107Z" fill="#E6B589"/>
<path d="M424.414 364.288L423.895 365.671H366.735L366.217 364.288H424.414Z" fill="#B07C57"/>
<path d="M422.404 369.629L421.881 371.012H368.747L368.227 369.629H422.404Z" fill="#B07C57"/>
<path d="M420.351 375.079L419.831 376.459H370.799L370.279 375.079H420.351Z" fill="#B07C57"/>
</svg>
