<svg width="667" height="667" viewBox="0 0 667 667" fill="none" xmlns="http://www.w3.org/2000/svg">
<g clip-path="url(#clip0_124_133)">
<path d="M480.617 450.639H198.296C195.647 450.639 193.479 448.471 193.479 445.821V264.673C193.479 262.024 195.647 259.856 198.296 259.856H480.617C483.267 259.856 485.435 262.024 485.435 264.673V445.821C485.435 448.471 483.267 450.639 480.617 450.639Z" fill="#6564B8"/>
<path d="M478.208 432.139H200.705V273.731H478.208V432.139Z" fill="#D0BBE3"/>
<path d="M341.201 266.227C341.201 267.191 340.42 267.971 339.456 267.971C338.493 267.971 337.712 267.191 337.712 266.227C337.712 265.264 338.493 264.483 339.456 264.483C340.42 264.483 341.201 265.264 341.201 266.227Z" fill="#D0BBE3"/>
<path d="M524.728 512.887L488.866 455.813C486.842 452.592 483.305 450.637 479.502 450.637H333.205H325.112H199.41C195.606 450.637 192.069 452.592 190.046 455.813L154.185 512.887C153.17 514.503 152.809 516.424 153.126 518.277H525.785C526.104 516.424 525.742 514.503 524.728 512.887Z" fill="#D0BBE3"/>
<path d="M153.127 518.278C153.192 518.661 153.276 519.042 153.4 519.416L153.966 521.11C155.014 524.254 157.954 526.373 161.266 526.373H325.112H333.206H517.647C520.959 526.373 523.899 524.254 524.947 521.11L525.512 519.416C525.636 519.042 525.72 518.661 525.786 518.278H153.127Z" fill="#6564B8"/>
<path d="M212.905 478.803L214.65 474.961H206.01L204.161 478.803H212.905Z" fill="#6564B8"/>
<path d="M228.128 467.869L228.986 465.864L229.771 464.025H221.41L219.663 467.869H228.128Z" fill="#6564B8"/>
<path d="M216.438 474.961L214.692 478.803H223.454L225.096 474.961H216.438Z" fill="#6564B8"/>
<path d="M215.39 473.336L217.137 469.493H208.644L206.793 473.336H215.39Z" fill="#6564B8"/>
<path d="M391.331 464.025L392.298 467.869H399.73L398.659 464.025H391.331Z" fill="#6564B8"/>
<path d="M258.006 474.961L256.831 478.803H265.666L266.788 474.961H258.006Z" fill="#6564B8"/>
<path d="M247.672 474.961L246.289 478.803H255.13L256.304 474.961H247.672Z" fill="#6564B8"/>
<path d="M237.292 474.961L235.755 478.803H244.562L245.944 474.961H237.292Z" fill="#6564B8"/>
<path d="M226.865 474.961L225.223 478.803H234.001L235.54 474.961H226.865Z" fill="#6564B8"/>
<path d="M400.346 464.025L401.416 467.869H408.359L407.235 464.025H400.346Z" fill="#6564B8"/>
<path d="M287.884 469.493L286.917 473.336H293.904L294.766 469.493H287.884Z" fill="#6564B8"/>
<path d="M363.684 464.025L364.34 467.869H372.401L371.642 464.025H363.684Z" fill="#6564B8"/>
<path d="M286.617 467.869L287.582 464.025H280.256L279.184 467.869H286.617Z" fill="#6564B8"/>
<path d="M277.496 467.869L278.567 464.025H271.677L270.555 467.869H277.496Z" fill="#6564B8"/>
<path d="M295.132 467.869L295.994 464.025H289.258L288.293 467.869H295.132Z" fill="#6564B8"/>
<path d="M408.93 464.025L410.054 467.869H418.74L417.563 464.025H408.93Z" fill="#6564B8"/>
<path d="M251.608 464.025L250.226 467.869H258.474L259.08 465.885L259.648 464.025H251.608Z" fill="#6564B8"/>
<path d="M248.496 467.869L249.879 464.025H241.672L240.134 467.869H248.496Z" fill="#6564B8"/>
<path d="M231.54 464.025L229.896 467.869H238.382L239.182 465.868L239.92 464.025H231.54Z" fill="#6564B8"/>
<path d="M382.919 464.025L383.782 467.869H390.62L389.654 464.025H382.919Z" fill="#6564B8"/>
<path d="M373.3 464.025L374.06 467.869H382.114L381.252 464.025H373.3Z" fill="#6564B8"/>
<path d="M268.862 467.869L269.984 464.025H261.348L260.174 467.869H268.862Z" fill="#6564B8"/>
<path d="M279.02 462.4L280.018 458.822H273.199L272.152 462.4H279.02Z" fill="#6564B8"/>
<path d="M270.459 462.4L271.504 458.822H262.94L261.846 462.4H270.459Z" fill="#6564B8"/>
<path d="M354.19 464.025L354.638 467.869H362.689L362.036 464.025H354.19Z" fill="#6564B8"/>
<path d="M305.934 462.4L306.64 458.822H298.831L298.028 462.4H305.934Z" fill="#6564B8"/>
<path d="M296.36 462.4L297.164 458.822H290.568L289.669 462.4H296.36Z" fill="#6564B8"/>
<path d="M287.992 462.4L288.892 458.822H281.705L280.708 462.4H287.992Z" fill="#6564B8"/>
<path d="M449.143 464.025L450.785 467.869H459.251L457.504 464.025H449.143Z" fill="#6564B8"/>
<path d="M230.467 462.4L231.996 458.822H223.774L222.148 462.4H230.467Z" fill="#6564B8"/>
<path d="M240.57 462.4L242.002 458.822H233.764L232.234 462.4H240.57Z" fill="#6564B8"/>
<path d="M260.146 462.4L261.239 458.822H253.479L252.192 462.4H260.146Z" fill="#6564B8"/>
<path d="M459.289 464.025L461.037 467.869H469.486L467.634 464.025H459.289Z" fill="#6564B8"/>
<path d="M250.464 462.4L251.75 458.822H243.754L242.322 462.4H250.464Z" fill="#6564B8"/>
<path d="M419.264 464.025L420.441 467.869H428.689L427.305 464.025H419.264Z" fill="#6564B8"/>
<path d="M305.111 474.961L304.351 478.803H312.709L313.364 474.961H305.111Z" fill="#6564B8"/>
<path d="M268.482 474.961L267.36 478.803H274.45L275.519 474.961H268.482Z" fill="#6564B8"/>
<path d="M295.207 474.961L294.343 478.803H302.693L303.452 474.961H295.207Z" fill="#6564B8"/>
<path d="M277.207 474.961L276.138 478.803H283.864L284.831 474.961H277.207Z" fill="#6564B8"/>
<path d="M286.508 474.961L285.541 478.803H292.676L293.538 474.961H286.508Z" fill="#6564B8"/>
<path d="M316.877 464.025L316.223 467.869H324.275L324.723 464.025H316.877Z" fill="#6564B8"/>
<path d="M315.506 462.4L316.115 458.822H308.297L307.591 462.4H315.506Z" fill="#6564B8"/>
<path d="M306.189 469.493L305.431 473.336H313.641L314.296 469.493H306.189Z" fill="#6564B8"/>
<path d="M438.995 464.025L440.532 467.869H449.016L447.374 464.025H438.995Z" fill="#6564B8"/>
<path d="M323.639 473.336L324.086 469.493H315.946L315.291 473.336H323.639Z" fill="#6564B8"/>
<path d="M429.033 464.025L430.417 467.869H438.78L437.241 464.025H429.033Z" fill="#6564B8"/>
<path d="M217.876 467.869L219.623 464.025H211.277L209.427 467.869H217.876Z" fill="#6564B8"/>
<path d="M402.778 478.803L401.707 474.961H394.083L395.05 478.803H402.778Z" fill="#6564B8"/>
<path d="M278.73 469.493L277.661 473.336H285.24L286.206 469.493H278.73Z" fill="#6564B8"/>
<path d="M417.067 462.4L415.973 458.822H407.409L408.453 462.4H417.067Z" fill="#6564B8"/>
<path d="M436.589 462.4L435.158 458.822H427.161L428.449 462.4H436.589Z" fill="#6564B8"/>
<path d="M426.723 462.4L425.434 458.822H417.674L418.768 462.4H426.723Z" fill="#6564B8"/>
<path d="M380.886 462.4L380.082 458.822H372.274L372.978 462.4H380.886Z" fill="#6564B8"/>
<path d="M371.322 462.4L370.617 458.822H362.797L363.406 462.4H371.322Z" fill="#6564B8"/>
<path d="M446.678 462.4L445.15 458.822H436.911L438.342 462.4H446.678Z" fill="#6564B8"/>
<path d="M398.206 462.4L397.208 458.822H390.021L390.921 462.4H398.206Z" fill="#6564B8"/>
<path d="M389.244 462.4L388.344 458.822H381.749L382.553 462.4H389.244Z" fill="#6564B8"/>
<path d="M393.372 478.803L392.406 474.961H385.375L386.236 478.803H393.372Z" fill="#6564B8"/>
<path d="M453.69 478.803L452.049 474.961H443.373L444.91 478.803H453.69Z" fill="#6564B8"/>
<path d="M432.624 478.803L431.241 474.961H422.609L423.784 478.803H432.624Z" fill="#6564B8"/>
<path d="M474.752 478.803L472.9 474.961H464.262L466.007 478.803H474.752Z" fill="#6564B8"/>
<path d="M464.223 478.803L462.476 474.961H453.817L455.457 478.803H464.223Z" fill="#6564B8"/>
<path d="M443.159 478.803L441.62 474.961H432.971L434.352 478.803H443.159Z" fill="#6564B8"/>
<path d="M384.569 478.803L383.708 474.961H375.461L376.22 478.803H384.569Z" fill="#6564B8"/>
<path d="M456.765 462.4L455.14 458.822H446.917L448.446 462.4H456.765Z" fill="#6564B8"/>
<path d="M471.291 467.869H479.087L476.915 464.025H469.44L471.291 467.869Z" fill="#6564B8"/>
<path d="M411.555 478.803L410.431 474.961H403.395L404.464 478.803H411.555Z" fill="#6564B8"/>
<path d="M466.852 462.4L465.128 458.822H456.926L458.551 462.4H466.852Z" fill="#6564B8"/>
<path d="M422.083 478.803L420.907 474.961H412.124L413.248 478.803H422.083Z" fill="#6564B8"/>
<path d="M475.998 462.4L473.975 458.822H466.934L468.659 462.4H475.998Z" fill="#6564B8"/>
<path d="M406.76 462.4L405.717 458.822H398.896L399.894 462.4H406.76Z" fill="#6564B8"/>
<path d="M354.273 478.803L353.827 474.961H345.397L345.553 478.803H354.273Z" fill="#6564B8"/>
<path d="M229.202 469.493L228.345 471.497L227.56 473.336H236.192L237.729 469.493H229.202Z" fill="#6564B8"/>
<path d="M363.622 473.336L362.966 469.493H354.826L355.276 473.336H363.622Z" fill="#6564B8"/>
<path d="M225.79 473.336L227.433 469.493H218.922L218.009 471.503L217.176 473.336H225.79Z" fill="#6564B8"/>
<path d="M297.662 464.025L296.8 467.869H304.853L305.612 464.025H297.662Z" fill="#6564B8"/>
<path d="M307.271 464.025L306.511 467.869H314.573L315.229 464.025H307.271Z" fill="#6564B8"/>
<path d="M259.676 469.493L258.501 473.336H267.262L268.385 469.493H259.676Z" fill="#6564B8"/>
<path d="M239.482 469.493L237.944 473.336H246.528L247.911 469.493H239.482Z" fill="#6564B8"/>
<path d="M270.08 469.493L268.957 473.336H275.972L277.042 469.493H270.08Z" fill="#6564B8"/>
<path d="M345.178 469.493L345.334 473.336H353.638L353.19 469.493H345.178Z" fill="#6564B8"/>
<path d="M249.64 469.493L248.258 473.336H256.802L257.978 469.493H249.64Z" fill="#6564B8"/>
<path d="M352.366 462.4L351.948 458.822H344.747L344.892 462.4H352.366Z" fill="#6564B8"/>
<path d="M374.563 478.803L373.804 474.961H365.55L366.204 478.803H374.563Z" fill="#6564B8"/>
<path d="M335.792 458.822L335.648 462.4H343.264L343.119 458.822H335.792Z" fill="#6564B8"/>
<path d="M335.582 464.025L335.428 467.869H343.484L343.33 464.025H335.582Z" fill="#6564B8"/>
<path d="M353.003 467.869L352.553 464.025H344.956L345.112 467.869H353.003Z" fill="#6564B8"/>
<path d="M361.758 462.4L361.149 458.822H353.585L354.002 462.4H361.758Z" fill="#6564B8"/>
<path d="M335.363 469.493L335.208 473.336H343.705L343.551 469.493H335.363Z" fill="#6564B8"/>
<path d="M335.142 474.961L334.986 478.803H343.925L343.77 474.961H335.142Z" fill="#6564B8"/>
<path d="M334.021 462.4L334.165 458.822H326.964L326.548 462.4H334.021Z" fill="#6564B8"/>
<path d="M317.154 462.4H324.912L325.326 458.822H317.764L317.154 462.4Z" fill="#6564B8"/>
<path d="M373.483 473.336L372.724 469.493H364.617L365.272 473.336H373.483Z" fill="#6564B8"/>
<path d="M296.435 469.493L295.572 473.336H303.774L304.534 469.493H296.435Z" fill="#6564B8"/>
<path d="M192.725 480.43L190.825 483.791H199.953L201.573 480.43H192.725Z" fill="#6564B8"/>
<path d="M409.954 473.336L408.834 469.493H401.869L402.941 473.336H409.954Z" fill="#6564B8"/>
<path d="M404.917 480.43L405.854 483.791H413.01L412.029 480.43H404.917Z" fill="#6564B8"/>
<path d="M391.996 473.336L391.029 469.493H384.146L385.008 473.336H391.996Z" fill="#6564B8"/>
<path d="M333.36 478.803L333.514 474.961H325.086L324.64 478.803H333.36Z" fill="#6564B8"/>
<path d="M434.938 480.43L436.147 483.791H445.155L443.811 480.43H434.938Z" fill="#6564B8"/>
<path d="M461.736 473.336L459.99 469.493H451.479L453.121 473.336H461.736Z" fill="#6564B8"/>
<path d="M445.562 480.43L446.907 483.791H455.824L454.386 480.43H445.562Z" fill="#6564B8"/>
<path d="M315.013 474.961L314.358 478.803H323.004L323.45 474.961H315.013Z" fill="#6564B8"/>
<path d="M195.814 474.961L193.644 478.803H202.356L204.206 474.961H195.814Z" fill="#6564B8"/>
<path d="M356.099 480.43L356.492 483.791H365.404L364.832 480.43H356.099Z" fill="#6564B8"/>
<path d="M224.528 480.43L223.091 483.791H232.005L233.351 480.43H224.528Z" fill="#6564B8"/>
<path d="M333.294 480.43H324.45L324.06 483.791H333.158L333.294 480.43Z" fill="#6564B8"/>
<path d="M451.352 473.336L449.712 469.493H441.184L442.721 473.336H451.352Z" fill="#6564B8"/>
<path d="M203.379 480.43L201.759 483.791H210.639L212.167 480.43H203.379Z" fill="#6564B8"/>
<path d="M374.38 469.493L375.14 473.336H383.341L382.48 469.493H374.38Z" fill="#6564B8"/>
<path d="M413.724 480.43L414.705 483.791H423.608L422.578 480.43H413.724Z" fill="#6564B8"/>
<path d="M376.541 480.43L377.204 483.791H385.689L384.936 480.43H376.541Z" fill="#6564B8"/>
<path d="M420.41 473.336L419.236 469.493H410.526L411.649 473.336H420.41Z" fill="#6564B8"/>
<path d="M430.657 473.336L429.275 469.493H420.938L422.112 473.336H430.657Z" fill="#6564B8"/>
<path d="M366.481 480.43L367.055 483.791H375.547L374.884 480.43H366.481Z" fill="#6564B8"/>
<path d="M424.28 480.43L425.31 483.791H434.419L433.21 480.43H424.28Z" fill="#6564B8"/>
<path d="M201.997 464.025L199.825 467.869H207.623L209.473 464.025H201.997Z" fill="#6564B8"/>
<path d="M466.747 480.43L468.275 483.791H477.154L475.534 480.43H466.747Z" fill="#6564B8"/>
<path d="M204.937 458.822L202.916 462.4H210.256L211.98 458.822H204.937Z" fill="#6564B8"/>
<path d="M440.968 473.336L439.432 469.493H431.003L432.386 473.336H440.968Z" fill="#6564B8"/>
<path d="M311.86 483.791L312.432 480.43H235.103L233.758 483.791H311.86Z" fill="#6564B8"/>
<path d="M386.603 480.43L387.356 483.791H394.625L393.781 480.43H386.603Z" fill="#6564B8"/>
<path d="M325.912 467.869H333.801L333.956 464.025H326.36L325.912 467.869Z" fill="#6564B8"/>
<path d="M483.098 474.963H474.707L478.959 483.791H488.088L483.098 474.963Z" fill="#6564B8"/>
<path d="M473.924 473.336H482.177L480.007 469.493H472.073L473.924 473.336Z" fill="#6564B8"/>
<path d="M472.119 473.336L470.268 469.493H461.776L463.523 473.336H472.119Z" fill="#6564B8"/>
<path d="M322.422 483.791L322.813 480.43H314.081L313.508 483.791H322.422Z" fill="#6564B8"/>
<path d="M334.922 480.43L334.785 483.791H354.853L354.461 480.43H334.922Z" fill="#6564B8"/>
<path d="M456.154 480.43L457.59 483.791H466.489L464.96 480.43H456.154Z" fill="#6564B8"/>
<path d="M401.254 473.336L400.182 469.493H392.707L393.674 473.336H401.254Z" fill="#6564B8"/>
<path d="M395.457 480.43L396.304 483.791H404.166L403.229 480.43H395.457Z" fill="#6564B8"/>
<path d="M198.905 469.493L196.734 473.336H204.989L206.84 469.493H198.905Z" fill="#6564B8"/>
<path d="M220.363 462.4L221.988 458.822H213.784L212.062 462.4H220.363Z" fill="#6564B8"/>
<path d="M213.952 480.43L212.424 483.791H221.321L222.758 480.43H213.952Z" fill="#6564B8"/>
<path d="M333.58 473.336L333.736 469.493H325.723L325.276 473.336H333.58Z" fill="#6564B8"/>
<path d="M363.9 474.961H355.463L355.91 478.803H364.555L363.9 474.961Z" fill="#6564B8"/>
<path d="M294.989 489.879C294.924 489.879 294.869 489.92 294.849 489.983L288.373 511.034C288.354 511.091 288.374 511.135 288.396 511.162C288.416 511.19 288.452 511.22 288.513 511.22H390.398C390.46 511.22 390.497 511.19 390.517 511.162C390.537 511.135 390.558 511.091 390.54 511.034L384.062 489.982C384.044 489.922 383.986 489.879 383.922 489.879H294.989ZM390.398 512.426H288.513C288.08 512.426 287.684 512.226 287.425 511.878C287.169 511.53 287.094 511.092 287.222 510.678L293.698 489.627C293.874 489.056 294.394 488.674 294.989 488.674H383.922C384.518 488.674 385.037 489.058 385.213 489.627L391.689 510.678C391.818 511.092 391.742 511.53 391.486 511.878C391.229 512.226 390.833 512.426 390.398 512.426Z" fill="#6564B8"/>
<path d="M388.935 298.004L278.259 315.459L384.673 368.703L494.892 352.311L388.935 298.004Z" fill="#2A367E"/>
<path d="M278.259 315.46V317.993L384.753 373.646L494.892 354.736V352.312L384.673 368.704L278.259 315.46Z" fill="#2E43A0"/>
<path d="M319.424 375.362L317.729 386.614C317.729 386.614 363.175 423.103 427.256 405.162L428.239 396.371C371.595 405.847 335.94 387.487 319.424 375.362Z" fill="#2E43A0"/>
<path d="M454.355 434.61C448.423 429.905 444.223 422.969 442.223 415.667C442.074 415.127 441.351 415.321 441.267 415.786C441.131 415.606 440.862 415.581 440.644 415.694C440.539 415.319 439.928 415.147 439.694 415.601C435.627 423.486 438.768 432.39 441.49 440.19C441.703 440.803 442.382 440.474 442.167 439.858C440.036 433.755 437.758 426.921 439.054 420.489C438.331 428.619 441.04 436.946 446.003 443.399C446.36 443.865 446.918 443.306 446.558 442.835C442.052 436.979 439.724 429.545 439.964 422.162C440.103 425.07 440.554 427.97 441.484 430.711C442.91 434.914 445.292 438.925 447.676 442.645C448.028 443.193 448.582 442.629 448.231 442.082C445.939 438.506 443.962 434.665 442.531 430.65C441.919 428.93 441.514 427.127 441.259 425.299C442.63 431.211 445.486 436.771 449.59 441.286C450.022 441.761 450.595 441.338 450.156 440.857C445.659 435.911 442.954 429.579 441.838 423.045C443.488 429.165 446.532 434.951 450.556 439.922C450.962 440.425 451.387 439.878 450.975 439.371C447.048 434.519 444.452 428.846 442.831 422.877C445.014 429.034 447.85 434.974 452.856 439.353C453.346 439.782 453.883 439.285 453.394 438.857C449.954 435.849 447.687 431.786 445.84 427.71C447.843 431.273 450.255 434.603 453.054 437.613C453.495 438.089 453.868 437.331 453.431 436.861C450.97 434.214 449.082 431.282 447.252 428.182C449.135 430.706 451.326 433.003 453.806 434.971C454.315 435.377 454.866 435.015 454.355 434.61Z" fill="#FBBF30"/>
<path d="M443.931 349.406C441.619 346.643 438.498 344.826 435.3 343.276C428.942 340.194 421.879 338.854 414.987 337.548C405.244 335.707 395.28 334 387.18 327.862C386.866 327.623 386.562 327.742 386.382 327.986C386.366 328 386.354 328.018 386.34 328.034C386.335 328.043 386.328 328.048 386.323 328.058C386.128 328.298 386.075 328.643 386.364 328.919C392.3 334.594 400.236 337.403 408.05 339.379C415.944 341.378 424.002 342.747 431.558 345.884C431.791 345.982 432.026 346.079 432.26 346.176C432.306 346.195 432.555 346.31 432.558 346.308C432.944 346.495 433.327 346.69 433.712 346.88C435.126 347.582 436.504 348.31 437.798 349.219C439.35 350.312 440.787 351.65 441.786 353.275C442.875 355.052 443.254 357.046 443.214 359.112C443.172 361.263 442.774 363.4 442.424 365.518C442.063 367.711 441.738 369.91 441.4 372.106C440.703 376.648 440.054 381.192 439.563 385.76C438.484 395.818 438.19 406.074 439.999 416.067C440.132 416.808 441.378 416.646 441.322 415.887C440.619 406.403 441.392 396.894 442.723 387.498C443.386 382.822 444.187 378.164 445.006 373.514C445.772 369.147 446.786 364.747 447.144 360.322C447.47 356.31 446.54 352.524 443.931 349.406Z" fill="#FBBF30"/>
<path d="M439.497 416.781C439.612 416.725 439.728 416.675 439.844 416.625C439.916 416.597 439.912 416.599 439.834 416.628C439.868 416.615 439.901 416.603 439.936 416.592C439.988 416.575 440.04 416.557 440.092 416.543C440.342 416.464 440.602 416.408 440.862 416.371C440.925 416.361 440.989 416.351 441.052 416.347C440.876 416.356 441.08 416.347 441.117 416.344C441.242 416.337 441.37 416.335 441.498 416.337C441.624 416.34 441.752 416.348 441.878 416.36C441.942 416.367 442.005 416.373 442.066 416.381C442.104 416.385 442.14 416.392 442.174 416.397C442.086 416.381 442.081 416.38 442.158 416.395C442.342 416.429 442.506 416.439 442.678 416.347C442.822 416.269 442.961 416.115 443.005 415.956C443.089 415.64 442.936 415.18 442.565 415.111C441.3 414.875 440.022 415.024 438.861 415.593C438.545 415.749 438.404 416.2 438.585 416.504C438.777 416.827 439.158 416.947 439.497 416.781Z" fill="#E79C1A"/>
<path d="M439.361 415.469C439.476 415.412 439.593 415.362 439.711 415.312C439.781 415.284 439.777 415.285 439.699 415.316C439.732 415.302 439.768 415.29 439.801 415.278C439.853 415.261 439.905 415.244 439.957 415.228C440.209 415.152 440.467 415.094 440.728 415.057C440.789 415.048 440.853 415.037 440.917 415.034C440.741 415.044 440.947 415.033 440.981 415.032C441.109 415.025 441.236 415.022 441.363 415.025C441.491 415.028 441.617 415.034 441.743 415.046C441.807 415.052 441.871 415.06 441.933 415.068C441.969 415.073 442.005 415.078 442.041 415.085C441.952 415.068 441.947 415.068 442.024 415.081C442.209 415.116 442.372 415.126 442.545 415.033C442.688 414.957 442.828 414.802 442.869 414.644C442.953 414.326 442.801 413.866 442.431 413.797C441.165 413.561 439.889 413.71 438.728 414.28C438.411 414.434 438.271 414.885 438.451 415.192C438.641 415.514 439.023 415.634 439.361 415.469Z" fill="#E79C1A"/>
<path d="M431.564 369.893L432.116 365.514L384.754 373.646L325.131 342.487L323.854 349.85L383.563 379.91L431.564 369.893Z" fill="#1E264E"/>
<path d="M383.563 379.91L323.853 349.85L319.424 375.362C335.94 387.487 371.595 405.847 428.239 396.371L431.564 369.893L383.563 379.91Z" fill="#2A367E"/>
<path d="M311.18 414.523C313.822 421.642 308.145 430.317 298.497 433.897C288.85 437.478 283.344 432.962 279.486 426.423C273.842 416.857 279.282 411.698 288.928 408.117C298.576 404.537 308.537 407.405 311.18 414.523Z" fill="#FEF3D0"/>
<path d="M214.848 336.122C214.848 336.122 238.788 360.775 258.406 405.026C258.406 405.026 267.71 429.046 273.814 435.053C273.814 435.053 268.874 429.487 276.419 420.598C281.959 414.07 290.04 410.069 298.598 409.766C303.378 409.599 308.372 410.599 311.215 414.615C311.215 414.615 279.287 377.005 258.427 344.553C250.092 331.587 246.147 320.877 244.415 312.687C244.415 312.687 242.843 310.838 239.711 309.291C228.194 303.602 214.627 311.258 212.618 323.945C212.43 325.129 212.312 326.39 212.28 327.731C212.28 327.731 212.115 333.354 214.848 336.122Z" fill="white"/>
<path d="M273.814 435.054C273.814 435.054 284.292 447.696 308.024 432.526C308.024 432.526 322.711 422.727 315.38 405.659C315.38 405.659 300.148 394.304 288.138 379.911C276.127 365.518 261.271 345.922 248.944 320.004L245.802 318.102C245.802 318.102 248.067 330.392 262.736 351.103C277.407 371.816 304.47 406.49 304.47 406.49L308.608 411.476C310.984 414.339 311.802 418.271 310.488 421.754C308.619 426.711 303.135 432.583 287.822 433.474L278.259 418.627C278.259 418.627 268.974 426.316 273.814 435.054Z" fill="#F5E4A8"/>
<path d="M296.992 389.535C296.992 389.535 269.489 360.856 250.208 315.459C250.208 315.459 246.732 309.932 244.52 307.382C244.52 307.382 261.28 359.188 296.992 389.535Z" fill="white"/>
<path d="M246.41 381.212C252.196 370.775 264.699 363.873 276.602 364.471C280.838 364.683 280.826 359.415 276.602 359.203C262.486 358.493 248.492 365.541 241.646 377.888C241.646 377.888 244.352 384.923 246.41 381.212Z" fill="#FBBF30"/>
<path d="M203.801 400.396H149.824C142.668 400.396 136.813 394.543 136.813 387.386V359.275C136.813 352.12 142.668 346.266 149.824 346.266H203.801C210.957 346.266 216.812 352.12 216.812 359.275V387.386C216.812 394.543 210.957 400.396 203.801 400.396Z" fill="#2E43A0"/>
<path d="M168.228 373.331V363.417L176.813 368.375L185.398 373.331L176.813 378.288L168.228 383.244V373.331Z" fill="#D0BBE3"/>
<path d="M161.184 281.009C161.184 264.481 147.786 251.084 131.259 251.084C114.731 251.084 101.333 264.481 101.333 281.009C101.333 292.988 108.374 303.317 118.539 308.099V317.643H143.979V308.099C154.144 303.317 161.184 292.988 161.184 281.009Z" fill="white"/>
<path d="M144.798 322.576H117.72C116.363 322.576 115.254 321.467 115.254 320.11C115.254 318.754 116.363 317.644 117.72 317.644H144.798C146.155 317.644 147.264 318.754 147.264 320.11C147.264 321.467 146.155 322.576 144.798 322.576Z" fill="#FBBF30"/>
<path d="M131.259 336.572C125.794 336.572 121.364 332.143 121.364 326.679V325.042H141.152V326.679C141.152 332.143 136.722 336.572 131.259 336.572Z" fill="#FBBF30"/>
<path d="M144.798 327.51H117.72C116.363 327.51 115.254 326.4 115.254 325.043C115.254 323.687 116.363 322.576 117.72 322.576H144.798C146.155 322.576 147.264 323.687 147.264 325.043C147.264 326.4 146.155 327.51 144.798 327.51Z" fill="#E79C1A"/>
<path d="M133.98 317.643H132.577V276.069C132.577 275.343 131.986 274.751 131.259 274.751C130.531 274.751 129.939 275.343 129.939 276.069V317.643H128.536V276.069C128.536 274.569 129.758 273.348 131.259 273.348C132.76 273.348 133.98 274.569 133.98 276.069V317.643Z" fill="#FBBF30"/>
<path d="M84.2226 270.808L83.4023 275.091L95.9101 277.488C96.0773 276.027 96.3335 274.594 96.6731 273.191L84.2226 270.808Z" fill="#6564B8"/>
<path d="M94.1311 251.085L91.4941 254.563L101.47 262.115C102.269 260.895 103.14 259.726 104.079 258.617L94.1311 251.085Z" fill="#6564B8"/>
<path d="M111.618 237.763L107.722 239.724L113.331 250.842C114.582 250.111 115.88 249.448 117.223 248.872L111.618 237.763Z" fill="#6564B8"/>
<path d="M179.116 275.091L178.294 270.808L165.844 273.191C166.184 274.594 166.44 276.027 166.608 277.488L179.116 275.091Z" fill="#6564B8"/>
<path d="M171.022 254.563L168.386 251.085L158.438 258.617C159.377 259.727 160.248 260.895 161.048 262.115L171.022 254.563Z" fill="#6564B8"/>
<path d="M154.796 239.725L150.9 237.764L145.295 248.873C146.639 249.45 147.936 250.112 149.187 250.844L154.796 239.725Z" fill="#6564B8"/>
<path d="M133.488 246.07L133.382 233.413L129.018 233.453L129.126 246.062C129.833 246.02 130.542 245.993 131.259 245.993C132.009 245.993 132.751 246.024 133.488 246.07Z" fill="#6564B8"/>
<path d="M573.299 534.5H446.832V509.566H573.299V534.5Z" fill="#FBBF30"/>
<path d="M459.044 534.5H453.95V509.566H459.044V534.5Z" fill="#E79C1A"/>
<path d="M466.688 534.5H461.595V509.566H466.688V534.5Z" fill="#E79C1A"/>
<path d="M558.536 534.5H553.441V509.566H558.536V534.5Z" fill="#E79C1A"/>
<path d="M566.18 534.5H561.085V509.566H566.18V534.5Z" fill="#E79C1A"/>
<path d="M585.466 495.671V491.835C585.466 486.383 581.031 481.948 575.579 481.948H462.864V505.559H575.579C581.031 505.559 585.466 501.123 585.466 495.671Z" fill="white"/>
<path d="M575.579 477.794H462.127V481.949H575.579C581.031 481.949 585.466 486.384 585.466 491.836V495.672C585.466 501.124 581.031 505.56 575.579 505.56H462.127V507.637V509.713H575.579C583.323 509.713 589.62 503.416 589.62 495.672V491.836C589.62 484.093 583.323 477.794 575.579 477.794Z" fill="#2E43A0"/>
<path d="M577.787 489.123H462.864V487.235H577.787V489.123Z" fill="#F3F2FA"/>
<path d="M577.787 494.814H462.864V492.925H577.787V494.814Z" fill="#F3F2FA"/>
<path d="M577.787 500.504H462.864V498.615H577.787V500.504Z" fill="#F3F2FA"/>
<path d="M453.203 465.299V461.844C453.203 456.934 457.198 452.941 462.107 452.941H563.599V474.201H462.107C457.198 474.201 453.203 470.208 453.203 465.299Z" fill="white"/>
<path d="M462.106 449.201H564.262V452.941H462.106C457.197 452.941 453.202 456.935 453.202 461.844V465.299C453.202 470.208 457.197 474.201 462.106 474.201H564.262V476.072V477.941H462.106C455.133 477.941 449.461 472.271 449.461 465.299V461.844C449.461 454.873 455.133 449.201 462.106 449.201Z" fill="#FBBF30"/>
<path d="M460.117 459.4H563.599V457.7H460.117V459.4Z" fill="#F3F2FA"/>
<path d="M460.117 464.525H563.599V462.823H460.117V464.525Z" fill="#F3F2FA"/>
<path d="M460.117 469.65H563.599V467.949H460.117V469.65Z" fill="#F3F2FA"/>
<path d="M249.278 184.086C254.054 184.086 257.926 187.839 257.926 192.471V193.747C259.666 198.642 260.726 205.012 260.726 211.996C260.726 218.982 259.666 225.351 257.926 230.247V231.523C257.926 236.155 254.054 239.908 249.278 239.908C242.954 239.908 237.829 227.412 237.829 211.996C237.829 196.582 242.954 184.086 249.278 184.086Z" fill="#FBBF30"/>
<path d="M241.722 212.353C241.722 221.784 242.451 229.428 243.351 229.428C244.252 229.428 244.982 221.784 244.982 212.353C244.982 202.924 244.252 195.278 243.351 195.278C242.451 195.278 241.722 202.924 241.722 212.353Z" fill="#E79C1A"/>
<path d="M270.039 199.35V225.356C269.451 231.791 263.531 237.755 255.598 239.908V224.238V200.468V184.796C263.531 186.951 269.451 192.915 270.039 199.35Z" fill="#6564B8"/>
<path d="M255.597 242.896C256.888 242.896 257.945 241.872 257.945 240.62V184.086C257.945 182.834 256.888 181.808 255.597 181.808C254.305 181.808 253.248 182.834 253.248 184.086V240.62C253.248 241.872 254.305 242.896 255.597 242.896Z" fill="#2E43A0"/>
<path d="M204.345 184.086C199.569 184.086 195.697 187.839 195.697 192.471V193.747C193.957 198.642 192.897 205.012 192.897 211.996C192.897 218.982 193.957 225.351 195.697 230.247V231.523C195.697 236.155 199.569 239.908 204.345 239.908C210.669 239.908 215.795 227.412 215.795 211.996C215.795 196.582 210.669 184.086 204.345 184.086Z" fill="#FBBF30"/>
<path d="M211.904 212.353C211.904 221.784 211.173 229.428 210.273 229.428C209.372 229.428 208.643 221.784 208.643 212.353C208.643 202.924 209.372 195.278 210.273 195.278C211.173 195.278 211.904 202.924 211.904 212.353Z" fill="#E79C1A"/>
<path d="M183.585 199.35V225.356C184.174 231.791 190.093 237.755 198.028 239.908V224.238V200.468V184.796C190.093 186.951 184.174 192.915 183.585 199.35Z" fill="#6564B8"/>
<path d="M198.028 242.896C196.736 242.896 195.679 241.872 195.679 240.62V184.086C195.679 182.834 196.736 181.808 198.028 181.808C199.319 181.808 200.376 182.834 200.376 184.086V240.62C200.376 241.872 199.319 242.896 198.028 242.896Z" fill="#2E43A0"/>
<path d="M255.819 149.682C251.127 145.808 244.975 143.355 239.138 141.923C233.146 140.454 226.887 140.076 220.76 140.787C218.911 141.002 217.07 141.291 215.248 141.675C214.002 141.936 212.632 142.142 211.476 142.69C210.268 143.264 209.084 143.896 207.89 144.498C204.654 146.13 201.419 147.759 198.183 149.39C196.895 150.039 197.048 151.923 198.183 152.611C201.174 154.424 204.6 154.656 207.986 154.116C210.367 153.738 212.542 152.852 214.803 152.07C218.863 150.663 223.25 149.975 227.536 149.955C231.359 149.936 235.236 150.51 238.77 152.019C243.995 154.271 250.246 155.768 255.442 152.611C256.386 152.038 256.774 150.47 255.819 149.682Z" fill="#6564B8"/>
<path d="M227.62 138.713L227.628 138.673C227.354 138.673 227.085 138.687 226.812 138.693C226.54 138.687 226.27 138.673 225.997 138.673L226.004 138.713C199.065 139.573 177.486 161.665 177.486 188.813V219.237C177.486 222.615 180.226 225.355 183.605 225.355V195.361L183.473 194.581C181.41 182.417 184.048 169.757 191.469 159.902C194.934 155.298 199.632 150.963 205.989 147.831C206.065 147.795 206.14 147.758 206.216 147.721C219.169 141.406 234.454 141.406 247.409 147.721C247.484 147.758 247.56 147.795 247.634 147.831C254.03 150.982 258.744 155.35 262.216 159.983C269.594 169.829 272.206 182.457 270.149 194.587L270.018 195.361V225.355C273.397 225.355 276.137 222.615 276.137 219.237V188.813C276.137 161.665 254.558 139.573 227.62 138.713Z" fill="#2E43A0"/>
<path d="M597.52 362.807H517.964V247.757H597.52V362.807Z" fill="#D0BBE3"/>
<path d="M588.933 267.18H526.552V264.634H588.933V267.18Z" fill="#6564B8"/>
<path d="M588.933 278.871H526.552V276.324H588.933V278.871Z" fill="#6564B8"/>
<path d="M588.933 290.559H526.552V288.013H588.933V290.559Z" fill="#6564B8"/>
<path d="M588.933 302.248H526.552V299.703H588.933V302.248Z" fill="#6564B8"/>
<path d="M588.933 313.939H526.552V311.393H588.933V313.939Z" fill="#6564B8"/>
<path d="M588.933 325.629H526.552V323.084H588.933V325.629Z" fill="#6564B8"/>
<path d="M588.933 352.182H526.552V351.48H588.933V352.182Z" fill="white"/>
<path d="M535.074 340.431C538.261 340.967 541.497 341.127 544.718 340.847C547.694 340.59 550.854 340.087 553.63 338.943C555.608 338.128 557.76 335.896 556.373 333.64C555.152 331.652 552.086 331.45 550.057 331.934C547.688 332.496 545.581 334.048 544.141 335.984C542.7 337.922 541.697 340.715 543.402 342.811C544.978 344.747 547.864 345.135 550.188 344.812C551.494 344.631 552.766 344.199 553.908 343.539C554.442 343.23 554.936 342.864 555.409 342.471C556.028 341.958 556.676 341.278 557.512 341.162C558.516 341.023 558.748 341.782 559.386 342.328C559.83 342.71 560.4 342.838 560.972 342.779C561.677 342.708 562.318 342.403 562.972 342.151C563.794 341.832 564.608 341.712 565.489 341.734C569.284 341.824 573.109 342.328 576.893 342.636C577.566 342.691 577.562 342.059 576.893 342.004C574.074 341.776 571.258 341.127 568.442 340.898C567.157 340.794 565.836 340.596 564.545 340.703C563.332 340.802 562.356 341.432 561.196 341.68C559.89 341.959 559.709 340.647 558.665 340.244C557.736 339.888 556.716 340.188 555.921 340.719C554.953 341.367 554.166 342.21 553.129 342.767C551.969 343.394 550.661 343.768 549.344 343.848C547.21 343.978 544.036 343.326 543.585 340.803C543.174 338.5 545.085 336.122 546.749 334.764C548.458 333.367 550.765 332.443 552.993 332.851C554.053 333.046 555.437 333.544 555.696 334.734C555.998 336.122 554.772 337.242 553.66 337.787C552.358 338.424 550.856 338.75 549.452 339.063C547.892 339.411 546.31 339.656 544.718 339.795C541.594 340.066 538.446 340.216 535.353 339.698C534.692 339.586 534.406 340.319 535.074 340.431Z" fill="#6564B8"/>
<path d="M624.112 317.596L610.125 310.008L614.237 302.43C615.126 300.79 617.177 300.182 618.817 301.073L626.865 305.438C628.505 306.329 629.113 308.378 628.224 310.018L624.112 317.596Z" fill="#D0BBE3"/>
<path d="M582.741 393.836L568.756 386.248L609.155 311.797L623.14 319.387L582.741 393.836Z" fill="#2E43A0"/>
<path d="M578.247 391.396L573.252 388.686L613.649 314.236L618.644 316.946L578.247 391.396Z" fill="#2A367E"/>
<path d="M624.804 320.291L607.489 310.896L609.305 307.548L626.62 316.944L624.804 320.291Z" fill="#FBBF30"/>
<path d="M582.742 393.836L568.756 386.248L567.339 398.936L572.878 401.941L582.742 393.836Z" fill="#D0BBE3"/>
<path d="M572.877 401.94L567.338 398.935L566.406 407.258L572.877 401.94Z" fill="#2E43A0"/>
<path d="M123.954 188.322L138.264 202.633" stroke="#6564B8" stroke-width="2.86099" stroke-miterlimit="10"/>
<path d="M138.552 188.322L124.241 202.633" stroke="#6564B8" stroke-width="2.86099" stroke-miterlimit="10"/>
<path d="M605.383 402.969L619.692 417.279" stroke="#6564B8" stroke-width="2.86099" stroke-miterlimit="10"/>
<path d="M619.98 402.969L605.671 417.279" stroke="#6564B8" stroke-width="2.86099" stroke-miterlimit="10"/>
<path d="M83.5742 352.82L96.2466 365.49" stroke="#2E43A0" stroke-width="2.53344" stroke-miterlimit="10"/>
<path d="M96.5011 352.82L83.8281 365.49" stroke="#2E43A0" stroke-width="2.53344" stroke-miterlimit="10"/>
<path d="M76.8591 247.76C76.8591 253.48 72.2217 258.117 66.5014 258.117C60.781 258.117 56.1436 253.48 56.1436 247.76C56.1436 242.039 60.781 237.401 66.5014 237.401C72.2217 237.401 76.8591 242.039 76.8591 247.76Z" stroke="#6564B8" stroke-width="2.86099" stroke-miterlimit="10"/>
<path d="M492.536 229.428C492.536 235.148 487.899 239.785 482.177 239.785C476.457 239.785 471.821 235.148 471.821 229.428C471.821 223.708 476.457 219.071 482.177 219.071C487.899 219.071 492.536 223.708 492.536 229.428Z" stroke="#6564B8" stroke-width="2.86099" stroke-miterlimit="10"/>
<path d="M529.429 214.985C529.429 216.439 528.25 217.617 526.797 217.617C525.342 217.617 524.165 216.439 524.165 214.985C524.165 213.532 525.342 212.353 526.797 212.353C528.25 212.353 529.429 213.532 529.429 214.985Z" stroke="#2E43A0" stroke-width="2.53344" stroke-miterlimit="10"/>
<path d="M275.632 127.229C275.632 128.683 274.453 129.861 273 129.861C271.547 129.861 270.368 128.683 270.368 127.229C270.368 125.776 271.547 124.597 273 124.597C274.453 124.597 275.632 125.776 275.632 127.229Z" stroke="#2E43A0" stroke-width="2.53344" stroke-miterlimit="10"/>
<path d="M97.8115 488.628V483.332C97.8115 477.693 102.168 473.058 107.69 472.598V497.864C107.69 498.366 107.708 498.866 107.728 499.364C102.187 498.922 97.8115 494.281 97.8115 488.628ZM107.69 461.225V467.449C99.3276 467.921 92.6631 474.853 92.6631 483.332V488.628C92.6631 497.316 99.6573 504.389 108.309 504.542C111.449 521.585 126.375 534.5 144.327 534.5H144.328C164.561 534.5 180.964 518.098 180.964 497.864V461.225H107.69Z" fill="#2E43A0"/>
<path d="M162.716 419.518C158.054 417.114 151.931 418.248 148.184 421.918C147.512 416.572 142.431 412.53 137.102 411.733C131.773 410.936 126.367 412.805 121.692 415.482C117.106 418.109 112.825 421.753 110.903 426.676C108.982 431.598 110.057 437.942 114.411 440.937C116.179 442.154 118.432 442.496 120.549 442.142C120.828 443.817 121.49 445.414 122.58 446.738C126.211 451.153 133.706 451.589 137.824 447.626C140.95 450.392 145.747 451.09 149.531 449.329C150.354 448.946 151.115 448.446 151.807 447.865C151.528 451.533 150.135 455.122 147.788 457.961C152.334 456.38 156.222 452.989 158.404 448.702C159.836 445.889 160.508 442.712 160.42 439.56C163.959 438.877 167.206 436.289 168.358 432.824C170.014 427.848 167.378 421.922 162.716 419.518Z" fill="#D0BBE3"/>
<path d="M327.142 199.591H327.135C326.946 199.574 326.748 199.566 326.548 199.566C322.65 199.566 319.478 202.738 319.478 206.636C319.478 210.535 322.65 213.707 326.548 213.707C326.748 213.707 326.943 213.699 327.126 213.683C330.77 213.383 333.619 210.288 333.619 206.636C333.619 202.984 330.774 199.89 327.142 199.591Z" fill="#2E43A0"/>
<path d="M336.013 215.394C333.816 217.768 330.834 219.222 327.618 219.487C327.273 219.516 326.912 219.531 326.548 219.531C319.438 219.531 313.654 213.747 313.654 206.638C313.654 199.528 319.438 193.744 326.548 193.744C326.913 193.744 327.278 193.76 327.633 193.791C330.837 194.054 333.814 195.507 336.013 197.882C338.225 200.271 339.442 203.38 339.442 206.638C339.442 209.895 338.225 213.004 336.013 215.394ZM351.918 206.638C351.918 205.416 351.444 204.268 350.578 203.403C349.714 202.539 348.565 202.063 347.344 202.063H344.725L344.454 201.178C344.105 200.023 343.638 198.899 343.07 197.838L342.634 197.02L344.488 195.167C346.272 193.383 346.272 190.482 344.489 188.698C343.625 187.834 342.476 187.358 341.253 187.358C340.03 187.358 338.882 187.832 338.018 188.696L336.165 190.551L335.348 190.115C334.286 189.547 333.162 189.082 332.008 188.73L331.122 188.462V185.842C331.122 183.675 329.582 181.788 327.458 181.358C327.16 181.296 326.852 181.267 326.548 181.267C325.326 181.267 324.177 181.742 323.313 182.607C322.449 183.471 321.973 184.62 321.973 185.842V188.462L321.088 188.73C319.933 189.08 318.81 189.547 317.748 190.115L316.93 190.551L315.077 188.696C313.294 186.914 310.392 186.914 308.606 188.696C307.744 189.56 307.268 190.711 307.268 191.932C307.268 193.155 307.744 194.303 308.606 195.167L310.461 197.02L310.025 197.838C309.457 198.899 308.992 200.023 308.64 201.178L308.37 202.063H305.752C303.229 202.063 301.176 204.115 301.176 206.638C301.176 207.859 301.653 209.008 302.517 209.872C303.381 210.736 304.53 211.212 305.752 211.212H308.37L308.64 212.098C308.992 213.251 309.457 214.376 310.025 215.438L310.461 216.254L308.608 218.108C306.824 219.891 306.824 222.795 308.608 224.578C309.47 225.442 310.62 225.918 311.842 225.918C313.065 225.918 314.213 225.442 315.077 224.578L316.932 222.724L317.748 223.16C318.81 223.728 319.934 224.194 321.088 224.546L321.973 224.815V227.434C321.973 229.956 324.025 232.01 326.548 232.01C326.844 232.01 327.144 231.98 327.437 231.922L327.577 231.892C328.41 231.702 329.172 231.279 329.782 230.668C330.646 229.803 331.122 228.655 331.122 227.434V224.815L332.008 224.546C333.162 224.194 334.285 223.728 335.348 223.16L336.165 222.724L338.018 224.579C338.881 225.44 340.029 225.915 341.253 225.915C342.477 225.915 343.625 225.44 344.489 224.578C345.352 223.714 345.828 222.564 345.828 221.342C345.828 220.12 345.352 218.971 344.489 218.107L342.634 216.255L343.07 215.438C343.638 214.375 344.105 213.251 344.454 212.098L344.725 211.212H347.344C349.866 211.212 351.918 209.16 351.918 206.638Z" fill="#2E43A0"/>
<path d="M522.917 405.833L522.915 405.837C522.86 405.949 522.809 406.068 522.763 406.189C521.848 408.564 523.036 411.24 525.411 412.154C527.787 413.069 530.463 411.88 531.377 409.505C531.424 409.384 531.464 409.264 531.499 409.148C532.171 406.857 530.952 404.396 528.729 403.54C526.504 402.682 523.952 403.69 522.917 405.833Z" fill="#2E43A0"/>
<path d="M534.622 404.134C535.556 406.03 535.741 408.187 535.148 410.209C535.085 410.426 535.009 410.649 534.924 410.871C533.257 415.202 528.377 417.369 524.046 415.702C519.714 414.034 517.548 409.154 519.216 404.822C519.3 404.599 519.396 404.381 519.498 404.173C520.409 402.282 521.993 400.81 523.956 400.027C525.929 399.241 528.109 399.227 530.093 399.991C532.078 400.757 533.686 402.226 534.622 404.134ZM533.02 392.39C532.277 392.103 531.464 392.125 530.734 392.449C530.006 392.771 529.446 393.361 529.16 394.105L528.546 395.701L527.944 395.657C527.158 395.599 526.364 395.619 525.584 395.717L524.984 395.791L524.289 394.227C523.621 392.722 521.853 392.042 520.348 392.71C519.618 393.034 519.061 393.621 518.773 394.367C518.486 395.11 518.506 395.923 518.83 396.651L519.525 398.214L519.068 398.61C518.473 399.125 517.925 399.699 517.441 400.321L517.069 400.797L515.473 400.182C514.154 399.674 512.644 400.17 511.882 401.363C511.776 401.531 511.685 401.71 511.614 401.895C511.328 402.641 511.348 403.451 511.672 404.181C511.996 404.91 512.584 405.47 513.328 405.757L514.924 406.371L514.88 406.973C514.824 407.758 514.842 408.551 514.94 409.333L515.013 409.933L513.45 410.626C511.946 411.295 511.265 413.063 511.933 414.569C512.256 415.297 512.844 415.857 513.589 416.143C514.334 416.43 515.145 416.41 515.874 416.086L517.438 415.391L517.833 415.849C518.346 416.443 518.922 416.99 519.544 417.475L520.018 417.846L519.405 419.442C518.813 420.979 519.582 422.71 521.118 423.303C521.864 423.59 522.674 423.569 523.404 423.245C524.133 422.921 524.693 422.333 524.98 421.589L525.594 419.993L526.196 420.037C526.981 420.094 527.776 420.073 528.556 419.977L529.156 419.902L529.849 421.466C530.517 422.971 532.285 423.653 533.79 422.985C534.52 422.659 535.078 422.071 535.366 421.326C535.653 420.582 535.632 419.77 535.309 419.042L534.614 417.478L535.07 417.083C535.666 416.569 536.214 415.993 536.698 415.373L537.069 414.897L538.666 415.511C540.202 416.102 541.934 415.334 542.525 413.797C542.596 413.617 542.648 413.427 542.681 413.235L542.696 413.143C542.776 412.59 542.697 412.027 542.468 411.511C542.144 410.782 541.556 410.223 540.812 409.937L539.216 409.322L539.26 408.721C539.316 407.934 539.296 407.141 539.2 406.361L539.125 405.762L540.689 405.066C541.416 404.743 541.976 404.154 542.262 403.41C542.549 402.663 542.529 401.853 542.206 401.125C541.882 400.395 541.293 399.837 540.55 399.55C539.805 399.265 538.994 399.283 538.265 399.607L536.701 400.302L536.306 399.845C535.792 399.25 535.217 398.703 534.596 398.217L534.12 397.846L534.733 396.251C535.326 394.713 534.557 392.983 533.02 392.39Z" fill="#2E43A0"/>
</g>
<defs>
<clipPath id="clip0_124_133">
<rect width="666.667" height="666.667" fill="white"/>
</clipPath>
</defs>
</svg>
