<svg width="498" height="358" viewBox="0 0 498 358" fill="none" xmlns="http://www.w3.org/2000/svg">
<path d="M30.7781 325.131C30.7781 325.131 -1.35055 281.927 9.73745 224.332C21.59 162.764 98.3901 154.347 136.327 94.9509C174.266 35.5548 237.747 12.6855 303.751 23.4962C384.861 36.7802 394.361 146.451 423.598 175.211C452.834 203.972 502.547 277.875 444.718 325.131H30.7781Z" fill="#D0D7E0"/>
<path d="M442.889 325.799H32.1415C31.589 325.799 31.0707 325.532 30.7483 325.084L30.303 324.465H445.523L444.618 325.191C444.127 325.584 443.517 325.799 442.889 325.799Z" fill="#98A1A3"/>
<path d="M217.886 32.2179H6.66667C2.98427 32.2179 0 35.2019 0 38.8845V349.894C0 353.575 2.98427 356.561 6.66667 356.561H217.886C221.567 356.561 224.553 353.575 224.553 349.894V38.8845C224.553 35.2019 221.567 32.2179 217.886 32.2179Z" fill="#EDEDEB"/>
<path d="M135.938 268.291H11.613V87.531H135.938V268.291Z" fill="white"/>
<path d="M217.886 32.2175H6.66667C2.98427 32.2175 0 35.2015 0 38.8841V77.2441H224.553V38.8841C224.553 35.2015 221.567 32.2175 217.886 32.2175Z" fill="#5D87CD"/>
<path d="M31.3196 128.926V111.402H25.0264V106.535H44.1494V111.402H37.8562V128.926H31.3196Z" fill="#5D87CD"/>
<path d="M122.833 109.074H49.4395V105.338H122.833V109.074Z" fill="#33535F"/>
<path d="M98.8808 116.746H49.4395V113.011H98.8808V116.746Z" fill="#33535F"/>
<path d="M122.833 124.789H49.4395V121.053H122.833V124.789Z" fill="#33535F"/>
<path d="M122.833 132.865H24.7192V129.128H122.833V132.865Z" fill="#33535F"/>
<path d="M108.416 140.814H24.7192V137.077H108.416V140.814Z" fill="#33535F"/>
<path d="M116.301 148.764H24.7192V145.026H116.301V148.764Z" fill="#33535F"/>
<path d="M122.833 205.742H24.7192V202.006H122.833V205.742Z" fill="#33535F"/>
<path d="M108.416 213.691H24.7192V209.955H108.416V213.691Z" fill="#33535F"/>
<path d="M116.301 221.643H24.7192V217.905H116.301V221.643Z" fill="#33535F"/>
<path d="M108.416 237.201H24.7192V233.464H108.416V237.201Z" fill="#33535F"/>
<path d="M116.301 245.15H24.7192V241.413H116.301V245.15Z" fill="#33535F"/>
<path d="M122.833 195.797H24.8433V154.288H122.833V195.797Z" fill="#5D87CD"/>
<path d="M215.649 105.34H143.951V87.5319H215.649V105.34Z" fill="#5D87CD"/>
<path d="M215.649 238.004H143.951V220.195H215.649V238.004Z" fill="#5D87CD"/>
<path d="M215.649 293.545H11.613V275.736H215.649V293.545Z" fill="#5D87CD"/>
<path d="M215.649 215.025H143.951V109.176H215.649V215.025Z" fill="#A4A6A5"/>
<path d="M203.778 342.092H23.484C16.9282 342.092 11.613 336.777 11.613 330.221V293.546H215.649V330.221C215.649 336.777 210.334 342.092 203.778 342.092Z" fill="#A4A6A5"/>
<path d="M18.2932 64.1055V51.8214H25.0456C26.2918 51.8214 27.2392 52.1139 27.8877 52.6988C28.5363 53.2838 28.8605 54.1231 28.8605 55.2167C28.8605 55.8525 28.7397 56.3866 28.4981 56.8189C28.2692 57.2513 27.964 57.5946 27.5825 57.849C28.1039 58.0524 28.5172 58.3513 28.8224 58.7455C29.1403 59.127 29.2993 59.6992 29.2993 60.4622C29.2993 61.6194 28.9432 62.5159 28.2311 63.1517C27.519 63.7876 26.508 64.1055 25.1982 64.1055H18.2932ZM21.7457 56.7236H24.0728C24.9502 56.7236 25.389 56.3294 25.389 55.5409C25.389 55.1467 25.2809 54.8479 25.0647 54.6444C24.8612 54.441 24.4988 54.3392 23.9774 54.3392H21.7457V56.7236ZM21.7457 61.6067H24.2254C24.7086 61.6067 25.0647 61.505 25.2936 61.3015C25.5225 61.098 25.6369 60.761 25.6369 60.2905C25.6369 59.8963 25.5225 59.5975 25.2936 59.394C25.0647 59.1906 24.6832 59.0888 24.1491 59.0888H21.7457V61.6067ZM30.6433 64.1055V51.8214H34.2293V61.3587H39.761V64.1055H30.6433ZM46.4286 64.2962C44.394 64.2962 42.8362 63.8003 41.7553 62.8084C40.6871 61.8165 40.153 60.2142 40.153 58.0016C40.153 56.4756 40.3947 55.2485 40.8779 54.3202C41.3611 53.3791 42.0669 52.6988 42.9952 52.2792C43.9362 51.8468 45.0807 51.6306 46.4286 51.6306C47.7765 51.6306 48.9147 51.8468 49.843 52.2792C50.784 52.6988 51.4961 53.3791 51.9793 54.3202C52.4626 55.2485 52.7042 56.4756 52.7042 58.0016C52.7042 60.2142 52.1637 61.8165 51.0828 62.8084C50.0019 63.8003 48.4505 64.2962 46.4286 64.2962ZM46.4286 61.2443C47.3442 61.2443 48.0054 60.9899 48.4124 60.4813C48.832 59.9599 49.0418 59.1333 49.0418 58.0016C49.0418 56.7935 48.832 55.9415 48.4124 55.4456C48.0054 54.9369 47.3442 54.6826 46.4286 54.6826C45.513 54.6826 44.8454 54.9369 44.4258 55.4456C44.0188 55.9415 43.8154 56.7935 43.8154 58.0016C43.8154 59.1333 44.0188 59.9599 44.4258 60.4813C44.8454 60.9899 45.513 61.2443 46.4286 61.2443ZM60.3723 64.2962C58.1851 64.2962 56.5192 63.7621 55.3748 62.6939C54.2303 61.613 53.658 60.0744 53.658 58.0779C53.658 56.0178 54.2494 54.4283 55.432 53.3092C56.6146 52.1902 58.3441 51.6306 60.6203 51.6306C61.3833 51.6306 62.07 51.6751 62.6804 51.7642C63.3035 51.8532 63.8884 51.9867 64.4352 52.1647V55.2357C63.8757 55.0196 63.2971 54.8733 62.6994 54.797C62.1018 54.7207 61.4914 54.6826 60.8683 54.6826C59.6856 54.6826 58.7955 54.9496 58.1978 55.4837C57.6129 56.0178 57.3204 56.8825 57.3204 58.0779C57.3204 59.1969 57.5747 60.0044 58.0834 60.5004C58.6047 60.9963 59.3677 61.2443 60.3723 61.2443C60.703 61.2443 61.0145 61.2252 61.307 61.187C61.5995 61.1362 61.8729 61.0726 62.1272 60.9963V59.2033H59.6856V56.9906H65.1219V63.1708C64.6514 63.4633 64.022 63.724 63.2335 63.9529C62.4578 64.1818 61.5041 64.2962 60.3723 64.2962Z" fill="white"/>
<path d="M477.52 152.493V148.9C479.134 148.554 482.169 147.732 481.779 146.486C481.25 144.802 477.557 145.249 477.557 145.249C477.557 145.249 482.398 144.701 481.713 142.69C481.23 141.277 478.876 140.994 477.52 140.95V140.493C480.805 139.922 481.805 137.922 481.236 136.494C480.664 135.065 477.52 135.35 477.52 135.35C477.52 135.35 473.52 151.636 473.52 152.065C473.52 152.493 475.806 157.921 477.52 157.636C479.236 157.349 482.805 155.064 481.386 153.065C479.966 151.065 477.52 152.493 477.52 152.493Z" fill="#F47355"/>
<path d="M456.565 170.696C456.555 171.156 456.926 171.535 457.387 171.535H476.031C477.067 171.535 477.913 170.708 477.938 169.672L478.358 123.371C478.367 122.455 477.913 121.598 477.151 121.09C476.993 120.984 476.801 120.936 476.61 120.956L458.245 122.86C457.831 122.903 457.514 123.247 457.507 123.663L456.565 170.696Z" fill="#33535F"/>
<path d="M474.028 125.333V167.153C474.028 167.623 473.648 168.004 473.178 168.004L460.054 167.835C459.584 167.835 459.204 167.453 459.204 166.984L459.628 126.348C459.628 125.915 459.957 125.549 460.388 125.503L473.086 124.487C473.589 124.432 474.028 124.827 474.028 125.333Z" fill="#8DBAE7"/>
<path d="M477.152 121.09C476.993 120.983 476.801 120.936 476.61 120.956L476.436 120.974L475.906 171.535H476.032C477.068 171.535 477.913 170.708 477.938 169.672L478.358 123.371C478.368 122.455 477.913 121.598 477.152 121.09Z" fill="#17282F"/>
<path d="M460.661 124.078C460.661 124.441 460.425 124.734 460.134 124.734C459.846 124.734 459.61 124.441 459.61 124.078C459.61 123.716 459.846 123.422 460.134 123.422C460.425 123.422 460.661 123.716 460.661 124.078Z" fill="#17282F"/>
<path d="M462.958 124.291C462.699 124.291 462.481 124.094 462.459 123.831C462.437 123.556 462.641 123.315 462.915 123.292L470.262 122.683C470.559 122.663 470.779 122.866 470.802 123.14C470.825 123.415 470.621 123.656 470.346 123.68L462.999 124.288L462.958 124.291Z" fill="#17282F"/>
<path d="M460.644 171.529C462.882 167.183 462.162 162.845 462.237 160.657C462.317 158.376 466.453 153.411 466.99 148.713C467.526 144.016 464.708 142.004 463.098 145.091C461.488 148.177 457.192 153.276 457.192 153.276V139.319C457.192 139.319 455.896 140.78 454.822 141.585C453.748 142.391 448.842 147.004 448.98 153.815C449.118 160.624 447.664 174.079 446.457 177.703C445.248 181.327 443.101 183.876 443.101 183.876L455.078 189.781C455.078 189.781 460.28 187.365 462.237 185.621C464.196 183.876 465.112 176.763 465.112 176.763L467.057 171.529H460.644Z" fill="#F8A58D"/>
<path d="M467.057 171.53H460.644L466.032 174.287L467.057 171.53Z" fill="#F47355"/>
<path d="M454.095 160.996C453.893 159.547 454.181 158.101 454.685 156.755C455.209 155.42 456.014 154.143 457.191 153.276C456.646 154.624 456.095 155.833 455.618 157.116C455.113 158.384 454.671 159.667 454.095 160.996Z" fill="#F47355"/>
<path d="M462.278 162.971C463.004 165.384 462.662 168.028 461.842 170.4C461.381 171.575 460.85 172.732 460.114 173.756C459.424 174.807 458.553 175.724 457.624 176.547C458.258 175.471 458.892 174.431 459.445 173.355C460.018 172.291 460.48 171.18 460.902 170.062C461.317 168.938 461.622 167.779 461.864 166.6C462.085 165.418 462.266 164.215 462.278 162.971Z" fill="#F47355"/>
<path d="M460.135 190.578L445.167 182.46C444.167 181.917 442.919 182.224 442.285 183.168L420.999 214.77C419.177 217.613 418.335 217.978 415.513 216.126L393.606 204.976C380.266 198.792 371.35 192.721 358.351 192.725L342.722 192.729C342.722 192.729 342.022 192.705 340.769 192.729C315.205 193.202 292.825 210.038 284.97 234.37L257.399 319.797H281.183L310.169 236.989L309.385 319.797H378.277V230.29L396.114 238.132C407.345 243.99 425.125 251.026 434.811 234.049C435.233 233.312 435.649 232.573 436.111 231.862L460.933 193.722C461.635 192.642 461.269 191.192 460.135 190.578Z" fill="#3563B7"/>
<path d="M322.174 168.485V197.243H322.215C322.654 208.211 331.659 216.975 342.737 216.975C353.811 216.975 362.817 208.211 363.255 197.243H363.298V168.485H322.174Z" fill="#F68260"/>
<path d="M294.318 136.827C294.318 136.827 285.733 127.585 285.733 102.965C285.733 78.3467 306.912 61.6373 326.369 60.048C345.826 58.46 349.002 50.916 353.37 54.4893C357.737 58.064 344.885 66.0053 344.885 66.0053C344.885 66.0053 381.564 52.1066 385.93 56.872C390.298 61.6373 371.636 68.3866 371.636 68.3866C371.636 68.3866 393.985 74.0893 397.957 86.0013C401.926 97.9133 391.49 98.3106 391.49 98.3106C391.49 98.3106 398.857 117.339 389.617 143.18C379.558 171.312 316.032 174.424 314.841 173.629C313.649 172.835 294.318 136.827 294.318 136.827Z" fill="#17282F"/>
<path d="M384.946 131.005L384.843 131.012C384.773 132.29 384.717 133.085 384.717 133.085L383.053 146.454C382.811 148.388 380.221 148.888 379.305 147.168C377.05 142.936 374.931 135.277 378.087 123.309C376.298 120.417 374.975 117.238 374.221 113.878L373.763 111.849C364.759 114.181 364.335 111.888 358.342 109.17L358.278 109.234C360.517 111.244 366.574 117.31 362.245 120.666C357.471 124.368 341.993 111.821 338.969 109.717C338.847 109.633 338.691 109.753 338.742 109.892C339.449 111.786 341.631 118.361 338.459 119.48C333.594 121.193 324.697 107.744 322.169 103.722C322.034 103.509 321.706 103.637 321.753 103.885C322.241 106.538 322.93 112.521 319.585 113.985C316.454 115.354 313.039 108.804 311.386 105.065C311.119 104.461 310.243 104.612 310.167 105.268C309.493 110.948 307.443 116.401 305.313 120.804C309.479 134.221 307.225 142.648 304.817 147.168C303.902 148.888 301.31 148.388 301.07 146.454L299.405 133.085C299.405 133.085 299.349 132.293 299.279 131.017C290.79 131.132 283.939 138.04 283.939 146.557C283.939 155.146 290.902 162.109 299.491 162.109C299.682 162.109 299.867 162.088 300.058 162.08C303.561 182.178 321.074 198.793 342.175 198.793C363.275 198.793 380.794 182.177 384.294 162.076C384.513 162.085 384.726 162.109 384.946 162.109C393.534 162.109 400.497 155.146 400.497 146.557C400.497 137.968 393.534 131.005 384.946 131.005Z" fill="#F8A58D"/>
<path d="M328.069 166.377C330.638 168.793 333.244 170.926 336.196 172.378C337.648 173.152 339.218 173.618 340.829 173.953C342.456 174.333 344.129 174.273 345.92 174.313C344.32 175.032 342.508 175.536 340.673 175.405C338.845 175.348 337.005 174.886 335.368 174.056C333.736 173.222 332.249 172.133 331.013 170.822C329.778 169.518 328.721 168.041 328.069 166.377Z" fill="#17282F"/>
<path d="M323.343 142.105C323.343 144.115 321.713 145.746 319.702 145.746C317.69 145.746 316.062 144.115 316.062 142.105C316.062 140.094 317.69 138.463 319.702 138.463C321.713 138.463 323.343 140.094 323.343 142.105Z" fill="#17282F"/>
<path d="M316.078 138.463C315.915 136.924 316.89 135.363 318.21 134.407C319.562 133.462 321.189 133.066 322.726 133.004C323.486 132.94 324.35 133.04 325.149 133.235C325.951 133.476 326.726 133.836 327.379 134.356C328.671 135.406 329.481 136.93 329.466 138.463C328.47 137.335 327.403 136.542 326.311 136.055C325.194 135.592 324.086 135.435 322.814 135.488C321.527 135.52 320.293 135.668 319.142 136.082C318.007 136.503 316.911 137.219 316.078 138.463Z" fill="#17282F"/>
<path d="M314.231 129.814C316.658 129.372 321.525 128.71 328.377 128.868C329.197 128.886 329.739 128.225 329.323 127.702C328.273 126.39 325.942 124.526 321.271 124.832C315.991 125.176 313.866 127.27 313.019 128.734C312.677 129.332 313.378 129.969 314.231 129.814Z" fill="#17282F"/>
<path d="M354.341 142.105C354.341 144.115 355.97 145.746 357.981 145.746C359.993 145.746 361.624 144.115 361.624 142.105C361.624 140.094 359.993 138.463 357.981 138.463C355.97 138.463 354.341 140.094 354.341 142.105Z" fill="#17282F"/>
<path d="M367.746 138.463C367.907 136.924 366.935 135.363 365.615 134.407C364.263 133.462 362.635 133.066 361.099 133.004C360.339 132.94 359.474 133.04 358.677 133.235C357.873 133.476 357.098 133.836 356.446 134.356C355.154 135.406 354.343 136.93 354.358 138.463C355.354 137.335 356.422 136.542 357.514 136.055C358.63 135.592 359.738 135.435 361.011 135.488C362.297 135.52 363.533 135.668 364.682 136.082C365.818 136.503 366.913 137.219 367.746 138.463Z" fill="#17282F"/>
<path d="M368.029 129.814C365.602 129.372 360.736 128.71 353.882 128.868C353.064 128.886 352.52 128.225 352.937 127.702C353.986 126.39 356.318 124.526 360.989 124.832C366.269 125.176 368.394 127.27 369.238 128.734C369.584 129.332 368.882 129.969 368.029 129.814Z" fill="#17282F"/>
<path d="M343.098 139.341C344.39 142.08 345.506 144.875 346.561 147.691C347.626 150.503 348.587 153.348 349.529 156.201L350.202 158.351C350.486 159.201 350.514 160.224 350.219 161.108C349.647 162.899 347.847 164.199 346.014 164.107C342.99 163.976 340.002 163.768 336.994 163.38C339.993 162.988 343.011 162.789 345.994 162.647C347.193 162.557 348.244 161.703 348.525 160.587C348.664 160.033 348.665 159.485 348.461 158.913L347.749 156.776C346.843 153.912 345.958 151.043 345.177 148.139C344.383 145.239 343.653 142.319 343.098 139.341Z" fill="#17282F"/>
<path d="M295.793 137.299C293.746 138.133 291.95 139.465 290.718 141.153C289.455 142.832 288.942 144.928 288.939 147.012C288.901 149.116 289.442 151.204 290.626 152.911C291.833 154.604 293.687 155.88 295.793 156.551C293.589 156.36 291.359 155.319 289.858 153.509C288.343 151.709 287.665 149.304 287.691 147.012C287.709 144.717 288.379 142.291 289.959 140.549C291.47 138.775 293.61 137.669 295.793 137.299Z" fill="#F47355"/>
<path d="M388.013 156.551C390.059 155.717 391.854 154.385 393.086 152.697C394.349 151.019 394.862 148.923 394.865 146.839C394.905 144.735 394.362 142.648 393.178 140.939C391.973 139.245 390.118 137.971 388.013 137.299C390.217 137.491 392.445 138.532 393.946 140.341C395.461 142.14 396.139 144.547 396.113 146.839C396.097 149.133 395.426 151.559 393.846 153.301C392.334 155.076 390.195 156.181 388.013 156.551Z" fill="#F47355"/>
<path d="M340.981 111.194C343.125 112.63 345.253 114.066 347.469 115.353C349.661 116.672 351.902 117.902 354.197 118.925C355.348 119.426 356.521 119.86 357.692 120.162C358.854 120.458 360.062 120.569 361.006 120.293C361.452 120.122 361.845 119.917 362.116 119.554C362.393 119.172 362.6 118.773 362.622 118.304C362.72 117.364 362.325 116.232 361.773 115.188C360.673 113.058 359.036 111.096 357.348 109.23C355.666 107.338 353.821 105.576 351.976 103.809C348.237 100.324 344.373 96.9382 340.43 93.6155C344.83 96.3102 349.05 99.3075 353.013 102.642C355.009 104.294 356.913 106.062 358.734 107.94C360.525 109.842 362.249 111.846 363.552 114.277C364.156 115.498 364.724 116.885 364.561 118.528C364.496 119.348 364.106 120.153 363.608 120.778C363.084 121.446 362.3 121.88 361.534 122.106C359.973 122.485 358.538 122.214 357.236 121.849C355.925 121.47 354.705 120.93 353.533 120.33C348.862 117.909 344.773 114.689 340.981 111.194Z" fill="#33535F"/>
<path d="M357.942 108.478C359.607 109.496 361.295 110.302 363.035 110.868C364.775 111.409 366.549 111.776 368.337 111.74C368.782 111.796 369.229 111.706 369.675 111.698C370.123 111.686 370.569 111.638 371.01 111.546C371.454 111.473 371.903 111.42 372.349 111.332C372.785 111.201 373.226 111.086 373.674 110.978C374.127 110.89 374.561 110.728 374.994 110.562L376.323 110.1C377.203 109.757 378.054 109.334 378.995 109.01C378.31 109.697 377.577 110.358 376.794 110.962C375.953 111.46 375.155 112.096 374.213 112.442C372.41 113.344 370.353 113.692 368.318 113.738C366.269 113.736 364.233 113.214 362.437 112.302C360.642 111.401 359.045 110.108 357.942 108.478Z" fill="#33535F"/>
<path d="M331.849 99.4854C333.322 100.639 334.586 101.999 335.736 103.448C336.896 104.892 337.896 106.461 338.768 108.117C339.594 109.793 340.313 111.567 340.592 113.484C340.741 114.433 340.768 115.424 340.592 116.393C340.404 117.352 339.998 118.303 339.3 118.941C339.938 117.172 339.578 115.467 339.07 113.829C338.532 112.193 337.8 110.596 336.988 109.027C335.386 105.861 333.513 102.808 331.849 99.4854Z" fill="#33535F"/>
<path d="M357.41 66.6647C359.005 66.4487 360.617 66.4687 362.226 66.4807C363.833 66.5674 365.439 66.7074 367.035 66.9327C370.23 67.3794 373.383 68.15 376.43 69.2247C379.463 70.3247 382.45 71.602 385.205 73.286C386.615 74.0687 387.929 75.006 389.257 75.9087C390.556 76.8567 391.778 77.9074 392.994 78.9434C390.255 77.2687 387.575 75.5647 384.715 74.186C381.897 72.7434 378.969 71.5327 375.992 70.4834C373.021 69.3994 369.953 68.6154 366.859 67.9394C363.758 67.2914 360.609 66.8354 357.41 66.6647Z" fill="#33535F"/>
<path d="M391.49 98.3114C389.222 99.2581 386.721 99.5207 384.274 99.5514C381.81 99.5767 379.365 99.2368 376.966 98.7314C374.573 98.1941 372.245 97.4167 370.005 96.4554C368.879 95.9861 367.804 95.4007 366.722 94.8541C365.67 94.2354 364.63 93.6034 363.633 92.9061C364.823 93.2047 365.962 93.5914 367.107 93.9514L370.537 94.9874C371.691 95.2767 372.805 95.6861 373.963 95.9354C375.102 96.2594 376.247 96.5367 377.402 96.7807C379.698 97.3034 382.017 97.7114 384.357 97.9994C386.702 98.2528 389.064 98.4421 391.49 98.3114Z" fill="#33535F"/>
<path d="M316.062 112.76C314.598 111.64 313.446 110.146 312.469 108.59C311.481 107.028 310.715 105.344 310.05 103.632C309.391 101.913 308.903 100.14 308.519 98.3491C308.334 97.4531 308.205 96.5451 308.067 95.6438C307.998 94.7264 307.887 93.8211 307.862 92.9064C308.447 94.6437 308.986 96.3678 309.526 98.0838C310.106 99.7878 310.634 101.498 311.295 103.158C311.918 104.832 312.606 106.48 313.377 108.09C314.175 109.682 314.978 111.29 316.062 112.76Z" fill="#33535F"/>
<path d="M417.45 357.971H263.411C258.474 357.971 254.329 354.253 253.793 349.345L245.242 271.212C244.617 265.484 249.102 260.481 254.863 260.481H425.998C431.759 260.481 436.245 265.484 435.619 271.212L427.07 349.345C426.533 354.253 422.387 357.971 417.45 357.971Z" fill="#33535F"/>
<path d="M435.273 267.42C434.097 263.448 430.43 260.483 425.998 260.483H254.864C250.432 260.483 246.765 263.448 245.589 267.42H435.273Z" fill="#17282F"/>
<path d="M348.834 313.646C348.834 318.287 345.07 322.049 340.43 322.049C335.79 322.049 332.027 318.287 332.027 313.646C332.027 309.006 335.79 305.243 340.43 305.243C345.07 305.243 348.834 309.006 348.834 313.646Z" fill="#DADBD8"/>
<path d="M328.069 48.873H241.936V0.00107713H328.069V48.873Z" fill="#5D87CD"/>
<path d="M297.901 23.7517C297.901 30.8744 292.126 36.6504 285.002 36.6504C277.878 36.6504 272.104 30.8744 272.104 23.7517C272.104 16.6277 277.878 10.8517 285.002 10.8517C292.126 10.8517 297.901 16.6277 297.901 23.7517Z" fill="#2252A6"/>
<path d="M282.681 20.984V27.0014C282.681 28.0534 283.888 28.6494 284.722 28.0094L288.721 24.9427C289.39 24.428 289.381 23.416 288.701 22.9147L284.704 19.9627C283.866 19.344 282.681 19.9414 282.681 20.984Z" fill="#EDEDEB"/>
<path d="M319.59 42.9824H247.88C247.333 42.9824 246.889 42.5398 246.889 41.9918C246.889 41.4451 247.333 41.0024 247.88 41.0024H319.59C320.137 41.0024 320.58 41.4451 320.58 41.9918C320.58 42.5398 320.137 42.9824 319.59 42.9824Z" fill="#2252A6"/>
<path d="M319.59 41.0024H269.609V42.9824H319.59C320.137 42.9824 320.58 42.5384 320.58 41.9918C320.58 41.4451 320.137 41.0024 319.59 41.0024Z" fill="#EDEDEB"/>
<path d="M269.502 41.0024H247.88C247.333 41.0024 246.889 41.4451 246.889 41.9918C246.889 42.5384 247.333 42.9824 247.88 42.9824H269.502V41.0024Z" fill="#2252A6"/>
<path d="M272.103 41.9904C272.103 43.353 270.998 44.457 269.635 44.457C268.274 44.457 267.169 43.353 267.169 41.9904C267.169 40.6277 268.274 39.5237 269.635 39.5237C270.998 39.5237 272.103 40.6277 272.103 41.9904Z" fill="#2252A6"/>
<path d="M270.81 41.9913C270.81 42.6407 270.285 43.166 269.635 43.166C268.987 43.166 268.461 42.6407 268.461 41.9913C268.461 41.3433 268.987 40.8167 269.635 40.8167C270.285 40.8167 270.81 41.3433 270.81 41.9913Z" fill="#7DA6DD"/>
<path d="M392.106 300.588V328.631C392.106 331.055 394.07 333.02 396.495 333.02H447.499C448.462 333.02 449.399 333.338 450.165 333.923L461.366 342.487C464.254 344.694 468.421 342.635 468.421 339V333.02V312.45V300.588C468.421 298.166 466.457 296.199 464.031 296.199H396.495C394.07 296.199 392.106 298.166 392.106 300.588Z" fill="#5D87CD"/>
<path d="M421.486 315.165C421.486 316.78 420.178 318.088 418.564 318.088C416.949 318.088 415.64 316.78 415.64 315.165C415.64 313.551 416.949 312.241 418.564 312.241C420.178 312.241 421.486 313.551 421.486 315.165Z" fill="#EDEDEB"/>
<path d="M434.185 315.165C434.185 316.78 432.877 318.088 431.262 318.088C429.647 318.088 428.339 316.78 428.339 315.165C428.339 313.551 429.647 312.241 431.262 312.241C432.877 312.241 434.185 313.551 434.185 315.165Z" fill="#EDEDEB"/>
<path d="M446.885 315.165C446.885 316.78 445.575 318.088 443.961 318.088C442.347 318.088 441.038 316.78 441.038 315.165C441.038 313.551 442.347 312.241 443.961 312.241C445.575 312.241 446.885 313.551 446.885 315.165Z" fill="#EDEDEB"/>
<path d="M497.752 79.469V108.58C497.752 110.709 496.025 112.434 493.897 112.434H436.065C435.218 112.434 434.396 112.713 433.724 113.228L421.518 122.558C418.982 124.497 415.322 122.688 415.322 119.496V112.434V91.8637V79.469C415.322 77.341 417.049 75.6144 419.178 75.6144H493.897C496.025 75.6144 497.752 77.341 497.752 79.469Z" fill="#5D87CD"/>
<path d="M437.834 93.8864C437.834 98.0677 434.445 101.457 430.264 101.457C426.082 101.457 422.693 98.0677 422.693 93.8864C422.693 89.7064 426.082 86.317 430.264 86.317C434.445 86.317 437.834 89.7064 437.834 93.8864Z" fill="#3061B6"/>
<path d="M446.147 91.4688L447.397 87.7887H449.411L448.419 91.4688H446.147ZM443.315 91.4688L444.565 87.7887H446.579L445.587 91.4688H443.315Z" fill="white"/>
<path d="M483.941 100.727L485.189 97.0452H487.205L486.213 100.727H483.941ZM481.109 100.727L482.357 97.0452H484.373L483.381 100.727H481.109Z" fill="white"/>
<path d="M489.9 90.793H450.813V89.049H489.9V90.793Z" fill="#2252A6"/>
<path d="M487.721 95.0332H443.315V93.2879H487.721V95.0332Z" fill="#2252A6"/>
<path d="M479.915 99.2715H443.315V97.5275H479.915V99.2715Z" fill="#2252A6"/>
<path d="M256.788 200.336H161.312V146.163H256.788V200.336Z" fill="#5D87CD"/>
<path d="M251.549 195.244H165.813V151.015H251.549V195.244Z" fill="#3061B6"/>
<path d="M165.813 195.244L190.107 162.636C192.749 159.091 198.05 159.064 200.729 162.581L218.559 186.007L228.383 176.767C231.266 174.057 235.863 174.449 238.246 177.607L251.549 195.244H165.813Z" fill="#2252A6"/>
<path d="M226.41 164.578C226.41 168.484 223.245 171.65 219.338 171.65C215.433 171.65 212.266 168.484 212.266 164.578C212.266 160.672 215.433 157.506 219.338 157.506C223.245 157.506 226.41 160.672 226.41 164.578Z" fill="white"/>
</svg>
