<svg width="2204" height="1784" viewBox="0 0 2204 1784" fill="none" xmlns="http://www.w3.org/2000/svg">
<path d="M2093.16 1293.62C2069.92 1293.62 2048.36 1286.42 2030.6 1274.12C2034.3 1270.5 2037.97 1266.77 2041.5 1263L2039.08 1260.72C2035.44 1264.6 2031.66 1268.44 2027.85 1272.14C2000.73 1252.12 1983.16 1219.93 1983.16 1183.64C1983.16 1122.89 2032.41 1073.64 2093.16 1073.64C2153.9 1073.64 2203.14 1122.89 2203.14 1183.64C2203.14 1244.38 2153.9 1293.62 2093.16 1293.62ZM2060.62 1235.49C2057.25 1239.84 2053.73 1244.16 2050.14 1248.36L2052.68 1250.52C2056.29 1246.28 2059.85 1241.92 2063.25 1237.53L2060.62 1235.49ZM2079.72 1208.36C2076.77 1213 2073.66 1217.64 2070.49 1222.14L2073.21 1224.06C2076.41 1219.52 2079.54 1214.82 2082.53 1210.14L2079.72 1208.36ZM2096.17 1179.53C2093.66 1184.45 2091.01 1189.36 2088.29 1194.13L2091.17 1195.8C2093.93 1190.97 2096.61 1186.01 2099.14 1181.04L2096.17 1179.53ZM2109.85 1149.26C2107.82 1154.37 2105.65 1159.52 2103.37 1164.56L2106.41 1165.93C2108.7 1160.84 2110.9 1155.65 2112.96 1150.49L2109.85 1149.26ZM2120.58 1117.85C2119.05 1123.14 2117.37 1128.46 2115.6 1133.66L2118.76 1134.74C2120.54 1129.49 2122.25 1124.12 2123.8 1118.78L2120.58 1117.85ZM2128.29 1085.61C2127.26 1091.02 2126.1 1096.48 2124.82 1101.82L2128.06 1102.6C2129.36 1097.2 2130.53 1091.69 2131.57 1086.22L2128.29 1085.61Z" fill="#F5F5FF"/>
<path d="M283.122 583.605C190.445 583.605 115.318 508.472 115.318 415.805C115.318 323.125 190.445 247.992 283.122 247.992C353.178 247.992 413.208 290.925 438.338 351.912H352.302C330.32 351.912 312.436 369.805 312.436 391.779V581.059C302.916 582.739 293.124 583.605 283.122 583.605Z" fill="#F5F5FF"/>
<path d="M863.557 254.494C828.38 254.494 795.215 233.134 781.865 198.321C764.564 153.214 787.107 102.628 832.214 85.321C842.517 81.3743 853.108 79.4941 863.521 79.4941C898.698 79.4941 931.865 100.868 945.214 135.668C962.514 180.788 939.973 231.374 894.864 248.668C884.563 252.628 873.969 254.494 863.557 254.494Z" fill="#F5F5FF"/>
<path d="M761.624 5.80025C756.314 4.54692 750.866 3.70697 745.431 3.3203L745.667 0.000249452C751.28 0.400249 756.906 1.25348 762.391 2.56015L761.624 5.80025ZM712.916 6.29348L712.083 3.06692C717.546 1.65358 723.154 0.680093 728.75 0.173427L729.054 3.49348C723.635 3.98681 718.206 4.93348 712.916 6.29348ZM791.8 18.2802C787.16 15.4135 782.252 12.9068 777.212 10.8268L778.487 7.74686C783.69 9.89353 788.758 12.4934 793.55 15.4401L791.8 18.2802ZM682.994 19.387L681.187 16.5734C685.906 13.5334 690.922 10.8536 696.095 8.58697L697.43 11.6401C692.419 13.8401 687.563 16.4403 682.994 19.387ZM816.49 39.6268C812.999 35.4535 809.136 31.5201 805.01 27.9601L807.19 25.4401C811.452 29.1201 815.442 33.1735 819.047 37.4935L816.49 39.6268ZM658.766 41.2536L656.163 39.1734C659.683 34.7734 663.584 30.6269 667.758 26.8669L669.991 29.3336C665.951 32.9869 662.174 37.0003 658.766 41.2536ZM833.119 67.7203C831.119 62.627 828.703 57.6803 825.939 53.0003L828.807 51.3068C831.663 56.1334 834.156 61.2534 836.222 66.5068L833.119 67.7203ZM642.704 69.6802L639.578 68.5336C641.53 63.2536 643.924 58.0936 646.692 53.187L649.595 54.8268C646.914 59.5735 644.595 64.5735 642.704 69.6802ZM838.055 84.2135C836.942 78.9069 835.383 73.6134 833.422 68.5068L836.534 67.3068C838.559 72.5868 840.168 78.0536 841.318 83.5336L838.055 84.2135ZM636.419 101.734L633.087 101.627C633.268 96.0002 633.912 90.3469 634.999 84.8135L638.27 85.4536C637.218 90.8136 636.595 96.2803 636.419 101.734ZM842.819 117.227L839.51 116.84C839.972 112.907 840.207 108.92 840.207 104.973C840.207 103.48 840.174 101.96 840.107 100.467L843.436 100.32C843.506 101.854 843.54 103.427 843.54 104.973C843.54 109.053 843.298 113.173 842.819 117.227ZM637.446 135.067C635.826 129.654 634.636 124.094 633.91 118.52L637.215 118.093C637.919 123.493 639.07 128.88 640.638 134.107L637.446 135.067ZM833.563 149.654L830.544 148.24C832.86 143.294 834.792 138.133 836.288 132.893L839.494 133.814C837.95 139.227 835.954 144.547 833.563 149.654ZM652.116 165.427C648.894 160.827 646.016 155.92 643.564 150.84L646.567 149.387C648.94 154.307 651.726 159.054 654.847 163.52L652.116 165.427ZM814.568 177.507L812.15 175.214C815.898 171.267 819.358 166.974 822.432 162.467L825.186 164.347C822.011 169 818.438 173.427 814.568 177.507ZM675.656 189.56C671.126 186.213 666.836 182.48 662.91 178.454L665.296 176.12C669.098 180.027 673.251 183.64 677.639 186.88L675.656 189.56ZM787.712 197.893L786.151 194.96C790.976 192.4 795.619 189.427 799.952 186.134L801.967 188.8C797.492 192.187 792.696 195.253 787.712 197.893ZM705.622 205.027C700.271 203.267 695.022 201.08 690.018 198.493L691.547 195.534C696.392 198.027 701.476 200.16 706.658 201.854L705.622 205.027ZM755.792 208.774L755.235 205.48C760.591 204.574 765.932 203.227 771.111 201.454L772.187 204.614C766.839 206.427 761.323 207.827 755.792 208.774ZM738.302 210.24C732.892 210.24 727.43 209.814 722.068 208.974L722.586 205.68C727.775 206.494 733.066 206.907 738.307 206.907H738.918L738.938 210.24H738.302Z" fill="#9192FF"/>
<path d="M1796.76 667.65C1791.92 667.463 1787 667.356 1782.16 667.356C1781.49 667.356 1780.84 667.356 1780.17 667.356L1780.16 664.023C1780.82 664.023 1781.5 664.023 1782.16 664.023C1787.05 664.023 1792.01 664.13 1796.89 664.33L1796.76 667.65ZM1747.06 669.09L1746.73 665.77C1752.25 665.223 1757.86 664.796 1763.42 664.503L1763.6 667.836C1758.09 668.13 1752.53 668.543 1747.06 669.09ZM1829.78 670.556C1824.33 669.81 1818.78 669.196 1813.3 668.716L1813.6 665.396C1819.13 665.876 1824.73 666.503 1830.22 667.25L1829.78 670.556ZM1714.26 673.89L1713.62 670.623C1719.08 669.556 1724.62 668.61 1730.12 667.81L1730.61 671.103C1725.16 671.903 1719.66 672.836 1714.26 673.89ZM1862.38 676.53C1857.04 675.29 1851.57 674.156 1846.16 673.156L1846.76 669.876C1852.22 670.876 1857.74 672.023 1863.14 673.29L1862.38 676.53ZM1682.06 681.783L1681.12 678.583C1686.44 677.01 1691.86 675.543 1697.28 674.223L1698.06 677.45C1692.72 678.77 1687.33 680.223 1682.06 681.783ZM1894.29 685.583C1889.06 683.823 1883.73 682.183 1878.45 680.676L1879.36 677.476C1884.69 678.983 1890.08 680.65 1895.34 682.423L1894.29 685.583ZM1650.74 692.676L1649.5 689.583C1654.66 687.516 1659.94 685.53 1665.18 683.703L1666.28 686.863C1661.09 688.663 1655.86 690.623 1650.74 692.676ZM1925.25 697.623C1920.21 695.383 1915.05 693.236 1909.92 691.236L1911.12 688.13C1916.3 690.156 1921.52 692.316 1926.6 694.583L1925.25 697.623ZM1620.68 706.463L1619.14 703.503C1624.06 700.956 1629.12 698.503 1634.16 696.183L1635.54 699.21C1630.56 701.503 1625.54 703.943 1620.68 706.463ZM1954.92 712.556C1950.12 709.85 1945.18 707.223 1940.26 704.743L1941.76 701.77C1946.73 704.263 1951.7 706.916 1956.56 709.65L1954.92 712.556ZM1592.01 723.023L1590.2 720.223C1594.88 717.223 1599.68 714.29 1604.48 711.516L1606.14 714.41C1601.38 717.156 1596.64 720.063 1592.01 723.023ZM1983.02 730.196C1978.5 727.05 1973.84 723.97 1969.18 721.05L1970.96 718.223C1975.65 721.17 1980.36 724.276 1984.93 727.463L1983.02 730.196ZM1565 742.223L1562.94 739.596C1567.32 736.17 1571.82 732.81 1576.34 729.596L1578.28 732.303C1573.8 735.49 1569.33 738.836 1565 742.223ZM2009.34 750.396C2005.16 746.85 2000.81 743.343 1996.42 739.983L1998.45 737.343C2002.88 740.73 2007.26 744.263 2011.5 747.85L2009.34 750.396ZM1539.9 763.863L1537.61 761.45C1541.64 757.623 1545.82 753.85 1550.02 750.223L1552.2 752.756C1548.04 756.343 1543.9 760.076 1539.9 763.863ZM2033.65 772.956C2029.8 769.023 2025.8 765.13 2021.77 761.383L2024.04 758.943C2028.1 762.716 2032.13 766.65 2036.04 770.623L2033.65 772.956ZM1516.92 787.77L1514.41 785.583C1518.08 781.396 1521.88 777.236 1525.73 773.236L1528.13 775.556C1524.32 779.516 1520.54 783.623 1516.92 787.77ZM2055.73 797.676C2052.26 793.41 2048.65 789.156 2044.98 785.05L2047.48 782.836C2051.17 786.983 2054.82 791.263 2058.32 795.57L2055.73 797.676ZM1496.26 813.73L1493.57 811.783C1496.81 807.29 1500.22 802.796 1503.68 798.436L1506.29 800.516C1502.86 804.823 1499.49 809.276 1496.26 813.73ZM2075.4 824.343C2072.34 819.77 2069.14 815.21 2065.88 810.783L2068.56 808.796C2071.86 813.276 2075.09 817.876 2078.17 822.49L2075.4 824.343ZM1478.13 841.53L1475.26 839.85C1478.08 835.05 1481.05 830.263 1484.09 825.596L1486.88 827.423C1483.86 832.036 1480.92 836.783 1478.13 841.53ZM2092.46 852.716C2089.86 847.89 2087.1 843.05 2084.26 838.33L2087.13 836.61C2090 841.383 2092.78 846.263 2095.4 851.13L2092.46 852.716ZM1462.69 870.93L1459.68 869.516C1462.02 864.49 1464.53 859.436 1467.12 854.49L1470.06 856.05C1467.5 860.943 1465.02 865.943 1462.69 870.93ZM2106.78 882.556C2104.65 877.503 2102.36 872.436 2099.97 867.463L2102.98 866.023C2105.38 871.036 2107.69 876.156 2109.85 881.25L2106.78 882.556ZM1450.09 901.663L1446.96 900.556C1448.82 895.303 1450.84 890.036 1452.94 884.89L1456.02 886.143C1453.94 891.25 1451.94 896.463 1450.09 901.663ZM2118.22 913.623C2116.56 908.37 2114.76 903.09 2112.86 897.93L2115.98 896.783C2117.9 901.983 2119.73 907.316 2121.4 912.623L2118.22 913.623ZM1440.48 933.436L1437.25 932.623C1438.6 927.236 1440.1 921.81 1441.72 916.49L1444.9 917.463C1443.32 922.73 1441.82 928.103 1440.48 933.436ZM2126.68 945.676C2125.53 940.303 2124.24 934.89 2122.82 929.556L2126.05 928.703C2127.46 934.09 2128.77 939.556 2129.93 944.983L2126.68 945.676ZM1433.92 965.943L1430.62 965.436C1431.46 959.943 1432.45 954.396 1433.54 948.956L1436.82 949.61C1435.73 954.996 1434.76 960.49 1433.92 965.943ZM2132.06 978.396C2131.42 972.93 2130.65 967.41 2129.76 961.97L2133.05 961.436C2133.94 966.916 2134.73 972.503 2135.37 978.01L2132.06 978.396ZM1430.45 998.903L1427.13 998.716C1427.45 993.156 1427.9 987.543 1428.49 982.036L1431.8 982.383C1431.22 987.836 1430.77 993.396 1430.45 998.903ZM2134.36 1011.46C2134.24 1005.96 2133.98 1000.38 2133.6 994.903L2136.92 994.663C2137.3 1000.2 2137.57 1005.82 2137.69 1011.38L2134.36 1011.46ZM1426.74 1032.18C1426.6 1028.05 1426.52 1023.84 1426.52 1019.66C1426.52 1018.25 1426.53 1016.85 1426.54 1015.44L1429.88 1015.48C1429.86 1016.88 1429.85 1018.26 1429.85 1019.66C1429.85 1023.8 1429.93 1027.97 1430.06 1032.06L1426.74 1032.18ZM2137.4 1036.38L2134.08 1036.24C2134.33 1030.76 2134.45 1025.18 2134.45 1019.66H2137.78C2137.78 1025.24 2137.66 1030.86 2137.4 1036.38ZM1429.45 1065.54C1428.74 1060.05 1428.16 1054.45 1427.7 1048.89L1431.02 1048.62C1431.48 1054.12 1432.05 1059.68 1432.76 1065.12L1429.45 1065.54ZM2134.29 1069.72L2131 1069.25C2131.76 1063.81 2132.41 1058.28 2132.92 1052.77L2136.24 1053.09C2135.72 1058.64 2135.06 1064.22 2134.29 1069.72ZM1435.29 1098.49C1434.06 1093.09 1432.96 1087.57 1431.98 1082.08L1435.26 1081.5C1436.22 1086.94 1437.33 1092.41 1438.54 1097.76L1435.29 1098.49ZM2128.06 1102.6L2124.82 1101.82C2126.1 1096.48 2127.26 1091.02 2128.29 1085.61L2131.57 1086.22C2130.53 1091.69 2129.36 1097.2 2128.06 1102.6ZM1444.21 1130.74C1442.48 1125.46 1440.85 1120.06 1439.37 1114.73L1442.58 1113.84C1444.05 1119.13 1445.66 1124.46 1447.38 1129.7L1444.21 1130.74ZM2118.76 1134.74L2115.6 1133.66C2117.37 1128.46 2119.05 1123.14 2120.58 1117.85L2123.8 1118.78C2122.25 1124.12 2120.54 1129.49 2118.76 1134.74ZM1456.14 1161.98C1453.92 1156.89 1451.8 1151.69 1449.81 1146.52L1452.93 1145.33C1454.89 1150.45 1457 1155.61 1459.2 1160.64L1456.14 1161.98ZM2106.41 1165.93L2103.37 1164.56C2105.65 1159.52 2107.82 1154.37 2109.85 1149.26L2112.96 1150.49C2110.9 1155.65 2108.7 1160.84 2106.41 1165.93ZM1470.96 1191.92C1468.26 1187.06 1465.65 1182.09 1463.2 1177.12L1466.18 1175.65C1468.61 1180.57 1471.2 1185.5 1473.86 1190.3L1470.96 1191.92ZM2091.17 1195.8L2088.29 1194.13C2091.01 1189.36 2093.66 1184.45 2096.17 1179.53L2099.14 1181.04C2096.61 1186.01 2093.93 1190.97 2091.17 1195.8ZM1488.53 1220.36C1485.4 1215.78 1482.33 1211.08 1479.41 1206.34L1482.24 1204.6C1485.13 1209.28 1488.17 1213.94 1491.28 1218.48L1488.53 1220.36ZM2073.21 1224.06L2070.49 1222.14C2073.66 1217.64 2076.77 1213 2079.72 1208.36L2082.53 1210.14C2079.54 1214.82 2076.41 1219.52 2073.21 1224.06ZM1508.69 1247.04C1505.14 1242.77 1501.64 1238.36 1498.29 1233.94L1500.96 1231.93C1504.26 1236.3 1507.73 1240.68 1511.26 1244.9L1508.69 1247.04ZM2052.68 1250.52L2050.14 1248.36C2053.73 1244.16 2057.25 1239.84 2060.62 1235.49L2063.25 1237.53C2059.85 1241.92 2056.29 1246.28 2052.68 1250.52ZM1531.28 1271.73C1527.34 1267.8 1523.44 1263.73 1519.7 1259.65L1522.16 1257.4C1525.86 1261.45 1529.73 1265.48 1533.64 1269.37L1531.28 1271.73ZM2029.77 1274.93L2027.45 1272.53C2031.4 1268.7 2035.3 1264.73 2039.08 1260.72L2041.5 1263C2037.7 1267.05 2033.76 1271.06 2029.77 1274.93ZM1556.09 1294.21C1551.8 1290.66 1547.53 1286.98 1543.42 1283.25L1545.66 1280.78C1549.73 1284.48 1553.96 1288.13 1558.21 1291.64L1556.09 1294.21ZM2004.69 1297.08L2002.61 1294.48C2006.89 1291.04 2011.16 1287.44 2015.28 1283.8L2017.49 1286.29C2013.32 1289.97 2009.01 1293.6 2004.69 1297.08ZM1582.9 1314.28C1578.32 1311.17 1573.72 1307.89 1569.26 1304.56L1571.26 1301.89C1575.68 1305.2 1580.22 1308.44 1584.77 1311.52L1582.9 1314.28ZM1977.66 1316.78L1975.82 1314C1980.44 1310.96 1985.01 1307.78 1989.44 1304.56L1991.41 1307.25C1986.93 1310.5 1982.32 1313.72 1977.66 1316.78ZM1611.49 1331.74C1606.62 1329.08 1601.74 1326.25 1597 1323.34L1598.73 1320.5C1603.44 1323.38 1608.28 1326.18 1613.1 1328.82L1611.49 1331.74ZM1948.92 1333.85L1947.36 1330.9C1952.21 1328.32 1957.06 1325.6 1961.78 1322.78L1963.49 1325.65C1958.72 1328.49 1953.82 1331.24 1948.92 1333.85ZM1641.62 1346.45C1636.5 1344.25 1631.38 1341.89 1626.38 1339.45L1627.85 1336.46C1632.8 1338.88 1637.88 1341.21 1642.94 1343.38L1641.62 1346.45ZM1918.73 1348.12L1917.45 1345.04C1922.5 1342.94 1927.58 1340.68 1932.57 1338.33L1934 1341.34C1928.97 1343.72 1923.82 1346 1918.73 1348.12ZM1673.04 1358.24C1667.74 1356.53 1662.41 1354.68 1657.18 1352.72L1658.36 1349.6C1663.53 1351.53 1668.82 1353.37 1674.05 1355.06L1673.04 1358.24ZM1887.29 1359.49L1886.3 1356.3C1891.57 1354.68 1896.86 1352.9 1902.02 1351.04L1903.17 1354.17C1897.94 1356.06 1892.61 1357.85 1887.29 1359.49ZM1705.34 1366.97C1699.92 1365.78 1694.44 1364.44 1689.08 1362.98L1689.96 1359.77C1695.26 1361.21 1700.68 1362.53 1706.05 1363.72L1705.34 1366.97ZM1854.89 1367.85L1854.21 1364.58C1859.61 1363.46 1865.04 1362.2 1870.36 1360.82L1871.18 1364.05C1865.82 1365.44 1860.34 1366.72 1854.89 1367.85ZM1738.33 1372.61C1732.82 1371.94 1727.25 1371.12 1721.77 1370.18L1722.33 1366.9C1727.77 1367.82 1733.28 1368.64 1738.73 1369.3L1738.33 1372.61ZM1821.84 1373.1L1821.46 1369.8C1826.94 1369.18 1832.46 1368.44 1837.9 1367.57L1838.42 1370.86C1832.94 1371.73 1827.36 1372.49 1821.84 1373.1ZM1771.69 1375.14C1766.14 1374.98 1760.52 1374.69 1754.98 1374.26L1755.24 1370.94C1760.72 1371.36 1766.29 1371.65 1771.8 1371.81L1771.69 1375.14ZM1788.44 1375.24L1788.38 1371.9C1793.9 1371.81 1799.48 1371.58 1804.94 1371.24L1805.16 1374.56C1799.64 1374.92 1794.01 1375.14 1788.44 1375.24Z" fill="#9192FF"/>
<path d="M361.307 521.248C355.847 520.768 350.291 520.461 344.792 520.368L344.85 517.035C350.427 517.141 356.063 517.435 361.6 517.928L361.307 521.248ZM311.78 522.128L311.367 518.821C316.882 518.141 322.503 517.635 328.075 517.341L328.252 520.661C322.759 520.968 317.218 521.448 311.78 522.128ZM393.938 526.501C388.596 525.248 383.139 524.168 377.718 523.288L378.247 519.995C383.747 520.888 389.284 521.981 394.704 523.261L393.938 526.501ZM279.363 528.581L278.479 525.368C283.844 523.888 289.336 522.595 294.806 521.501L295.456 524.768C290.066 525.848 284.651 527.128 279.363 528.581ZM425.495 536.408C420.384 534.381 415.132 532.528 409.886 530.888L410.883 527.701C416.207 529.368 421.535 531.261 426.72 533.301L425.495 536.408ZM248.228 539.608L246.891 536.568C251.987 534.328 257.228 532.261 262.474 530.395L263.587 533.541C258.418 535.368 253.25 537.408 248.228 539.608ZM455.31 550.755C450.542 548.021 445.612 545.421 440.663 543.048L442.108 540.035C447.13 542.461 452.13 545.088 456.967 547.861L455.31 550.755ZM219.002 555.008L217.24 552.168C221.968 549.235 226.863 546.421 231.787 543.835L233.34 546.781C228.487 549.341 223.662 552.101 219.002 555.008ZM482.754 569.208C478.424 565.821 473.919 562.555 469.363 559.488L471.223 556.728C475.844 559.835 480.415 563.155 484.807 566.581L482.754 569.208ZM192.256 574.408L190.111 571.861C194.371 568.275 198.816 564.808 203.326 561.528L205.284 564.235C200.839 567.448 196.456 570.888 192.256 574.408ZM507.284 591.381C503.483 587.421 499.488 583.541 495.415 579.861L497.651 577.381C501.783 581.128 505.834 585.061 509.69 589.075L507.284 591.381ZM168.532 597.435L166.047 595.221C169.758 591.061 173.666 586.995 177.663 583.115L179.986 585.501C176.044 589.328 172.191 593.341 168.532 597.435ZM528.411 616.808C525.211 612.341 521.81 607.941 518.302 603.715L520.866 601.595C524.424 605.875 527.875 610.341 531.119 614.861L528.411 616.808ZM148.318 623.608L145.54 621.768C148.622 617.128 151.912 612.541 155.32 608.128L157.959 610.168C154.598 614.515 151.354 619.035 148.318 623.608ZM545.691 644.968C543.162 640.088 540.426 635.248 537.555 630.581L540.396 628.835C543.307 633.581 546.084 638.488 548.65 643.435L545.691 644.968ZM132.039 652.408L129.027 650.981C131.412 645.955 134.014 640.928 136.759 636.075L139.662 637.715C136.955 642.501 134.39 647.448 132.039 652.408ZM558.755 675.288C556.954 670.115 554.939 664.928 552.77 659.888L555.831 658.568C558.032 663.688 560.075 668.941 561.903 674.195L558.755 675.288ZM120.06 683.261L116.874 682.275C118.512 676.941 120.367 671.608 122.384 666.408L125.491 667.621C123.503 672.741 121.675 678.008 120.06 683.261ZM567.33 707.208C566.292 701.821 565.043 696.395 563.619 691.088L566.838 690.235C568.283 695.608 569.55 701.115 570.603 706.581L567.33 707.208ZM112.658 715.475L109.363 714.968C110.218 709.448 111.283 703.915 112.53 698.488L115.778 699.235C114.55 704.581 113.5 710.048 112.658 715.475ZM571.243 740.035C570.982 734.528 570.522 728.981 569.874 723.541L573.183 723.155C573.84 728.675 574.308 734.288 574.572 739.875L571.243 740.035ZM109.935 748.408L106.602 748.368C106.667 742.795 106.931 737.155 107.388 731.621L110.71 731.888C110.259 737.355 109.999 742.915 109.935 748.408ZM574.247 767.888L570.922 767.661C571.308 762.195 571.504 756.635 571.504 751.128H574.838C574.838 756.701 574.639 762.341 574.247 767.888ZM108.584 781.848C107.862 776.328 107.328 770.715 106.999 765.141L110.327 764.955C110.651 770.435 111.176 775.981 111.888 781.408L108.584 781.848ZM569.496 801.088L566.238 800.381C567.403 795.021 568.39 789.541 569.167 784.101L572.467 784.568C571.678 790.088 570.678 795.648 569.496 801.088ZM115.319 814.701C113.81 809.328 112.478 803.848 111.359 798.395L114.626 797.728C115.727 803.101 117.039 808.501 118.527 813.795L115.319 814.701ZM560.03 833.248L556.908 832.088C558.835 826.941 560.598 821.661 562.147 816.395L565.344 817.341C563.772 822.675 561.984 828.035 560.03 833.248ZM126.703 846.221C124.439 841.128 122.334 835.901 120.446 830.675L123.58 829.541C125.442 834.688 127.516 839.848 129.748 844.861L126.703 846.221ZM546.016 863.755L543.096 862.155C545.746 857.328 548.251 852.355 550.543 847.368L553.572 848.755C551.247 853.821 548.706 858.875 546.016 863.755ZM142.488 875.768C139.52 871.061 136.686 866.181 134.064 861.275L137.004 859.701C139.588 864.541 142.383 869.355 145.31 873.995L142.488 875.768ZM527.788 891.928L525.126 889.915C528.435 885.528 531.626 880.968 534.608 876.355L537.406 878.168C534.38 882.848 531.144 887.475 527.788 891.928ZM162.34 902.781C158.727 898.541 155.226 894.115 151.931 889.635L154.618 887.661C157.864 892.075 161.318 896.448 164.879 900.635L162.34 902.781ZM505.74 917.208L503.391 914.835C507.287 910.968 511.094 906.901 514.703 902.768L517.214 904.955C513.554 909.155 509.692 913.275 505.74 917.208ZM185.839 926.715C181.666 923.035 177.57 919.141 173.662 915.168L176.04 912.835C179.892 916.755 183.931 920.581 188.044 924.221L185.839 926.715ZM480.334 939.088L478.344 936.408C482.75 933.128 487.092 929.648 491.251 926.075L493.427 928.595C489.208 932.235 484.803 935.755 480.334 939.088ZM212.507 947.061C207.85 944.008 203.24 940.741 198.808 937.368L200.83 934.715C205.2 938.048 209.744 941.261 214.335 944.275L212.507 947.061ZM452.082 957.115L450.495 954.195C455.314 951.581 460.104 948.755 464.736 945.795L466.53 948.608C461.832 951.608 456.971 954.475 452.082 957.115ZM241.82 963.408C236.772 961.048 231.742 958.475 226.868 955.768L228.492 952.848C233.295 955.528 238.254 958.061 243.23 960.381L241.82 963.408ZM421.558 970.915L420.406 967.795C425.548 965.901 430.692 963.795 435.692 961.528L437.067 964.568C431.992 966.861 426.775 969.008 421.558 970.915ZM273.191 975.368C267.848 973.768 262.498 971.941 257.287 969.955L258.475 966.835C263.611 968.795 268.884 970.595 274.151 972.181L273.191 975.368ZM389.332 980.195L388.644 976.941C394.014 975.808 399.411 974.461 404.69 972.941L405.612 976.141C400.256 977.688 394.779 979.048 389.332 980.195ZM305.916 982.688C300.394 981.861 294.844 980.835 289.422 979.621L290.15 976.368C295.494 977.568 300.964 978.581 306.407 979.395L305.916 982.688ZM356.115 984.755L355.899 981.435C361.375 981.075 366.911 980.515 372.352 979.768L372.804 983.075C367.286 983.835 361.671 984.395 356.115 984.755ZM339.344 985.248C333.75 985.221 328.111 984.981 322.584 984.568L322.84 981.235C328.288 981.661 333.847 981.888 339.363 981.915L339.344 985.248Z" fill="#9192FF"/>
<path d="M1278.2 79.8805C1248.56 79.8805 1224.45 103.987 1224.45 133.627C1224.45 163.254 1248.56 187.374 1278.2 187.374C1307.84 187.374 1331.94 163.254 1331.94 133.627C1331.94 103.987 1307.84 79.8805 1278.2 79.8805ZM1278.2 189.867C1247.18 189.867 1221.94 164.64 1221.94 133.627C1221.94 102.614 1247.18 77.3737 1278.2 77.3737C1309.21 77.3737 1334.44 102.614 1334.44 133.627C1334.44 164.64 1309.21 189.867 1278.2 189.867Z" fill="#9192FF"/>
<path d="M352.302 355.304C332.158 355.304 315.769 371.704 315.769 391.837V1405.41C315.769 1425.56 332.158 1441.94 352.302 1441.94H1825.24C1845.36 1441.94 1861.74 1425.56 1861.74 1405.41V391.837C1861.74 371.704 1845.36 355.304 1825.24 355.304H352.302ZM1825.24 1445.28H352.302C330.32 1445.28 312.436 1427.4 312.436 1405.41V391.837C312.436 369.864 330.32 351.971 352.302 351.971H1825.24C1847.2 351.971 1865.06 369.864 1865.06 391.837V1405.41C1865.06 1427.4 1847.2 1445.28 1825.24 1445.28Z" fill="#9192FF"/>
<path d="M315.769 450.247H1861.74V391.78C1861.74 371.647 1845.36 355.247 1825.24 355.247H352.302C332.157 355.247 315.769 371.647 315.769 391.78V450.247ZM1865.08 453.58H312.436V391.78C312.436 369.807 330.32 351.913 352.302 351.913H1825.24C1847.2 351.913 1865.08 369.807 1865.08 391.78V453.58Z" fill="#9192FF"/>
<path d="M417.903 402.752C417.903 412.565 409.944 420.525 400.125 420.525C390.307 420.525 382.347 412.565 382.347 402.752C382.347 392.939 390.307 384.979 400.125 384.979C409.944 384.979 417.903 392.939 417.903 402.752Z" fill="#3335CF"/>
<path d="M467.903 384.979C458.099 384.979 450.124 392.952 450.124 402.752C450.124 412.552 458.099 420.525 467.903 420.525C477.707 420.525 485.681 412.552 485.681 402.752C485.681 392.952 477.707 384.979 467.903 384.979Z" fill="#3335CF"/>
<path d="M535.68 388.312C527.716 388.312 521.236 394.792 521.236 402.752C521.236 410.712 527.716 417.192 535.68 417.192C543.645 417.192 550.125 410.712 550.125 402.752C550.125 394.792 543.645 388.312 535.68 388.312ZM535.68 420.525C525.877 420.525 517.902 412.552 517.902 402.752C517.902 392.952 525.877 384.979 535.68 384.979C545.484 384.979 553.458 392.952 553.458 402.752C553.458 412.552 545.484 420.525 535.68 420.525Z" fill="#9192FF"/>
<path d="M642.694 386.299C633.62 386.299 626.236 393.672 626.236 402.752C626.236 411.832 633.62 419.206 642.694 419.206H973.11C982.185 419.206 989.569 411.832 989.569 402.752C989.569 393.672 982.185 386.299 973.11 386.299H642.694ZM973.11 422.539H642.694C631.781 422.539 622.902 413.659 622.902 402.752C622.902 391.832 631.781 382.966 642.694 382.966H973.11C984.024 382.966 992.902 391.832 992.902 402.752C992.902 413.659 984.024 422.539 973.11 422.539Z" fill="#9192FF"/>
<path d="M1393.29 923.637C1393.29 1083.24 1263.93 1212.64 1104.33 1212.64C944.725 1212.64 815.325 1083.24 815.325 923.637C815.325 773.903 929.224 650.77 1075.09 636.103L1084.73 730.943C986.992 740.77 910.692 823.303 910.692 923.637C910.692 1030.61 997.392 1117.3 1104.33 1117.3C1211.26 1117.3 1297.93 1030.61 1297.93 923.637C1297.93 904.97 1295.29 886.943 1290.36 869.877L1382 843.41C1389.36 868.877 1393.29 895.81 1393.29 923.637Z" fill="#9192FF"/>
<path d="M1337.65 923.637C1337.65 1052.5 1233.18 1156.97 1104.32 1156.97C975.449 1156.97 870.982 1052.5 870.982 923.637C870.982 794.771 975.449 690.304 1104.32 690.304C1233.18 690.304 1337.65 794.771 1337.65 923.637Z" fill="white"/>
<path d="M1104.32 1156.97C975.449 1156.97 870.982 1052.5 870.982 923.637C870.982 794.771 975.449 690.304 1104.32 690.304C1233.18 690.304 1337.65 794.771 1337.65 923.637C1337.65 1052.5 1233.18 1156.97 1104.32 1156.97Z" fill="#E8E8FF"/>
<path d="M1269.58 923.637C1269.58 1014.94 1195.6 1088.96 1104.32 1088.96C1013.04 1088.96 939.045 1014.94 939.045 923.637C939.045 832.344 1013.04 758.317 1104.32 758.317C1195.6 758.317 1269.58 832.344 1269.58 923.637Z" fill="white"/>
<path d="M1123.18 1004.93V1030.06H1091.25V1006.06C1068.62 1004.72 1046.66 998.584 1033.08 990.224L1050.27 951.264C1065.22 960.104 1085.13 965.758 1102.57 965.758C1117.74 965.758 1123.18 962.584 1123.18 957.144C1123.18 937.224 1035.57 953.304 1035.57 894.198C1035.57 868.611 1054.13 847.104 1091.25 841.891V817.211H1123.18V841.438C1139.92 843.024 1156.24 847.331 1169.13 854.584L1153.06 893.304C1137.42 885.371 1122.72 881.531 1108.92 881.531C1093.28 881.531 1088.3 886.051 1088.3 891.478C1088.3 910.504 1175.92 894.651 1175.92 953.078C1175.92 977.531 1158.26 998.824 1123.18 1004.93Z" fill="#9192FF"/>
<path d="M1506.04 538.606H2131.38V157.526H1506.04V538.606ZM2134.72 541.939H1502.7V154.193H2134.72V541.939Z" fill="#9192FF"/>
<path d="M1619.7 484.365H1583.52V417.912H1619.7V484.365Z" fill="#D1D1FF"/>
<path d="M1692.08 484.365H1655.89V387.552H1692.08V484.365Z" fill="#D1D1FF"/>
<path d="M1764.44 484.365H1728.25V412.365H1764.44V484.365Z" fill="#D1D1FF"/>
<path d="M1836.81 484.365H1800.62V361.712H1836.81V484.365Z" fill="#D1D1FF"/>
<path d="M1909.17 484.365H1873V329.312H1909.17V484.365Z" fill="#D1D1FF"/>
<path d="M1981.54 484.365H1945.36V283.032H1981.54V484.365Z" fill="#D1D1FF"/>
<path d="M2053.92 484.365H2017.73V211.779H2053.92V484.365Z" fill="#D1D1FF"/>
<path d="M1612.28 276.686H1583.52V244.126H1612.28V276.686Z" fill="#D1D1FF"/>
<path d="M1851.46 267.525H1656.72V259.192H1851.46V267.525Z" fill="#D1D1FF"/>
<path d="M1567.36 735.18L1527.54 625.194C1482.56 641.474 1450.41 684.567 1450.41 735.18C1450.41 799.767 1502.77 852.127 1567.36 852.127C1631.96 852.127 1684.3 799.767 1684.3 735.18C1684.3 715.74 1679.54 697.434 1671.16 681.3L1567.36 735.18Z" fill="#EBEBFF"/>
<path d="M1686.7 639.632C1667.22 602.165 1628.08 576.552 1582.92 576.552C1568.93 576.552 1555.53 579.018 1543.1 583.525L1582.92 693.512L1686.7 639.632Z" fill="#9192FF"/>
<path d="M1732.9 1373.34H1456.24V1110.01H1732.9V1373.34Z" fill="#EBEBFF"/>
<path d="M1654.57 1191.13H1499.57V1180.01H1654.57V1191.13Z" fill="white"/>
<path d="M1654.57 1224.46H1499.57V1213.34H1654.57V1224.46Z" fill="white"/>
<path d="M676.818 1013.29H436.236V606.62H676.818V1013.29Z" fill="#EBEBFF"/>
<path d="M630.68 809.953H472.902V665.513H630.68V809.953Z" fill="white"/>
<path d="M629.555 811.18L471.777 666.74L474.028 664.273L631.807 808.726L629.555 811.18Z" fill="#EBEBFF"/>
<path d="M474.028 811.18L471.777 808.726L629.555 664.273L631.807 666.74L474.028 811.18Z" fill="#EBEBFF"/>
<path d="M3.18267 1133.76H550.283V774.356H3.18267V1133.76ZM553.465 1136.93H0V771.183H553.465V1136.93Z" fill="#9192FF"/>
<path d="M169.196 1053L95.5706 983.825L61.04 1048.57L58.0986 1047.01L94.6786 978.411L167.72 1047.02L216.685 904.585L308.907 1005.81L367.409 981.971L476.024 840.105L478.671 842.131L369.507 984.718L308.009 1009.77L307.227 1008.9L218.009 910.985L169.196 1053Z" fill="#9192FF"/>
<path d="M104.57 980.795C104.57 985.848 100.466 989.955 95.403 989.955C90.3403 989.955 86.2363 985.848 86.2363 980.795C86.2363 975.728 90.3403 971.622 95.403 971.622C100.466 971.622 104.57 975.728 104.57 980.795Z" fill="#9192FF"/>
<path d="M177.07 1048.34C177.07 1053.41 172.966 1057.52 167.903 1057.52C162.84 1057.52 158.736 1053.41 158.736 1048.34C158.736 1043.28 162.84 1039.18 167.903 1039.18C172.966 1039.18 177.07 1043.28 177.07 1048.34Z" fill="#9192FF"/>
<path d="M227.07 908.287C227.07 913.354 222.966 917.447 217.903 917.447C212.84 917.447 208.736 913.354 208.736 908.287C208.736 903.221 212.84 899.114 217.903 899.114C222.966 899.114 227.07 903.221 227.07 908.287Z" fill="#9192FF"/>
<path d="M393.399 833.848H160.065V830.514H393.399V833.848Z" fill="#9192FF"/>
<path d="M1309.94 1649.17C1300.08 1584.53 1313.64 1516.57 1347.54 1460.66C1381.46 1404.74 1435.46 1361.32 1497.34 1340.2C1462.3 1364.72 1440.92 1404.37 1425.98 1444.45C1411.06 1484.54 1401.28 1526.61 1382.85 1565.22C1364.44 1603.82 1335.41 1639.9 1295.14 1654.34L1309.94 1649.17Z" fill="#9192FF"/>
<path d="M1300.26 1649.7C1298.86 1575 1284.34 1500.56 1257.58 1430.78C1248.09 1406.01 1236.69 1381.29 1218.16 1362.29C1199.64 1343.3 1172.69 1330.8 1146.57 1335.44C1179.09 1359.78 1195.94 1399.84 1205.44 1439.34C1214.93 1478.86 1218.58 1519.86 1231.94 1558.24C1245.3 1596.61 1270.86 1633.6 1309.12 1647.32L1300.26 1649.7Z" fill="#9192FF"/>
<path d="M1295.16 1654.61C1276.56 1604.52 1256.34 1553.17 1218.94 1515.01C1181.54 1476.86 1122.28 1455.02 1073.3 1476.36C1112.97 1485.36 1149.32 1508.33 1174.48 1540.29C1192.93 1563.73 1205.33 1591.52 1224.3 1614.53C1243.28 1637.54 1272.22 1656.09 1301.54 1650.6L1295.16 1654.61Z" fill="#D1D1FF"/>
<path d="M1289.21 1651.18C1281.6 1596.21 1273.97 1540.36 1282 1485.45C1290.02 1430.54 1316 1375.72 1362.52 1345.46C1336.77 1370.72 1328.17 1408.96 1328.16 1445.02C1328.14 1481.09 1335.45 1516.82 1336.06 1552.89C1336.68 1588.94 1329.52 1627.25 1305.13 1653.82L1289.21 1651.18Z" fill="#D1D1FF"/>
<path d="M1314.96 1643.17C1332.78 1597.74 1351.78 1550.58 1388.09 1517.97C1411.41 1497.04 1441.1 1483.3 1472.16 1479.1C1450.38 1496.48 1436.76 1521.93 1425.45 1547.38C1414.14 1572.84 1404.38 1599.34 1388.01 1621.88C1371.64 1644.41 1347.05 1662.94 1319.22 1664.14L1314.96 1643.17Z" fill="#D1D1FF"/>
<path d="M1206.61 1779.73H1404.13L1434.33 1629.02H1176.41L1206.61 1779.73ZM1406.85 1783.06H1203.88L1172.34 1625.69H1438.4L1406.85 1783.06Z" fill="#9192FF"/>
<path d="M1763.98 1688.77V1781.4H1643.85L1698.85 1736.53L1701.74 1680.08L1763.98 1688.77Z" fill="#D1D1FF"/>
<path d="M1720.64 1759.55L1697.7 1737.73L1700.01 1735.31L1722.94 1757.13L1720.64 1759.55Z" fill="#1B1B43"/>
<path d="M1752.34 1716.68H1711.24V1713.34H1752.34V1716.68Z" fill="#1B1B43"/>
<path d="M1904.37 1693.1L1908.72 1781.4H1788.58L1839.25 1737.97V1684.42L1904.37 1693.1Z" fill="#D1D1FF"/>
<path d="M1856.8 1755.7L1838.14 1739.22L1840.34 1736.73L1859 1753.21L1856.8 1755.7Z" fill="#1B1B43"/>
<path d="M1893.45 1718.34H1852.9V1715.01H1893.45V1718.34Z" fill="#1B1B43"/>
<path d="M1776.08 1156.33C1778.14 1340.9 1793.45 1522.53 1822.7 1701.06H1923.92C1902.86 1564.53 1893.34 1398.73 1905.12 1178.9L1832.02 1119.04L1776.08 1156.33Z" fill="#FE5B52"/>
<path d="M1696.06 1180.74L1650.26 1384.45C1639.25 1433.4 1638.49 1484.09 1648.01 1533.34L1680.18 1699.74H1781.41L1750.78 1481.3L1824.04 1148.33L1696.06 1180.74Z" fill="#FE5B52"/>
<path d="M1782.9 1375.94C1782.65 1371.74 1776.89 1278.06 1776.29 1266.2L1749.84 1256.57L1750.97 1253.45L1779.57 1263.84V1265.01C1779.57 1267.06 1783.93 1338.34 1786.24 1375.74L1782.9 1375.94Z" fill="#BE443D"/>
<path d="M2002.06 720.779L2007.48 707.873C2007.48 707.873 1987.9 666.619 1994.14 661.206C2000.4 655.779 2010.4 671.206 2010.4 671.206C2010.4 671.206 2007.48 621.206 2017.06 620.779C2025.14 620.433 2024.57 634.953 2025.4 656.619C2025.4 656.619 2030.4 649.953 2039.6 656.846C2043.73 649.953 2052.48 654.539 2054.98 658.699C2057.9 655.366 2069.98 656.206 2068.32 670.366C2066.2 688.339 2057.9 721.619 2057.9 721.619L2031.24 743.699L2002.06 720.779Z" fill="#FFBC96"/>
<path d="M1787.9 893.288L1828.45 892.968C1899.57 886.621 1955.13 828.848 1955.13 828.848L2002.06 720.781L2057.9 721.621L2025.13 848.608C2020.42 866.848 2010.28 883.234 1996.05 895.568L1879.57 996.621L1787.9 893.288Z" fill="#3335CF"/>
<path d="M1676.76 985.291L1696.06 1180.74L1905.12 1178.9L1897.9 943.344L1787.9 893.344L1711.78 925.571L1676.76 985.291Z" fill="#3335CF"/>
<path d="M1547.29 1004.28C1543.88 1001.24 1539.58 999.397 1535.04 999.024C1511.93 997.09 1439.68 991.517 1440.38 997.117C1441.21 1003.78 1496.21 1028.78 1496.21 1028.78C1507.97 1042.02 1519.74 1055.26 1531.5 1068.49L1563.82 1018.94L1547.29 1004.28Z" fill="#FFBC96"/>
<path d="M1704.88 912.158C1689.98 914.758 1677.18 924.211 1670.33 937.691L1608.72 1058.78L1563.82 1018.94L1531.5 1068.49C1535.44 1072.92 1539.37 1077.34 1543.29 1081.77C1560.74 1101.41 1581.1 1127.81 1608.36 1133.53C1622.24 1136.44 1635.17 1130.68 1645.12 1121.12C1652.42 1114.12 1658.94 1105.46 1664.14 1096.78L1688.72 1056.29L1767.05 901.291L1704.88 912.158Z" fill="#3335CF"/>
<path d="M1686.8 1105.73L1675.1 985.45L1678.41 985.13L1690.12 1105.41L1686.8 1105.73Z" fill="#D1D1FF"/>
<path d="M1899.16 979.184L1879.57 996.677L1900.41 1031.26L1899.16 979.184Z" fill="#1B1B43"/>
<path d="M2032.62 681.486C2024.76 681.486 2024.16 671.18 2024.14 656.62H2026.65C2026.65 673.753 2028.05 678.98 2032.62 678.98C2033.54 678.98 2034.32 678.62 2035.02 677.86C2037.25 675.473 2038.12 669.9 2038.38 664.873C2038.21 661.26 2038.29 658.1 2038.34 656.793L2040.85 656.753C2040.86 657.06 2041.09 660.433 2040.9 664.58C2041.25 671.366 2042.38 678.073 2044.65 678.753C2045.92 679.14 2047.01 678.966 2048.01 678.26C2050.7 676.313 2052.22 670.82 2053.01 665.9C2053.08 663.793 2053.3 661.353 2053.74 658.513L2056.24 658.74C2056.22 659.02 2056.13 661.873 2055.6 665.46C2055.42 670.66 2056.01 675.7 2058.12 676.58C2059.66 677.233 2060.96 677.233 2062.04 676.566C2064.9 674.82 2065.94 668.926 2066.1 666.806L2068.6 666.993C2068.57 667.353 2067.88 675.926 2063.34 678.7C2061.54 679.793 2059.46 679.86 2057.14 678.886C2056.56 678.633 2054.72 677.566 2053.69 673.673C2052.7 676.46 2051.34 678.94 2049.46 680.286C2047.82 681.473 2045.97 681.766 2043.93 681.153C2041.73 680.486 2040.37 677.686 2039.54 674.18C2038.93 676.353 2038.06 678.273 2036.85 679.566C2035.66 680.833 2034.25 681.486 2032.62 681.486Z" fill="#D28572"/>
<path d="M1770.26 940.715C1752.5 942.155 1736.97 928.915 1735.53 911.182L1735.17 906.688L1730.1 843.822L1769.26 840.688L1794.4 838.648L1799.8 905.982C1801.24 923.755 1788 939.288 1770.26 940.715Z" fill="#FFBC96"/>
<path d="M1781.8 861.887C1769.6 883.381 1752.13 898.847 1735.17 906.688L1730.1 843.821L1769.26 840.687L1781.8 861.887Z" fill="#1B1B43"/>
<path d="M1794.57 796.048L1786.8 861.621C1786.8 861.621 1761.8 885.514 1725.13 884.381C1711.77 883.981 1703.9 871.314 1699.3 855.221C1697.4 848.487 1696.08 841.181 1695.13 833.887C1692.06 809.754 1693.46 786.048 1693.46 786.048L1750.13 767.181L1794.57 796.048Z" fill="#FFBC96"/>
<path d="M1785.96 823.007C1780.05 801.98 1769.45 791.394 1755.12 789.114C1709.57 813.847 1679.98 799.114 1658.45 771.62C1711.24 781.9 1734.29 706.9 1784.85 756.9C1822.34 768.287 1821.65 804.114 1800.41 833.287L1785.96 823.007Z" fill="#1B1B43"/>
<path d="M1809.48 831.047C1807.54 840.94 1799.02 847.606 1790.44 845.926C1781.86 844.26 1776.46 834.873 1778.4 824.98C1780.33 815.073 1788.86 808.42 1797.44 810.086C1806.02 811.766 1811.41 821.153 1809.48 831.047Z" fill="#FFBC96"/>
<path d="M1799.78 821.22C1797.17 821.66 1795.48 823.647 1794.21 825.887C1792.97 828.18 1792.16 830.714 1791.66 833.447L1790.69 833.514C1790.28 832.047 1790.26 830.487 1790.52 828.994C1790.77 827.487 1791.28 826.02 1792.05 824.674C1792.82 823.327 1793.84 822.074 1795.21 821.18C1796.54 820.274 1798.32 819.82 1799.85 820.247L1799.78 821.22Z" fill="#1B1B43"/>
<path d="M1707.06 825.648C1707.06 828.488 1705.7 830.781 1704.01 830.781C1702.32 830.781 1700.96 828.488 1700.96 825.648C1700.96 822.808 1702.32 820.515 1704.01 820.515C1705.7 820.515 1707.06 822.808 1707.06 825.648Z" fill="#1B1B43"/>
<path d="M1732.32 823.553C1732.32 826.633 1730.84 829.113 1729.01 829.113C1727.18 829.113 1725.7 826.633 1725.7 823.553C1725.7 820.473 1727.18 817.98 1729.01 817.98C1730.84 817.98 1732.32 820.473 1732.32 823.553Z" fill="#1B1B43"/>
<path d="M1714.01 829.821C1714.02 830.807 1713.62 831.781 1713.14 832.607C1712.65 833.434 1712.05 834.141 1711.45 834.794C1710.28 836.087 1709.17 837.261 1708.92 838.501C1708.58 839.754 1709.08 840.994 1710.04 842.234C1711.01 843.461 1712.32 844.567 1713.58 845.794L1713.05 846.607C1711.42 845.927 1709.81 845.061 1708.41 843.714C1707.72 843.034 1707.1 842.207 1706.69 841.194C1706.3 840.167 1706.21 838.994 1706.49 837.927C1706.77 836.834 1707.33 835.901 1707.97 835.167C1708.61 834.434 1709.3 833.821 1709.96 833.261C1711.26 832.141 1712.5 831.167 1713.04 829.674L1714.01 829.821Z" fill="#1B1B43"/>
<path d="M1716.41 857.593C1719.93 856.807 1723.2 855.7 1726.1 853.873C1727.57 852.98 1728.94 851.94 1730.26 850.807C1731.6 849.66 1732.85 848.433 1734.17 847.166L1734.96 847.74C1733.33 851.087 1730.7 854.02 1727.4 856.007C1724.12 857.993 1720.2 858.94 1716.46 858.566L1716.41 857.593Z" fill="#1B1B43"/>
<path d="M1725 809.754C1724.28 813.514 1736.1 814.727 1738.22 815.1C1739.98 815.407 1742.48 815.607 1742.85 812.954C1743.3 809.66 1739.72 809.314 1737.69 808.874C1735.76 808.447 1725.68 806.207 1725 809.754Z" fill="#1B1B43"/>
<path d="M1708.56 812.074C1708.49 815.701 1699.09 816.074 1697.37 816.288C1695.96 816.461 1693.98 816.474 1694.13 813.928C1694.32 810.754 1697.16 810.661 1698.81 810.381C1700.38 810.101 1708.61 808.634 1708.56 812.074Z" fill="#1B1B43"/>
<path d="M1752.69 846.834C1746.02 846.834 1740.61 841.421 1740.61 834.741C1740.61 828.074 1746.02 822.661 1752.69 822.661C1759.37 822.661 1764.78 828.074 1764.78 834.741C1764.78 841.421 1759.37 846.834 1752.69 846.834Z" fill="#FFA988"/>
<path d="M1699.3 855.221C1697.4 848.487 1696.08 841.181 1695.13 833.887C1700.34 835.247 1704.17 839.981 1704.17 845.581C1704.17 849.554 1702.28 853.047 1699.3 855.221Z" fill="#FFA988"/>
<path d="M842.914 1250.61H611.026V1235H842.914V1250.61Z" fill="#9192FF"/>
<path d="M842.903 1235.01H647.069L721.236 1054.18H917.069L842.903 1235.01Z" fill="white"/>
<path d="M649.555 1233.34H841.785L914.584 1055.85H722.353L649.555 1233.34ZM844.02 1236.68H644.584L720.119 1052.52H919.555L844.02 1236.68Z" fill="#9192FF"/>
<path d="M825.996 1219.81H672.094L730.38 1077.69H884.283L825.996 1219.81Z" fill="#EBEBFF"/>
<path d="M764.939 1782.24H761.605V1255.61H764.939V1782.24Z" fill="#1B1B43"/>
<path d="M950.308 1280.38H576.236V1250.62H950.308V1280.38Z" fill="#D1D1FF"/>
<path d="M274.368 1782.24H271.035V1476.82H274.368V1782.24Z" fill="#1B1B43"/>
<path d="M364.182 1490.98H181.222C185.106 1472.41 201.482 1459.1 220.458 1459.1H324.946C343.922 1459.1 360.298 1472.41 364.182 1490.98Z" fill="#D1D1FF"/>
<path d="M320.195 1781.36H225.208C225.208 1769.81 234.571 1760.44 246.12 1760.44H299.283C310.832 1760.44 320.195 1769.81 320.195 1781.36Z" fill="#D1D1FF"/>
<path d="M413.852 1023.66C418.532 1030.38 425.241 1039.9 425.984 1048.24C427.06 1060.34 407.695 1051.85 407.467 1052.9L413.852 1023.66Z" fill="#D28572"/>
<path d="M323.045 1127.64H384.278V1037.9H323.045V1127.64Z" fill="#FFBC96"/>
<path d="M384.279 1053.29V1117.36C364.984 1105.24 348.304 1087.24 333.89 1066.45L384.279 1053.29Z" fill="#1B1B43"/>
<path d="M418.695 1029.1C416.788 1060.1 404.861 1095.17 372.312 1086.52C346.745 1079.73 318.605 1058.2 318.605 1027.14C318.605 996.09 340.1 970.903 366.616 970.903C383.188 970.903 404.053 978.956 413.873 994.49C419.765 1003.81 419.527 1015.58 418.695 1029.1Z" fill="#FFBC96"/>
<path d="M364.503 1020.12C373.171 997.118 393.013 994.865 393.013 994.865C393.013 994.865 438.955 1040.3 436.109 993.358C433.848 956.038 397.383 959.571 397.383 959.571C379.568 936.385 350.997 945.451 340.577 958.905C330.157 972.345 333.856 964.611 309.319 973.358C284.781 982.091 297.891 1019.4 293.52 1022.09C260.917 1022.09 266.967 1054.36 266.967 1054.36L344.152 1079.53L362.744 1028.78L364.503 1020.12Z" fill="#1B1B43"/>
<path d="M372.55 1022.74C377.322 1031.01 376.033 1040.69 369.669 1044.37C363.305 1048.04 354.277 1044.32 349.504 1036.05C344.732 1027.78 346.022 1018.1 352.386 1014.44C358.75 1010.76 367.778 1014.48 372.55 1022.74Z" fill="#FFBC96"/>
<path d="M362.694 1032.7C361.609 1030.61 360.696 1028.57 359.234 1027.14C358.517 1026.42 357.686 1025.85 356.741 1025.33C355.796 1024.82 354.744 1024.4 353.665 1023.89L353.83 1023.01C355.054 1022.94 356.296 1023.09 357.514 1023.5C358.73 1023.9 359.912 1024.61 360.84 1025.57C361.768 1026.53 362.441 1027.68 362.861 1028.86C363.289 1030.05 363.516 1031.26 363.552 1032.49L362.694 1032.7Z" fill="#1B1B43"/>
<path d="M331.208 920.927C345.519 920.247 357.715 932.26 358.45 947.767C359.184 963.26 348.18 976.38 333.87 977.06C319.56 977.74 307.364 965.727 306.628 950.22C305.895 934.714 316.899 921.594 331.208 920.927Z" fill="#1B1B43"/>
<path d="M392.069 1058.34C385.626 1058.34 380.402 1053.12 380.402 1046.68C380.402 1040.24 385.626 1035.01 392.069 1035.01C398.513 1035.01 403.736 1040.24 403.736 1046.68C403.736 1053.12 398.513 1058.34 392.069 1058.34Z" fill="#FFA988"/>
<path d="M437.903 1348.34L241.803 1323.34L278.769 1128.45C281.369 1114.81 290.436 1103.24 303.069 1097.52C313.603 1092.72 325.636 1092.41 336.436 1096.64L403.269 1126.34C416.136 1132.05 425.003 1144.14 426.603 1158.12L430.369 1221.78L434.669 1293.94L437.903 1348.34Z" fill="#FFA121"/>
<path d="M617.347 1208.34L669.253 1193.09C672.993 1191.98 677.013 1192.58 680.261 1194.74C694.467 1204.18 732.286 1230.86 722.737 1241.77C717.97 1247.22 674.57 1234.45 674.57 1234.45L611.729 1251.98L617.347 1208.34Z" fill="#FFBC96"/>
<path d="M434.669 1293.94C418.336 1273.14 408.636 1245.68 405.402 1211.68L430.369 1221.78L434.669 1293.94Z" fill="#1B1B43"/>
<path d="M397.347 1123.9L405.16 1127.26C421.247 1134.2 435.661 1144.5 447.436 1157.46L511.792 1228.34L617.347 1208.34L631.236 1265.01L498.605 1306.46C488.133 1308.33 477.432 1304.72 470.235 1296.88L374.569 1192.78L397.347 1123.9Z" fill="#FFA121"/>
<path d="M510.564 1229.48C510.251 1229.13 478.852 1194.94 451.659 1164.45C424.776 1134.32 383.791 1119.66 383.38 1119.52L384.485 1116.37C384.904 1116.52 426.679 1131.44 454.147 1162.24C481.324 1192.7 512.705 1226.88 513.019 1227.21L510.564 1229.48Z" fill="#1B1B43"/>
<path d="M469.038 1298.04L380.039 1206.17L382.434 1203.85L471.432 1295.72L469.038 1298.04Z" fill="#1B1B43"/>
<path d="M430.794 1643.13L388.49 1725.54L495.36 1780.4L466.922 1715.37L490.125 1663.84L430.794 1643.13Z" fill="#D1D1FF"/>
<path d="M437.029 1725.9L436.088 1722.7L466.452 1713.77L467.393 1716.97L437.029 1725.9Z" fill="#1B1B43"/>
<path d="M497.347 1697.29L400.533 1661.17L466.831 1454.88C478.228 1424.33 513.335 1409.22 545.243 1421.13H545.244C577.152 1433.02 593.78 1467.45 582.383 1498L497.347 1697.29Z" fill="#26289C"/>
<path d="M591.236 1683.34L600.687 1781.4H720.815L665.818 1736.53L652.903 1680.01L591.236 1683.34Z" fill="#D1D1FF"/>
<path d="M638.152 1753.69L636.543 1750.77L665.012 1735.06L666.622 1737.98L638.152 1753.69Z" fill="#1B1B43"/>
<path d="M677.903 1695.01L572.903 1711.68L501.003 1500.24L487.903 1461.68L309.337 1463.12C265.17 1464.12 230.037 1426.28 234.37 1382.28L241.803 1323.34L418.47 1345.57L534.57 1358.34C582.903 1366.68 597.737 1395.94 607.803 1433.54L677.903 1695.01Z" fill="#3335CF"/>
<path d="M501.002 1500.24L487.902 1461.68L512.069 1460.85C514.302 1475.38 508.536 1491.61 501.002 1500.24Z" fill="#1B1B43"/>
<path d="M2094.57 1783.06H71.2363V1779.73H2094.57V1783.06Z" fill="#1B1B43"/>
</svg>
